/* XPM */
static const char *ZG93bjI_[] = {
/* columns rows colors chars-per-pixel */
"50 50 211 2 ",
"   c #010102",
".  c #0B0502",
"X  c #0E0A01",
"o  c #01000E",
"O  c #0B050B",
"+  c #0C0A0B",
"@  c #120A05",
"#  c #12060B",
"$  c #130B0B",
"%  c #1C080B",
"&  c #190B0E",
"*  c #1E1106",
"=  c #1B120D",
"-  c #070412",
";  c #0C0510",
":  c #0C0913",
">  c #110611",
",  c #130A12",
"<  c #1B0D12",
"1  c #161516",
"2  c #1B1315",
"3  c #23090F",
"4  c #291506",
"5  c #24150C",
"6  c #371B09",
"7  c #240B15",
"8  c #2B0D16",
"9  c #2D0B19",
"0  c #330E19",
"q  c #3C0E1B",
"w  c #211613",
"e  c #2C1C15",
"r  c #291618",
"t  c #241A1B",
"y  c #36121C",
"u  c #381818",
"i  c #3E2F03",
"p  c #37280C",
"a  c #25211E",
"s  c #33241D",
"d  c #39251B",
"f  c #3F3519",
"g  c #1B1A24",
"h  c #3C1823",
"j  c #1F232A",
"k  c #252423",
"l  c #2B2827",
"z  c #342A27",
"x  c #3B2A22",
"c  c #3C342A",
"v  c #282F3A",
"b  c #333333",
"n  c #591102",
"m  c #420F1E",
"M  c #441D17",
"N  c #43101E",
"B  c #621403",
"V  c #44220F",
"C  c #422714",
"Z  c #4A2817",
"A  c #562E18",
"S  c #593419",
"D  c #7B3409",
"F  c #652915",
"G  c #69361B",
"H  c #793E1B",
"J  c #421522",
"K  c #4A1222",
"L  c #431E28",
"P  c #501827",
"I  c #531C2B",
"U  c #442C27",
"Y  c #49202C",
"T  c #413226",
"R  c #4D322A",
"E  c #4B382C",
"W  c #562532",
"Q  c #5B2333",
"!  c #5F2938",
"~  c #463B35",
"^  c #5A3E34",
"/  c #683B25",
"(  c #662D3A",
")  c #632D3C",
"_  c #673439",
"`  c #744D0B",
"'  c #744A14",
"]  c #784719",
"[  c #5A4537",
"{  c #794621",
"}  c #644737",
"|  c #6C4D3B",
" . c #7C4738",
".. c #6F5F3A",
"X. c #71533D",
"o. c #7E6322",
"O. c #7E692F",
"+. c #343942",
"@. c #6D3241",
"#. c #733543",
"$. c #7A3947",
"%. c #7E3B49",
"&. c #3B4048",
"*. c #464547",
"=. c #564D45",
"-. c #58504E",
";. c #454452",
":. c #59585A",
">. c #6A504A",
",. c #6D5649",
"<. c #785847",
"1. c #75655A",
"2. c #636464",
"3. c #6C6C6C",
"4. c #776864",
"5. c #76716E",
"6. c #7B7A7A",
"7. c #B6371B",
"8. c #86441B",
"9. c #955617",
"0. c #A34E0A",
"q. c #A75009",
"w. c #AA520A",
"e. c #B2550A",
"r. c #876713",
"t. c #A67704",
"y. c #AE730F",
"u. c #854927",
"i. c #95532A",
"p. c #854C32",
"a. c #965A37",
"s. c #A45026",
"d. c #A65E35",
"f. c #B46F24",
"g. c #AA6338",
"h. c #B86A3A",
"j. c #C56B09",
"k. c #D5710A",
"l. c #DC5430",
"z. c #813A47",
"x. c #8C424E",
"c. c #91414C",
"v. c #875745",
"b. c #974853",
"n. c #A34E58",
"m. c #A6505B",
"M. c #AB535D",
"N. c #8B6A59",
"B. c #916C55",
"V. c #B1785F",
"C. c #B55861",
"Z. c #977866",
"A. c #AE7D68",
"S. c #C57443",
"D. c #F86A43",
"F. c #CE646E",
"G. c #998432",
"H. c #A88B38",
"J. c #C48C10",
"K. c #F4B00D",
"L. c #C38C32",
"P. c #CBA026",
"I. c #9B9256",
"U. c #B68C4B",
"Y. c #9D8C6A",
"T. c #88817E",
"R. c #A88269",
"E. c #AB8C74",
"W. c #BD8A73",
"Q. c #CE8157",
"!. c #C8A945",
"~. c #CF8567",
"^. c #DB8B68",
"/. c #DA9367",
"(. c #E28F6B",
"). c #E4916E",
"_. c #EA9777",
"`. c #F4C85E",
"'. c #F4D079",
"]. c #7A7D83",
"[. c #8C8987",
"{. c #938B89",
"}. c #989695",
"|. c #B79F86",
" X c #B6A593",
".X c #9492AF",
"XX c #ADACAB",
"oX c #A3A5B9",
"OX c #C1AA93",
"+X c #D1A99C",
"@X c #EBAD8B",
"#X c #EFB38E",
"$X c #F1B28F",
"%X c #F4B895",
"&X c #F8BF9B",
"*X c #C6B4A3",
"=X c #CBB7B2",
"-X c #F3BBA0",
";X c #F4D895",
":X c #EDC7AF",
">X c #F9C7A7",
",X c #F8C8AA",
"<X c #F7C9B0",
"1X c #EDD5BB",
"2X c #F7D4BD",
"3X c #FAD3BB",
"4X c #BDBFC2",
"5X c #D4D4D4",
"6X c #FBD9C4",
"7X c #FBDCC8",
"8X c #F6E2CF",
/* pixels */
"o o o o o o o o o o o o o o o o o o o o o o o o o o o o o o o o o o o o o o o o o o o o o o o o o o ",
"o o o o o o o o o o o o o o o o o o o o o 9 m m m 7 o o o o o o o o o o o o o o o o o o o o o o o o ",
"o o o o o o o o o o o o o o o o o o o o o - 0 I z.) ; o o o o o o o o o o o o o o o o o o o o o o o ",
"o o o o o o o o o o o o o o o o o o o o o o 9 Q @.Y < , > o o o o o o o o o o o o o o o o o o o o o ",
"o o o o o o o o o o o o o o o o o o o o 9 0 m K Q L 8 q 0 > o o o o o o o o o o o o o o o o o o o o ",
"o o o o o o o o o o o o o o o o o 9 0 0 I Q Q I I I 0 8 7 < , , , o o o o o o o o o o o o o o o o o ",
"o o o o o o o o o o o o o o - 9 9 W Q Q ) ) ) Q I J h Y Y Y Y L 0 , , o o o o o o o o o o o o o o o ",
"o o o o o o o o o o o o - 9 9 Q z.x.( ) ) ) ) ) I J W ) ) ) ) ) W L y , o o o o o o o o o o o o o o ",
"o o o o o o o o > 7 7 7 0 I Q x.M.x.) ) ) ) ) ) Q Q ) ) ) ) ) ) ) ) I y , o o o o o o o o o o o o o ",
"o o o o o o o o > 9 J I Q ) _ x.x.) ) ) ) ) ) ) ) ) ) ) ) ) ) ) ) ) ) I y , o o o o o o o o o o o o ",
"o o o o o o o o o O r W _ %.$.) ) ) ) ) ) ) ) ) ) ) ) ) ) ) ) ) ) ) ) ) I y , ; o o o o o o o o o o ",
"o o o o o o o o o o ; y #.m.c.) ) ) ) ) ) ) ) ) ) ) ) ) ) ) ) ) ) ) Q Q Q K 0 8 , ; o o o o o o o o ",
"o o o o o o o o o o > y ( b.#.#.#.) ) ) ) ) ) ) ) ) ) ) ) ) ) ) ) ) K K K K q 0 7 & O o o o o o o o ",
"o o o o o o o o o - 7 K I %.C.C.b.) ) ) ) ) ) ) ) ) ) ) ) ) ) ! ) ) K K K K %     o o o o o o o o o ",
"o o o o o o o o - 7 K I %.C.F.F.) K ( ) ) ) ) ) ) ) ) ) ) ) ! K ) ) ) K K K 8 ; o o o o o o o o o o ",
"o o o o o o > < 0 K I $.m.m.M.n.K ) m.#.) ) ) ) ) ) ) ) ) ) ) ) K K K K K K 8 7 > o o o o o o o o o ",
"o o o o o o o > 0 K I ) ) #.m.) K M.M.#.) b.%.) I I ) ) ) ) ) ) ) K ) ) K K K K 0 > o o o o o o o o ",
"o o o o o o o o > 0 K K I ) ) K ) m.M.#.I c.M.z.I I ) ) Q I ) ) ) K ) ) ) K 8 q K 0 ; o o o o o o o ",
"o o o o o o o o o > 0 I ) ) ) K ) m.#.I K ) b.z.L y I Q K K P ) ) ) K ) ) K 8 # 8 7     o o o o o o ",
"o o o o o o o o O 8 N I ) ! K 8 ) @.I K 8 J ( _ I 0 y K N y K P ) ) 8 K K K N 7 # o o o o o o o o o ",
"o o o o o o O , 8 N I ! ! K N 7 ) I K 8 G u J Q ) h 9 q M G 8 K ) ) 7 N K K K 8 O o o o o o o o o o ",
"o o o o o o o O 7 K K I K N 8 q I K 8 p.g.Z q Q ) I 0 7 Z i.7 K I ) 7 8 N K K m 8 : o o o o o o o o ",
"o o o o o o o o O 8 K q % 9 q N 8 8 O u.s.i.Z J Q I 0 u u.g.F 0 N I 7 O # q K K N 8 : o o o o o o o ",
"o o o o o o o o o O % u S # 8 3 G G A V 6 a.u.M J K 0 A i.Z V S 0 K 7 # Z u 0 7 % & O o o o o o o o ",
"o o o o o o o o o o e a.d.A /   V V V .   C a./ 8 q y u C   . V O 3 O O H F  .s       o o o o o o o ",
"o o o o o o o o o o e a.h.i.g.. ;.;.O     6 V.V.U 8 8 r 6     O ;.;.. A 8.s.p.e o o o o o o o o o o ",
"o o o o o o o o o o o w / G h.C .XoXM .   p.@X%XA.<.<.B.p.  . M oX.XC h.G / e o o o o o o o o o o o ",
"o o o o o o o o o o o O . 5 h.d.oX5X7.n ~ W.<X3X,X,X3X<XW.~ n 7.5XoXd.h.5 . # O o o o o o o o o o o ",
"o o o o o o o o o o O < & 5 a.Q.=X8XD.l.+X:X3X7X7X7X7X3X:X+Xl.D.8X=XQ.a.5 & ; o o o o o o o o o o o ",
"o o o o o o o o o o . & & & = (._.&X>X>X>X3X7X7X3X3X6X7X3X>X>X>X&X_.(.= & < ; o o o o o o o o o o o ",
"o o o o o o o o o o o   . & & g.).%X3X7X7X7X7X7X-X$X<X7X7X7X7X3X%X).g.5 & & O o o o o o o o o o o o ",
"o o o o o o o o o o o o o < 2 . g.~.#X3X6X6X6X2X>X%X>X6X6X6X3X#X~.g.. U +     o o o o o o o o o o o ",
"o o o o o o o o o o o o o , R   . . g.^.$X&X&X/.S.S./.&X&X$X^.g.. .   R , o o o o o o o o o o o o o ",
"o o o o o o o o o o o o o , R . e.e.@   a.^._._._._._._.^.a.  @ e.e.. R , o o o o o o o o o o o o o ",
"o o o o o o o o o o o o o - l  .. w.w.q.6 @ @ @ @ @ @ @ + b  Xw.w.. R v.l - o o o o o o o o o o o o ",
"o o o o o o o o o o o o - j *.-.Z.* 0.k.|.XXU.j.j.U.W.j.j.L.*X0.* Z.v.4.;.k : o o o o o o o o o o o ",
"o o o o o o o o o o o 1 -.[.5XXX| R 4 4 f.1X`.K.K.'.;XK.K.J.k 4 R B.v.T.:.5.+.: o o o o o o o o o o ",
"o o o o o o o o o o o g 3.XXZ.N.R.v.k l p c f i i c c i i p l a ^ A.4.:.&.}.4.w o o o o o o o o o o ",
"o o o o o o o o o o o 2 ,.Z.OX Xc e + b ,.U z Z B B Z l U ,.b l l <.;.+.v 4XE.^ 2 o o o o o o o o o ",
"o o o o o o o o o o o t <.Z.=.=.d T d 2 <.x *.>._ _ >.*.x v.l l k w 1 v ].{.E.^ w , o o o o o o o o ",
"o o o o o o o o o o o t | [ [ [ } E } $ T a *...o.o...*.a E b 6.2.b   1 4.Z.>.E x 2 o o o o o o o o ",
"o o o o o o o o o o o , e 2 Z.v.| x s l 6.}.2.o.t.t.o.2.}.}.}.6.1.~   6 e [ s E x + o o o o o o o o ",
"o o o o o o o o o o o o   = <.| } w * E }.5XY.H.!.P.y.Y.5XXX}.c ] r.. D %   $ s 2 o o o o o o o o o ",
"o o o o o o o o o o o o o O d T s e p S [ Y.!.U.I.G.t.L.Y.[ ~ C i.J.X D % o     o o o o o o o o o o ",
"o o o o o o o o o o o o o o     5 { Z Z { ` !.O.5 5 ` J.` { S Z u.] . G < o o o o o o o o o o o o o ",
"o o o o o o o o o o o o o o o . A { C $ S T r.y.9.9.9.' T ] A C { A l [ , o o o o o o o o o o o o o ",
"o o o o o o o o o o o o o o o o     . l 1 :.*.r.y.e.' *.2.+ . + a 4 {.H & o o o o o o o o o o o o o ",
"o o o o o o o o o o o o o o o o o   t [ z l 2.b + 2 =.5.~ ~ c z }.e.}.1 o o o o o o o o o o o o o o ",
"o o o o o o o o o o o o o o o o o o   t x x $   =.OXE.X.N.*XR.8.[.0.[.1 o o o o o o o o o o o o o o ",
"o o o o o o o o o o o o o o o o o o o   ^ | e o     T Z.,.              o o o o o o o o o o o o o o "
};
