/* XPM */
static const char *ZG93bjM_[] = {
/* columns rows colors chars-per-pixel */
"50 50 214 2 ",
"   c #010102",
".  c #0B0502",
"X  c #0E0A01",
"o  c #01000E",
"O  c #0C050C",
"+  c #0C0A0B",
"@  c #120A05",
"#  c #13060B",
"$  c #1B060C",
"%  c #130B0B",
"&  c #180C0E",
"*  c #1E1106",
"=  c #1C120D",
"-  c #0C0510",
";  c #090813",
":  c #100710",
">  c #140A12",
",  c #1B0C13",
"<  c #1B1215",
"1  c #191618",
"2  c #240B0D",
"3  c #291607",
"4  c #24150C",
"5  c #32190A",
"6  c #371B08",
"7  c #240D15",
"8  c #2B0E16",
"9  c #2A0C18",
"0  c #340814",
"q  c #340F19",
"w  c #3B0F1C",
"e  c #231614",
"r  c #2B1A16",
"t  c #23191C",
"y  c #39171B",
"u  c #3E2F03",
"i  c #37280C",
"p  c #25211E",
"a  c #33251D",
"s  c #39251B",
"d  c #3F3519",
"f  c #1B1A24",
"g  c #3A1923",
"h  c #1F232A",
"j  c #252423",
"k  c #2A2524",
"l  c #2A282A",
"z  c #342927",
"x  c #3B2A22",
"c  c #3B342A",
"v  c #282F3A",
"b  c #333333",
"n  c #591102",
"m  c #410E1C",
"M  c #461D16",
"N  c #44101E",
"B  c #621403",
"V  c #43220D",
"C  c #492716",
"Z  c #552E18",
"A  c #593319",
"S  c #66321A",
"D  c #6D3A1B",
"F  c #7E3F1B",
"G  c #441422",
"H  c #4B1222",
"J  c #481B27",
"K  c #431E29",
"L  c #501827",
"P  c #531C2C",
"I  c #48202C",
"U  c #442928",
"Y  c #55262C",
"T  c #413226",
"R  c #4D322A",
"E  c #4B382B",
"W  c #54382A",
"Q  c #552532",
"!  c #5B2534",
"~  c #5E2837",
"^  c #5F2938",
"/  c #473B35",
"(  c #5A3E34",
")  c #602B26",
"_  c #6B3D22",
"`  c #662C3B",
"'  c #632D3C",
"]  c #673539",
"[  c #764F0B",
"{  c #6F411E",
"}  c #784719",
"|  c #594638",
" . c #794624",
".. c #684A39",
"X. c #7B4B38",
"o. c #6F5F3A",
"O. c #71533D",
"+. c #7E6424",
"@. c #343942",
"#. c #6F3342",
"$. c #733543",
"%. c #7A3947",
"&. c #7E3B49",
"*. c #3B4048",
"=. c #464547",
"-. c #564D45",
";. c #58504E",
":. c #454452",
">. c #59585A",
",. c #6A504A",
"<. c #6D5649",
"1. c #785846",
"2. c #736358",
"3. c #636464",
"4. c #6C6C6C",
"5. c #776864",
"6. c #76716E",
"7. c #787878",
"8. c #913E1C",
"9. c #B6371B",
"0. c #88451E",
"q. c #955617",
"w. c #A34E0A",
"e. c #A95109",
"r. c #B2550A",
"t. c #A95B1C",
"y. c #876713",
"u. c #A67704",
"i. c #AE730F",
"p. c #884B25",
"a. c #96562A",
"s. c #864C35",
"d. c #945935",
"f. c #A34E24",
"g. c #A75D33",
"h. c #9C6030",
"j. c #B46F24",
"k. c #A96338",
"l. c #B26739",
"z. c #BB6B3A",
"x. c #C56B09",
"c. c #D5710A",
"v. c #DC5430",
"b. c #813D49",
"n. c #8C424E",
"m. c #974F47",
"M. c #875745",
"N. c #974853",
"B. c #A34E58",
"V. c #A6505B",
"C. c #AB535D",
"Z. c #8B6A59",
"A. c #916C55",
"S. c #B67D5F",
"D. c #B55861",
"F. c #8C7B6C",
"G. c #977866",
"H. c #B07B66",
"J. c #C67345",
"K. c #F86A43",
"L. c #CE646E",
"P. c #A18835",
"I. c #C48C10",
"U. c #F4B00D",
"Y. c #C38C32",
"T. c #CBA026",
"R. c #9B9256",
"E. c #B68C4B",
"W. c #9D8C6A",
"Q. c #88817E",
"!. c #B18971",
"~. c #CE8157",
"^. c #C8A945",
"/. c #CF8567",
"(. c #DB8B68",
"). c #DA9367",
"_. c #E28F6B",
"`. c #E4916E",
"'. c #E29670",
"]. c #EA9777",
"[. c #F4C85E",
"{. c #F4D079",
"}. c #7A7D83",
"|. c #8C8987",
" X c #9A8A82",
".X c #98908B",
"XX c #939393",
"oX c #9B9896",
"OX c #B79F86",
"+X c #B6A593",
"@X c #9492AF",
"#X c #ADACAB",
"$X c #A3A5B9",
"%X c #C1AA93",
"&X c #D1A99C",
"*X c #EBAD8B",
"=X c #EFB38E",
"-X c #F1B28F",
";X c #F4B693",
":X c #F8BF9B",
">X c #C6B4A3",
",X c #CBB7B2",
"<X c #F3BBA0",
"1X c #F4D895",
"2X c #EDC7AF",
"3X c #F9C7A6",
"4X c #F8C8AA",
"5X c #F7D4BD",
"6X c #FAD3BB",
"7X c #BDBFC2",
"8X c #D4D4D4",
"9X c #FBD9C4",
"0X c #FBDCC8",
"qX c #F6E2CF",
/* pixels */
"o o o o o o o o o o o o o o o o o o o o o o o o o o o o o o o o o o o o o o o o o o o o o o o o o o ",
"o o o o o o o o o o o o o o o o o o o > , , , , - o o o o o o o o o o o o o o o o o o o o o o o o o ",
"o o o o o o o o o o o o o o o o o o o o > I b.$.g - o o o o o o o o o o o o o o o o o o o o o o o o ",
"o o o o o o o o o o o o o o o o o o o o o 7 L ' ~ g > > : o o o o o o o o o o o o o o o o o o o o o ",
"o o o o o o o o o o o o o o o o o o o o : q N H ! K 9 w q : o o o o o o o o o o o o o o o o o o o o ",
"o o o o o o o o o o o o o o o o o : : : g Q H H P P q 9 7 , : : : o o o o o o o o o o o o o o o o o ",
"o o o o o o o o o o o o o o o : : K I I ^ ' ! H H G g I I I K w q : : o o o o o o o o o o o o o o o ",
"o o o o o o o o o o o o o o > I ] n.` ' ` ' ! H H G Q ' ' ' ' Q P q q > o o o o o o o o o o o o o o ",
"o o o o o o o o o o o o o , I n.C.n.` ' ' ' ! P P ! ' ' ' ' ' ' ' P H q > - o o o o o o o o o o o o ",
"o o o o o o o o o o o o , K ` n.n.` ' ' ' ' ' ' ' ' ' ' ' ' ' ' ' ' P P w q > - - o o o o o o o o o ",
"o o o o o o o o o o - , I &.%.' ' ' ' ' ' ' ' ' ' ' ' ' ' ' ' ' ' ' ' ' H H q , # - o o o o o o o o ",
"o o o o o o o o - , y K $.C.n.' ' ' ' ' ' ' ' ' ' ' ' ' ' ' ' ' ' ' ! ! H H m # o o o o o o o o o o ",
"o o o o o o o O , g Q ~ $.N.$.$.$.` ' ' ' ' ' ' ' ' ' ' ' ' ' ! ' ' L H H H 9 - o o o o o o o o o o ",
"o o o o o o o o O > 9 L ` &.D.D.N.' ' ' ' ' ' ' ' ' ' ' ' ' ^ L ~ ' ' ~ H H q : o o o o o o o o o o ",
"o o o o o o o o o o 7 P &.D.L.L.^ H ` ` ' ' ' ' ' ' ' ' ' ' ' ' H ~ ' H H H H q : o o o o o o o o o ",
"o o o o o o o o o 7 P %.C.C.C.B.H ` V.$.' ` ` ' ' ' ' ' ' ' ' ' H H H H H H H H q #     o o o o o o ",
"o o o o o o o o 7 P ' ' ' $.B.' H C.C.$.' N.&.' P P ' ' ! H ' ' ' H ' ' ' H H H H 2   o o o o o o o ",
"o o o o o o o 9 N H m 0 L ` ' H ' C.C.$.L n.C.b.P H P ' ! H ' ' ' H H ' ' H 8 , # o o o o o o o o o ",
"o o o o o o : , 7 7 8 H ' ' ' H ` C.$.L 9 Q N.b.K q H H N 9 L ' ' ' 7 G H H 9 O   o o o o o o o o o ",
"o o o o o o o o o - 8 L ' ^ H 8 ' #.` H 9 N ` ` P q q w 7 7 H H H ' 7 N H H N 7 O o o o o o o o o o ",
"o o o o o o o o o - y ^ ~ H N 7 ' ' L 8 S y G ! ' K 7 7 y S 8 H H H N 9 N H H N 9 > > O o o o o o o ",
"o o o o o o o o O 7 J ! H m 0 7 ' L 8 S g.C w H ! P 8 y p.g.S 8 H H H 7 m H H H N 7 O o o o o o o o ",
"o o o o o o o - 7 m H H 0 $ # 7 L H 7 0.f.a.U 0 N H q Z z.z.F O 8 8 N 7 $ $ $ $ $ O o o o o o o o o ",
"o o o o o o - O # $ $ $ 2 A _ 7 H q A V 6 p.m.Y 8 w q C p.C V A  .S 2 O   A  .3   o o o o o o o o o ",
"o o o o o o O O     r X. .0.Z O 2 O V .   5 S.S.s.) q r 5   . C A V   A Z 8.J.R o o o o o o o o o o ",
"o o o o o o o o o o r d.z.0.Z   :.:.O     5 !.;X'.s.9 r 5     O :.:.  k.a.f.s.r o o o o o o o o o o ",
"o o o o o o o o o o O r _ D l.C @X$XM .   s.*X3X;X!.2.A.s.  . M $X@XC l.D _ e o o o o o o o o o o o ",
"o o o o o o o o o o - > . 4 z.g.$X8X9.n / !.4X6X4X4X6X4X!./ n 9.8X$Xg.z.4 . O o o o o o o o o o o o ",
"o o o o o o o o o o o - & 4 d.~.,XqXK.v.&X2X6X0X0X0X0X6X2X&Xv.K.qX,X~.d.4 & , : o o o o o o o o o o ",
"o o o o o o o o o o o - , & = _.].:X3X3X3X6X0X0X6X6X9X0X6X3X3X3X:X]._.= & & & < - o o o o o o o o o ",
"o o o o o o o o o o o O & & & k.`.;X6X0X0X0X0X0X<X-X4X0X0X0X0X6X;X`.k.4 & .   o o o o o o o o o o o ",
"o o o o o o o o o o o     . < . l./.=X6X9X9X9X5X3X;X3X9X9X9X6X=X/.l.. U + o o o o o o o o o o o o o ",
"o o o o o o o o o o o o o > R   . . k.(.-X:X:X).J.J.).:X:X-X(.k.. .   R > o o o o o o o o o o o o o ",
"o o o o o o o o o o o o o > R . r.r.@   d.(.].].].].].].(.d.  @ r.r.. R > o o o o o o o o o o o o o ",
"o o o o o o o o o o o o ; l M.R . e.e.+Xb @ @ @ @ @ @ @ @ 5 e.e.e.. X.l ; o o o o o o o o o o o o o ",
"o o o o o o o o o o o ; l ;.5.M.G.* w.>XY.x.x.!.E.x.x.E.#XOXc.w.* G.;.=.h ; o o o o o o o o o o o o ",
"o o o o o o o o o o ; @.7.>.Q.M.A.R 3 j I.U.U.1X{.U.U.[.5Xj.3 3 R ..#X8X|.;.1 o o o o o o o o o o o ",
"o o o o o o o o o o e 2.oX*.>.5.H.( j l i u u c c u u d c i k j M.!.Z.F.#X4.f o o o o o o o o o o o ",
"o o o o o o o o o < W !.7X@.@.:.1.k k b <.U z C B B C l U <.b + r c +X%XF.<.t o o o o o o o o o o o ",
"o o o o o o o o > e ( !. X}.v 1 e j k l M.x =.,.] ] ,.=.x 1.1 s T s -.-.G.1.t o o o o o o o o o o o ",
"o o o o o o o o 1 x E ,.G.5.1   b 3.7.b E p =.o.+.+.o.=.p T % ..E ..| | | ..t o o o o o o o o o o o ",
"o o o o o o o o - x E a | e     / 2.7.XXXXXX3.y.u.u.+.3.XX6.. a x O.M.G.< r > o o o o o o o o o o o ",
"o o o o o o o o o < a %   o o . y.} c oX#X8XW.P.^.T.i.W.8XXXp * e ....1.=   o o o o o o o o o o o o ",
"o o o o o o o o o o       o o X I.a.C / | W.^.E.R.P.u.Y.W.| / i 5 s T s V 6 # o o o o o o o o o o o ",
"o o o o o o o o o o o o o o o . { p.C A  .[ ^.+.4 4 [ I.[  .A C  .4   6 d.p.e o o o o o o o o o o o ",
"o o o o o o o o o o o o o o o . Z  .C Z { T y.i.q.q.q.} c { Z C  .Z l h..X2.1 o o o o o o o o o o o ",
"o o o o o o o o o o o o o o o o         + 3.=.y.i.r.} =.>.+ + .   3 XX XoX .2 o o o o o o o o o o o ",
"o o o o o o o o o o o o o o o o o o 1 b / / 6.-.1 + b 3.k k k r 1 r.oXt.F.j o o o o o o o o o o o o ",
"o o o o o o o o o o o o o o o o o o o G.>XZ.O.!.%X-.  % x x r + |.w.|.t.*   o o o o o o o o o o o o ",
"o o o o o o o o o o o o o o o o o o o     <.G.T     o r O.W             o o o o o o o o o o o o o o "
};
