/* XPM */
static const char *ZG93bjE_[] = {
/* columns rows colors chars-per-pixel */
"50 50 218 2 ",
"   c #020103",
".  c #0B0504",
"X  c #0D0803",
"o  c #01000E",
"O  c #0C050E",
"+  c #0C0A0C",
"@  c #140707",
"#  c #1F0F02",
"$  c #14050A",
"%  c #150B0D",
"&  c #1B0B0D",
"*  c #1D150C",
"=  c #050310",
"-  c #0C0510",
";  c #0A0915",
":  c #100710",
">  c #150B12",
",  c #1C0C12",
"<  c #141214",
"1  c #1B1216",
"2  c #1D1C1C",
"3  c #230B0E",
"4  c #251202",
"5  c #201802",
"6  c #23130C",
"7  c #2D150A",
"8  c #381D0D",
"9  c #220D14",
"0  c #2A0E16",
"q  c #270A18",
"w  c #370614",
"e  c #340E19",
"r  c #3C0E1B",
"t  c #241513",
"y  c #231B14",
"u  c #23141A",
"i  c #2A181B",
"p  c #331C10",
"a  c #381719",
"s  c #3B121D",
"d  c #38210F",
"f  c #27221F",
"g  c #2E211E",
"h  c #33241C",
"j  c #3B271C",
"k  c #181721",
"l  c #3B1923",
"z  c #252423",
"x  c #24292F",
"c  c gray17",
"v  c #362826",
"b  c #3F322A",
"n  c #262A30",
"m  c #2E3238",
"M  c #353434",
"N  c #383232",
"B  c #3B3B3B",
"V  c #420F1D",
"C  c #480F1F",
"Z  c #44101E",
"A  c #421E18",
"S  c #6F1502",
"D  c #731703",
"F  c #462205",
"G  c #472913",
"H  c #492817",
"J  c #592919",
"K  c #5A3118",
"L  c #5E3519",
"P  c #613517",
"I  c #71381B",
"U  c #7C3F1A",
"Y  c #461221",
"T  c #4B1222",
"R  c #451B27",
"E  c #521B2A",
"W  c #412F23",
"Q  c #4C232E",
"!  c #472A2B",
"~  c #57202F",
"^  c #473528",
"/  c #4B352B",
"(  c #53312F",
")  c #512531",
"_  c #5B2433",
"`  c #5E2837",
"'  c #473A34",
"]  c #5A3C35",
"[  c #673C21",
"{  c #632D3C",
"}  c #682B3A",
"|  c #653738",
" . c #6B4512",
".. c #74431F",
"X. c #77601A",
"o. c #48433E",
"O. c #5A4435",
"+. c #7B4628",
"@. c #634836",
"#. c #7F4E35",
"$. c #7E6523",
"%. c #746033",
"&. c #6D3241",
"*. c #723442",
"=. c #7E3B47",
"-. c #3F444C",
";. c #454445",
":. c #4B4C4C",
">. c #554C47",
",. c #58544F",
"<. c #4E4F50",
"1. c #58585A",
"2. c #6A5343",
"3. c #60544D",
"4. c #755640",
"5. c #78594A",
"6. c #665C51",
"7. c #7F6848",
"8. c #7C7545",
"9. c #7E6256",
"0. c #575667",
"q. c #696867",
"w. c #756C69",
"e. c #727373",
"r. c #C23A1C",
"t. c #92500D",
"y. c #9B5614",
"u. c #A24D09",
"i. c #B3560A",
"p. c #B25B14",
"a. c #936B10",
"s. c #A67709",
"d. c #AE7713",
"f. c #824C22",
"g. c #8C4E26",
"h. c #8D5325",
"j. c #93552E",
"k. c #8B5334",
"l. c #935732",
"z. c #866B2B",
"x. c #AA6437",
"c. c #B76939",
"v. c #DA750C",
"b. c #DF7A0A",
"n. c #C06F3E",
"m. c #843E4B",
"M. c #8D3E4A",
"N. c #88404D",
"B. c #8D5743",
"V. c #925D48",
"C. c #8E4450",
"Z. c #964853",
"A. c #A14E58",
"S. c #A7515B",
"D. c #AB525C",
"F. c #81614B",
"G. c #896C55",
"H. c #8E705B",
"J. c #B16C4D",
"K. c #B8765A",
"L. c #B85963",
"P. c #8E786A",
"I. c #8E7A6C",
"U. c #A57C67",
"Y. c #C87A52",
"T. c #E16742",
"R. c #F87952",
"E. c #C55F69",
"W. c #CD646D",
"Q. c #B18E29",
"!. c #F6B80E",
"~. c #C69A27",
"^. c #D78F3F",
"/. c #CDA833",
"(. c #9D8750",
"). c #9A8577",
"_. c #B0836B",
"`. c #A98B73",
"'. c #A8947F",
"]. c #D3855C",
"[. c #D0B352",
"{. c #E8BC43",
"}. c #C2886C",
"|. c #DE8C67",
" X c #D0866A",
".X c #CE9373",
"XX c #EA9777",
"oX c #D0A06C",
"OX c #878685",
"+X c #8A8989",
"@X c #9D9187",
"#X c #949392",
"$X c #9A9A99",
"%X c #B39C85",
"&X c #B9A48C",
"*X c #BFAE98",
"=X c #9492AF",
"-X c #A8A8A9",
";X c #A9ABBC",
":X c #C29E83",
">X c #C3AF9D",
",X c #D1B09B",
"<X c #E7A984",
"1X c #EDB392",
"2X c #F5B996",
"3X c #D1B1A8",
"4X c #F4BEA3",
"5X c #F9DC8C",
"6X c #F6C7AB",
"7X c #FACAAC",
"8X c #F4CAB2",
"9X c #F9CEB4",
"0X c #FAD1B7",
"qX c #FBD5BD",
"wX c #CCCDD0",
"eX c #D1D1D0",
"rX c #F9DAC4",
"tX c #FBDCC8",
/* pixels */
"o o o o o o o o o o o o o o o o o o o > , , , , $ o o o o o o o o o o o o o o o o o o o o o o o o o ",
"o o o o o o o o o o o o o o o o o o o o > Q N.=.v 1 , , > o o o o o o o o o o o o o o o o o o o o o ",
"o o o o o o o o o o o o o o o o o o o o v i ) { ! t 0 Z e > o o o o o o o o o o o o o o o o o o o o ",
"o o o o o o o o o o o o o o o o o > > > u 9 u Q ` ) R 9 9 , > > > o o o o o o o o o o o o o o o o o ",
"o o o o o o o o o o o o o o o > > Q ) ) ) ) Y T R l e r r r r r r > > o o o o o o o o o o o o o o o ",
"o o o o o o o o o o o o o o , ) =.Z.} { { { ` E s e R _ _ _ _ _ _ Q s > o o o o o o o o o o o o o o ",
"o o o o o o o o o o o o o , ) Z.D.m.{ { { { _ T Z R ` { { { { { { { _ s > o o o o o o o o o o o o o ",
"o o o o o o o o o o o : , Q { m.m.{ { { { { _ ~ ~ ` { { { { { { { { { _ s > : o o o o o o o o o o o ",
"o o o o o o o O - - 9 l ) N.m.{ { { { { { { { { { { { { { { { { { { { { _ s e , - - O o o o o o o o ",
"o o o o o o o - , 0 l _ } S.N.{ { { { { { { { { { { { { { { { { { { _ _ _ T C r , $ - o o o o o o o ",
"o o o o o o o o - u Z T } C.=.=.=.{ { { { { { { { { { { { { { { { { E T T T e 0 $ o o o o o o o o o ",
"o o o o o o o o o - 0 E } m.L.L.Z.` { { { { { { { { { { { { { { _ { { E T T &   o o o o o o o o o o ",
"o o o o o o o o o = q _ m.L.W.E.` E *.{ { { { { { { { { { { { { E ` ` ` T T e > = o o o o o o o o o ",
"o o o o o o o o = q E *.A.A.D.Z.T &.S.*.{ &.} { { { { { { { { { { T T T T V C a , o o o o o o o o o ",
"o o o o o o o O q E ` ` { *.Z.` T S.D.*.{ Z.m.{ E E { { { { { { { T ` { E w r Z a > o o o o o o o o ",
"o o o o o o : e Z Z r w E { { T { D.D.&.T M.D.m.E Z E { _ T { { { { T ` { T 0 e V 3     o o o o o o ",
"o o o o o o o : , , 0 E { { ` T { D.&.T T _ Z.m.l e T E _ T T { { { T T ` T 0 .       o o o o o o o ",
"o o o o o o o o o - 0 E { ` Y 9 { { { T 0 Q { { E e e T s 0 C T { { 9 Z T T Y 0 O o o o o o o o o o ",
"o o o o o o o o o - l { ` T Z 9 { { T 0 I A Q { { R 9 q A I 0 C T { 9 V T T T 0 - o o o o o o o o o ",
"o o o o o o o o O 0 Y T T Z 9 9 T T 0 I x.H s _ { E e , H x.I 0 T T 9 9 Z T T Z 0 O o o o o o o o o ",
"o o o o o o O > 0 Z T T r $ 9 V T 0 . U c.g.A s T T e a g.c.U . 0 C r 9 $ r T T Z 0 > O o o o o o o ",
"o o o o o o o . . $ $ $ 7 K 9 Y 0 . P 8 p j.J.| r C e H U p 8 P . w w 9 K a 0 0 0 9 > o o o o o o o ",
"o o o o o o o o o   j B.[ 7 . $ .   7 .   p _.}.| r e t 6   . 7   . $ . 7 +.V.( > O o o o o o o o o ",
"o o o o o o o o o o t #.x.L [ . 0.0.+     8 }.2X}.| 0 p 8     + 0.0.. [ L x.#.i o o o o o o o o o o ",
"o o o o o o o o o o o t K L c.K =X;XJ .   k.1X6X2X.XP.U.k.  . J ;X=XK c.L K t o o o o o o o o o o o ",
"o o o o o o o o o o o O . 6 n.x.;XeXr.S >..X8XqX9X9XqX8X.X>.S r.eX;Xx.n.6 . O = o o o o o o o o o o ",
"o o o o o o o o o o o - & 6 +.].3XrXR.T.,X8XqXtXtXtXtXqX8X,XT.R.rX3X].+.6 > - o o o o o o o o o o o ",
"o o o o o o o o o o o : , % * |.XX2X7X7X7XrXtXtX0X8XqXtXrX7X7X7X2XXX|.* > , O o o o o o o o o o o o ",
"o o o o o o o o o o O % % $ & j.|.1X0XrXtXtXtXtX4X1X7XtXtXtXrX0X1X|.j.t % %     o o o o o o o o o o ",
"o o o o o o o o o o       . t . l.K.<X6XqXqXqX8X1X<X2XqXqXqX6X<XK.l.. ! +       o o o o o o o o o o ",
"o o o o o o o o o o o o o > /   # # j.K.<X2X2X|.Y.Y.|.2X2X<XK.j.# #   / > o o o o o o o o o o o o o ",
"o o o o o o o o o o o o o > ( * u.i.4 < k.Y. X X X X X XY.k.< 4 i.u.* ( > o o o o o o o o o o o o o ",
"o o o o o o o o o o o o ; c V.U.. u.i.>XM . . . X X . . . M >Xi.u.. U.V.c ; o o o o o o o o o o o o ",
"o o o o o o o o o o o ; n :.>.B.B.. u.v.,X^.b.b.oXoXb.b.^.,Xv.u.. B.B.>.:.n ; o o o o o o o o o o o ",
"o o o o o o o o o o o ; n <.w.V._.] @ X $X{.!.!.5X5X!.!.{.$XX @ ] _.V.w.<.n ; o o o o o o o o o o o ",
"o o o o o o o o o o o ; m e.OXw.V.] z c 2 * 5 5 y y 5 5 * 2 c z ] V.w.OXe.m ; o o o o o o o o o o o ",
"o o o o o o o o o o o ; x -.<.2 | i z M 9./ N J D D J N / 9.M z i | 2 <.-.x ; o o o o o o o o o o o ",
"o o o o o o o o o o k 1.-XwXwX+X% z z c 5.h ;.3.] ] 3.;.h 5.c z z % +XwXwX-X1.k o o o o o o o o o o ",
"o o o o o o o o o u O.5.I.).I.B B e.#XB b z ;.%.a.a.%.;.z b B #Xe.B B I.).I.5.O.u o o o o o o o o o ",
"o o o o o o o o o v F.`.&X%XH.  ^ 2.q.-X-X:.B $.s.s.$.B :.-X-Xq.2.^   H.%X&X`.F.v o o o o o o o o o ",
"o o o o o o o o o > b >.6.3.' X s.f.W +X$X+X7.Q.[./.Q.7.+X$X+XW f.s.X ' 3.6.>.b > o o o o o o o o o ",
"o o o o o o o o o O y W ^ t h X d.h.G / O.(.[.(.8.$.s.~.(.O./ G h.d.X h t ^ W y + o o o o o o o o o ",
"o o o o o o o o o < / 4.@.y h . ..g.H L f. ./.z.p p t.d. .f.L H g.... h y 2.4./ < o o o o o o o o o ",
"o o o o o o o o o - g W h       G P d G L ' X.s.a.y.t. .' L G d P G F F X h W g - o o o o o o o o o ",
"o o o o o o o o o o o       o o   . + + < 1.:.X.a.t. .:.1.< + + + M x.x.v +   o o o o o o o o o o o ",
"o o o o o o o o o o o o o o o o o < z c M M q.B . . B q.M M c z 2 $X`.$X6.1 o o o o o o o o o o o o ",
"o o o o o o o o o o o o o o o o o < ' ,.o.' >.>.f f >.>.' o.,.' j $Xp.@Xg.3 o o o o o o o o o o o o ",
"o o o o o o o o o o o o o o o o o o P.*XG.4.'.%X2.2.%X'.4.G.*X_.t.OXt.I.+.& o o o o o o o o o o o o ",
"o o o o o o o o o o o o o o o o o o   . 7.U.b .     . b U.7..             o o o o o o o o o o o o o ",
"o o o o o o o o o o o o o o o o o o g @.`.:XG./ 1 1 / G.:X`.@.g o o o o o o o o o o o o o o o o o o "
};
