/* XPM */
static const char *ZW5lbXkx[] = {
/* columns rows colors chars-per-pixel */
"50 50 224 2 ",
"   c #000005",
".  c #01000E",
"X  c #020809",
"o  c #1F1B07",
"O  c #060212",
"+  c #0C0414",
"@  c #0B0A1A",
"#  c #11041A",
"$  c #160718",
"%  c #08181B",
"&  c #1D1E16",
"*  c #13121E",
"=  c #3E321B",
"-  c #1A0723",
";  c #1A0C2C",
":  c #1E0E31",
">  c #161A31",
",  c #2A0A28",
"<  c #201120",
"1  c #340A32",
"2  c #231333",
"3  c #25133A",
"4  c #2A153D",
"5  c #37153B",
"6  c #092329",
"7  c #0E363E",
"8  c #13353B",
"9  c #24232D",
"0  c #292832",
"q  c #453616",
"w  c #43133A",
"e  c #48133D",
"r  c #3C4D32",
"t  c #2B1442",
"y  c #2B1D45",
"u  c #351A4D",
"i  c #3A1C55",
"p  c #3B1C55",
"a  c #0F3C44",
"s  c #153041",
"d  c #3B2252",
"f  c #332E57",
"g  c #313F68",
"h  c #520F45",
"j  c #580F48",
"k  c #4A1245",
"l  c #4B1444",
"z  c #551948",
"x  c #471750",
"c  c #5A1B53",
"v  c #641251",
"b  c #671C5A",
"n  c #721A5F",
"m  c #56204A",
"M  c #472958",
"N  c #67255A",
"B  c #6A355A",
"V  c #591F66",
"C  c #621F61",
"Z  c #741C61",
"A  c #7B1D66",
"S  c #452264",
"D  c #4B256B",
"F  c #4A2B6A",
"G  c #572769",
"H  c #4B3964",
"J  c #583364",
"K  c #562A74",
"L  c #49387A",
"P  c #682167",
"I  c #7A236A",
"U  c #743B6D",
"Y  c #682B77",
"T  c #782979",
"R  c #12424B",
"E  c #144752",
"W  c #134A54",
"Q  c #174C58",
"!  c #15525D",
"~  c #18545F",
"^  c #21455C",
"/  c #185664",
"(  c #1A5D6B",
")  c #31536B",
"_  c #324D76",
"`  c #395378",
"'  c #1B6673",
"]  c #1B6B78",
"[  c #296774",
"{  c #564E50",
"}  c #654941",
"|  c #504D73",
" . c #794067",
".. c #7F7F7F",
"X. c #86630A",
"o. c #9B7D24",
"O. c #852472",
"+. c #8A2878",
"@. c #94277B",
"#. c #96287C",
"$. c #84317B",
"%. c #916457",
"&. c #A1715E",
"*. c #884F72",
"=. c #A58B1C",
"-. c #DBAE14",
";. c #D0A72D",
":. c #F5CE37",
">. c #9C8E5F",
",. c #5B2E82",
"<. c #553783",
"1. c #5F3189",
"2. c #752C83",
"3. c #7A2C84",
"4. c #712F88",
"5. c #693685",
"6. c #63348D",
"7. c #78338F",
"8. c #693794",
"9. c #693795",
"0. c #6D3A9B",
"q. c #753593",
"w. c #7A3796",
"e. c #733C9C",
"r. c #743FA4",
"t. c #1E7A89",
"y. c #316D8F",
"u. c #2C7987",
"i. c #207F8E",
"p. c #505087",
"a. c #6B4A91",
"s. c #774998",
"d. c #4E6D93",
"f. c #7747A6",
"g. c #744FA4",
"h. c #7A44AB",
"j. c #7E46B1",
"k. c #4B70A7",
"l. c #852B81",
"z. c #8F2F88",
"x. c #9A2C82",
"c. c #962F89",
"v. c #993489",
"b. c #8A399A",
"n. c #9E3A97",
"m. c #913999",
"M. c #A02E87",
"N. c #A22F88",
"B. c #A4318B",
"V. c #A9338E",
"C. c #A73C8E",
"Z. c #A83A97",
"A. c #B03896",
"S. c #B43A9A",
"D. c #BA3C9E",
"F. c #8F3EA3",
"G. c #AC3DA0",
"H. c #B13EA1",
"J. c #BE3EA2",
"K. c #C03FA4",
"L. c #88459D",
"P. c #B24A9C",
"I. c #B07890",
"U. c #844AA9",
"Y. c #8B4DAD",
"T. c #8149B4",
"R. c #8349B5",
"E. c #8A56B6",
"W. c #9159B8",
"Q. c #BA59A4",
"!. c #AF51B4",
"~. c #AE5EBE",
"^. c #8C6CA9",
"/. c #9461BD",
"(. c #9A6ABE",
"). c #A262BE",
"_. c #C140A5",
"`. c #C64AA9",
"'. c #CA57AB",
"]. c #D15FB1",
"[. c #D065B0",
"{. c #D464B4",
"}. c #D76BB6",
"|. c #DD74BB",
" X c #8B4FC1",
".X c #935CC2",
"XX c #9B67C4",
"oX c #9D64CC",
"OX c #AD69C6",
"+X c #A972D4",
"@X c #AB75D5",
"#X c #228494",
"$X c #248A9A",
"%X c #298E9E",
"&X c #3684A1",
"*X c #2B93A4",
"=X c #2F98A8",
"-X c #3196A7",
";X c #329BAB",
":X c #379FB0",
">X c #3EA9BB",
",X c #4095AB",
"<X c #48A3B3",
"1X c #59AFBD",
"2X c #67AAB6",
"3X c #72B1BC",
"4X c #698FCA",
"5X c #43AFC1",
"6X c #4CB7C9",
"7X c #57BBCC",
"8X c #51BED1",
"9X c #54C2D5",
"0X c #5EC7D9",
"qX c #64C7D8",
"wX c #6ACBDC",
"eX c #79C6D3",
"rX c #BC859E",
"tX c #BA84A0",
"yX c #BCC695",
"uX c #B480DB",
"iX c #8ED1DD",
"pX c #90D3DE",
"aX c #98DBE7",
"sX c #A2DFEA",
/* pixels */
". . . . . . . . . . . . . . . . . . . . . . . . . . . . . . . . . . . . . . . . . . . . . . . . . . ",
"p p p p p # . . . . . . . . . . . . . . . . . . . . . . . . . . . . . . . . . . . . . - p p p p p . ",
"O p ,.j.T.D p p - . . . . . . . . . . . . . . . . . . . . . . . . . . . . . . . ; p p S 1.1.,.p O . ",
". + p 6.8.h.T.8.S u ; . . . . . . . . . . . . . . . . . . . . . . . . . . . ; u S 8.T.h.6.,.p + . . ",
". . I Z.H.w.8.h.T.8.S ; . . . . . . . . . . . . . . . . . . . . . . . . . ; S 8.T.h.8.q.+.O.h . . . ",
". . O.J._.H.G.w.8.W.E.K ; . . . . . . . . . . O Z O . . . . . . . . . . ; S 0.h.8.q.c.S.D.V.h . . . ",
". . O.J.{.{.{.P.Z.U./.XX5.; . . . . . . . . + Z S.k O . . . . . . . . ; S 0.h.7.l.c.D._._.A.h . . . ",
". b A.].|.|.|.}.{.L.T.+X/.K ; . . . . . . . # #.J.v O . . . . . . . : S 0.f.7.+.x.D._._._.S.A 1 . . ",
". +.J.}.|.|.|.|.|.Q.b./.@Xs.3 . . . . . . . # #.J.v O . . . . . . . 4 6.T.f.3.M.D._.K.K._.D.+.j . . ",
". +.J.}.|.|.|.].'.`.b.U.@X/.K ; . . . . . . # #.J.v O . . . . . . ; S f.j.8.3.x.B.B.B.B.B.N.+.j . . ",
"3 2.Y.~.~.~.~.!.~.OX).XX@X@Xs.4 . . . . . . # #.J.v O . . . . . . t 6..XXXW.Y.F.F.F.F.b.2.2.2.G 3 . ",
": D r.r.r.r.r.r.U.XXoX@XuXuX/.D ; . . . . . # #.J.v O . . . . . ; K E.@X+XoX.XT.r.r.r.e.6.6.1.D ; . ",
". : T m.m.m.m.m.m.q.E.@XuXuX@Xf.t . . . . . # #.J.v O . . . . . t g.oX@XoX Xh.4.3.3.3.3.3.2.V : . . ",
". . O.D.'.'.'.`.v.s.(.@X@XXXg.5.t . . . . + l #.K.A 1 O . . . . t a.s./..XT.h.Y I x.V.V.B.O.h . . . ",
". . l B.}.|.{.C.5./.XXf.E.s.u 3 ; . . . . $ @.#._.@.v + . . . . ; 3 u s.f.8.T.h.Y +.S._.S.n 1 . . . ",
". . . I '.{.Z.5.h.W.L.G 1.<.> . . . . . + l B.#._.@.Z , O . . . . . 3 <.,.K w.T.h.Y +.S.A.h . . . . ",
". . . I D.n.5.r.h.w.z.Y L _ s # . . . O 4 B.n.l.Z.l.l.Z : O . . . # s g F P l.e.j.e.Y +.M.h . . . . ",
". . . I v.K e.w.7.c.S.T _ u.` y - - ; s K n.0.0.0.0.0.l.D > - - - y ) / f P @.l.4.q.0.G I h . . . . ",
". . . c S ,.q.c.P.`.`.l.` 1X3X| c b | y.1.<.g. X X Xg.<.1.^ M b c | <Xu.f I x.x.x.l.4.,.x 1 . . . . ",
". . . . u D $.x.'.}.'.V.p.1XaX3X` | $X&Xp.W / g.T.g./ W L / W J | 3XqXu.J @.V.J.x.Z P D u . . . . . ",
". . . . t +     N v.S.n.d.>XqXeX<X] =X6Xt.! %X/ <.! %XQ E t./ ! 2X7X-X( H +.x.+.l     + 4 . . . . . ",
". . . .     . .     N a.,X8X,Xd.eX5X:X7X#X( 8X%X! %X9X~ Q i.( t.i.( t.' Q J w     . .     . . . . . ",
". . . . . . . . . .   e p.;X4Xa.( ;XwXaX8X*X9X9X%X9X8X~ i.%X$X/ E L y.#X| w   . . . . . . . . . . . ",
". . . . . . . . . . .   6 ' k.f.p.;XwXsXiX*X9X9X9X9X$X! #X6X*X/ L 1.y.' 6   . . . . . . . . . . . . ",
". . . . . . . . . . .   R #X] E ( ;XwXsXaX8X%X8X$X9XQ #X8X9X*X/ W E ] #Xa   . . . . . . . . . . . . ",
". . . . . . . . . . . .   R ] ( ;X5X;XwXsXpX$X$X$X$XW 6XaXqX' <X;X( ] a   . . . . . . . . . . . . . ",
". . . . . . . . . . .       a ] u.wXaXaXsXpX#XQ #XW #XaXsXaXqX9X[ ] 7       . . . . . . . . . . . . ",
". . . . . . . . . . . . w C 2 6 ( :X0XwXsXaX6XW #XW 6XaXsXwX9X;X( 6 3 P 5 . . . . . . . . . . . . . ",
". . . . . . . . . . . . k +.O.J 7 % a ;XqX0X8Xt.! t.9X0XqX;X8 % 7 J O.@.k . . . . . . . . . . . . . ",
". . . . . . . . . . . . + B [.Q.U r X.% 8 *X%X/ <.! %X*X8 % X.r J V.N.l + . . . . . . . . . . . . . ",
". . . . . . . . . . . . . $  .|.P.} ;.>.o =.! E 1.E / yX& X.=.} z.B.l + . . . . . . . . . . . . . . ",
". . . . . . . . . . . .   w C.P.$.J &.;.q -.o.<.j.L o.:.= -.%.M v.D.+.,   . . . . . . . . . . . . . ",
". . . . . . . . . . . . . $ U [.*.4 5.*.s.I.tXXX+XXXrXI.s.*.5.3 +.A.z $ . . . . . . . . . . . . . . ",
". . . . . . . . . . . . . . < *.Q.N 2 2 d f.oXuXuXuXoXf.d 2 2 z @.z $   . . . . . . . . . . . . . . ",
". . . . . . . . . . . . . . . < B v.U 4 p 3 d U.oXU.d 3 p 4 z x.c $   . . . . . . . . . . . . . . . ",
". . . . . . . . . . . . . . . < I '.Q.D e.m { 4 d 4 { z e.4 I N.n - . . . . . . . . . . . . . . . . ",
". . . . . . . . . . . . . .   $ z B | d.5.Y ^.F F F ^.Y 5.^ 5 w w $   . . . . . . . . . . . . . . . ",
". . . . . . . . . . . . . .         % [ d.` 6.6.6.6.6.f _ E @         . . . . . . . . . . . . . . . ",
". . . . . . . . . . . . . . . . . . . % [ R 3 _ 2 _ 2 6 R @ . . . . . . . . . . . . . . . . . . . . ",
". . . . . . . . . . . . . . . . . . . .     X W   W       . . . . . . . . . . . . . . . . . . . . . ",
". . . . . . . . . . . . . . . . . . . . . .     .     . . . . . . . . . . . . . . . . . . . . . . . ",
". . . . . . . . . . . . . . . . . . . . . . . . . . . . . . . . . . . . . . . . . . . . . . . . . . ",
". . . . . . . . . . . . . . . . . . . . . . . . . . . . . . . . . . . . . . . . . . . . . . . . . . ",
". . . . . . . . . . . . . . . . . . . . . . . . . . . . . . . . . . . . . . . . . . . . . . . . . . ",
". . . . . . . . . . . . . . . . . . . . . . . . . . . . . . . . . . . . . . . . . . . . . . . . . . ",
". . . . . . . . . . . . . . . . . . . . . . . . . . . . . . . . . . . . . . . . . . . . . . . . . . ",
". . . . . . . . . . . . . . . . . . O * * * * * * * * * * * O . . . . . . . . . . . . . . . . . . . ",
". . . . . . . . . . . . . . . . O @ 0 ......................0 @ O . . . . . . . . . . . . . . . . . ",
". . . . . . . . . . . . . . . . 0 ..............................9 . . . . . . . . . . . . . . . . . ",
". . . . . . . . . . . . . . . . . 0 ..........................9 . . . . . . . . . . . . . . . . . . "
};
