/* XPM */
static const char *ZW5lbXky[] = {
/* columns rows colors chars-per-pixel */
"50 50 213 2 ",
"   c #000003",
".  c #01000E",
"X  c #0A040B",
"o  c #090909",
"O  c #10060E",
"+  c #15130D",
"@  c #0D0315",
"#  c #060916",
"$  c #0C051B",
"%  c #14051C",
"&  c #160A19",
"*  c #06171C",
"=  c #14131F",
"-  c #2D1A12",
";  c #190A24",
":  c #0C1B24",
">  c #1D1029",
",  c #260929",
"<  c #25112B",
"1  c #390B35",
"2  c #221333",
"3  c #241338",
"4  c #29143C",
"5  c #3A1030",
"6  c #0A2529",
"7  c #122B35",
"8  c #27263C",
"9  c #3F3E3F",
"0  c #4E3B07",
"q  c #400B38",
"w  c #44153D",
"e  c #443B22",
"r  c #6C5E20",
"t  c #2D1743",
"y  c #341949",
"u  c #3A1C53",
"i  c #143C49",
"p  c #362355",
"a  c #2F3453",
"s  c #3D3469",
"d  c #3D3C72",
"f  c #4A0E41",
"g  c #590F49",
"h  c #55154C",
"j  c #5B134D",
"k  c #51184A",
"l  c #401E5B",
"z  c #4E1C5B",
"x  c #661A57",
"c  c #432F51",
"v  c #43215D",
"b  c #58285B",
"n  c #692057",
"m  c #771D64",
"M  c #4B2768",
"N  c #5B2165",
"B  c #59276A",
"V  c #473A61",
"C  c #532875",
"Z  c #542A79",
"A  c #493A7B",
"S  c #58387C",
"D  c #642168",
"F  c #7B2269",
"G  c #642A7D",
"H  c #782A74",
"J  c #104148",
"K  c #134752",
"L  c #134953",
"P  c #1A4B58",
"I  c #15535E",
"U  c #294E51",
"Y  c #23495A",
"T  c #1C4F60",
"R  c #195965",
"E  c #294162",
"W  c #3B4877",
"Q  c #285472",
"!  c #19626E",
"~  c #1B6371",
"^  c #1A6976",
"/  c #1C6E7C",
"(  c #1C717F",
")  c #2A636D",
"_  c #266D7A",
"`  c #347B76",
"'  c #634940",
"]  c #555B69",
"[  c #646467",
"{  c #717173",
"}  c gray50",
"|  c #A37A0C",
" . c #A67034",
".. c #84216E",
"X. c #872471",
"o. c #882779",
"O. c #8C2A7A",
"+. c #93277A",
"@. c #94297C",
"#. c #992A7F",
"$. c #996475",
"%. c #C18E11",
"&. c #C29912",
"*. c #D59E3B",
"=. c #B58B40",
"-. c #A29853",
";. c #C69742",
":. c #F2CF69",
">. c #5C2F83",
",. c #4E3D81",
"<. c #5B3284",
"1. c #6D2F87",
"2. c #7C2C84",
"3. c #702F88",
"4. c #62328C",
"5. c #69308A",
"6. c #773A87",
"7. c #6A3592",
"8. c #6A3A96",
"9. c #6E3C9A",
"0. c #773898",
"q. c #733EA2",
"w. c #7E3EA1",
"e. c #1E7786",
"r. c #27758C",
"t. c #227D8C",
"y. c #297E94",
"u. c #347993",
"i. c #564992",
"p. c #75469B",
"a. c #7641A4",
"s. c #7948A9",
"d. c #7E46B1",
"f. c #7F48B1",
"g. c #892D84",
"h. c #912E87",
"j. c #9B2B82",
"k. c #93338C",
"l. c #853897",
"z. c #9B3693",
"x. c #923999",
"c. c #A32F89",
"v. c #A2318A",
"b. c #A6378B",
"n. c #A63796",
"m. c #AC3491",
"M. c #B03795",
"N. c #B53C9A",
"B. c #BE3FA2",
"V. c #8D4A90",
"C. c #AF4794",
"Z. c #95708D",
"A. c #BA629D",
"S. c #8748AB",
"D. c #904EAE",
"F. c #8558AA",
"G. c #8349B6",
"H. c #844BB9",
"J. c #884FBE",
"K. c #8B54B9",
"L. c #9555BC",
"P. c #A443A0",
"I. c #BF40A4",
"U. c #9663BE",
"Y. c #B973AA",
"T. c #C756A9",
"R. c #CB54AD",
"E. c #C568A6",
"W. c #D367B3",
"Q. c #DB73B9",
"!. c #8B4FC1",
"~. c #955EC4",
"^. c #9A65C4",
"/. c #9F69CC",
"(. c #A068CF",
"). c #AA74D5",
"_. c #AD79D5",
"`. c #20808F",
"'. c #3A8588",
"]. c #228293",
"[. c #298A9A",
"{. c #338A9D",
"}. c #398DA7",
"|. c #2C93A3",
" X c #3C95A5",
".X c #3398A8",
"XX c #3B9AAA",
"oX c #379FB0",
"OX c #38A2B4",
"+X c #40919F",
"@X c #429EAD",
"#X c #4AA5B3",
"$X c #41ACBE",
"%X c #47ADC1",
"&X c #4BB7C9",
"*X c #53BACC",
"=X c #4FBDD0",
"-X c #59B5D2",
";X c #51BFD1",
":X c #64BBCB",
">X c #61BFD0",
",X c #5AC4D6",
"<X c #67C8D9",
"1X c #74CBDB",
"2X c #7FD0DE",
"3X c #7CD2E1",
"4X c #AF99C0",
"5X c #B480DB",
"6X c #95D2DD",
"7X c #8CD7E4",
"8X c #96D9E6",
"9X c #9ADCE8",
"0X c #A2DFEA",
/* pixels */
". . . . . . . . . . . . . . . . . . . . . . . . . . . . . . . . . . . . . . . . . . . . . . . . . . ",
". . . . . . . . . . . . . . . . . . . . . . . . . . . . . . . . . . . . . . . . . . . . . . . . . . ",
". . . . . . . . . . . . . . . . . . . . . . . . . . . . . . . . . . . . . . . . . . . . . . . . . . ",
". . . . . . . . . . . . . . . . . . . . . . . . . . . . . . . . . . . . . . . . . . . . . . . . . . ",
". . . . . . . . . . . . . . . . . . . . . . . . 1 1 . . . . . . . . . . . . . . . . . . . . . . . . ",
". . . . . . . . . . . . . . . . . . . . . . . 1 O.F , . . . . . . . . . . . . . . . . . . . . . . . ",
". . . . . . . . . . . . . . . . . . . . . . . h m.@.1 . . . . . . . . . . . . . . . . . . . . . . . ",
". . . . . . . . . . . . . . . . . . . . . . . h m.@.1 . . . . . . . . . . . . . . . . . . . . . . . ",
". . . . . . . . . . . . . . . . . . . . . . . h m.@.1 . . . . . . . . . . . . . . . . . . . . . . . ",
". . . . . . . . . . . . . . . . . . . . . . , m m.j.j ; . . . . . . . . . . . . . . . . . . . . . . ",
". . . . . . . . . . . . . . . . . . . . . . x +.m.m.m q . . . . . . . . . . . . . . . . . . . . . . ",
". . . . . . . $ $ . . . . . . . . . . . . , F j.m.m.X.h % . . . . . . . . . . . . $ $ . . . . . . . ",
". . . . . . . 3 4 $ . . . . * . . . . . $ F n.k.z.z.g.F h $ . . . . . * . . . . $ 4 3 . . . . . . . ",
". . . . . . . 3 M t % % # 6 i . . . ; % u k.l.8.8.8.8.3.H u $ % . . . i : . @ % t M 3 . . . . . . . ",
". . . . . . . 4 C Z N x 7 t.T # % % X.M <.7.d.!.!.!.!.d.7.>.v j @ @ # P L : f z Z C 3 . . . . . . . ",
". . . . . . . h 2.Z N +.6.XX6XY O.+.O.u.i.s.H.J.!.!.J.H.s.S Y X.x j Y &XR b ..N Z D 1 . . . . . . . ",
". . . . . . . h 2.4.Z N 6.XX0X6XL O.y.[.i.E K i.!.!.i.K E A K Y O.L 6X,XR H N Z 4.D 1 . . . . . . . ",
". . . . . . h b.x.q.9.N 6.|.<X9X=XP ].&X|.R / ~ A A ~ / K R e.K P 8X,X|.I H N Z 4.2.m 1 . . . . . . ",
". . . . . . j m.x.q.S 7 }.=X&X) 9X*X[.&X|.R  X.X~ ~ .X XK R e.P ].|.R ].I P : v 4.2.m 1 . . . . . . ",
". . . . . h v.B.x.q.a.p 7 .X-Xs.) |.&X7X,X[.$X;X.X.X;XXXR t.].e.I I ,.y.t.6 p >.4.2.+.m 1 . . . . . ",
". t y x m v.R.R.x.S.L.G b ! }.J.A ].=X8X8X@X%X,X=X=X%Xt.R |.%X].K A 4.y.! b G a.9.2.v.v.m f f y t . ",
". u Z 1.3.h.b.N.x.F.U.M 8 e.].W E ].=X8X0X>XOX%X$X$XXX~ [.&X&X].K E E t.e.8 M d.q.2.j.j.o.G G Z u . ",
". D o.5.a.S.0.h.x.~./.8.p J `.L e.$XoX<X8X7X#X|.|.|.t._ *X3X&X~  Xe.L `.J p 8.~.K.l.g.0.S.a.5.H k . ",
". X.m.z.w.~.^.D.L.).^.<.> o i / ! ;X:X2X9X0X#X( e.e.~ +X7X9X1X X;X! / i o > <.^.).L.D.K.H.0.g.v.g . ",
". X.T.R.P.D./.).).).p.2 & w 2 J K XX1X3X9X0X:X_ ^ ^ _ :X0X9X1X,XoXK J 2 w & 2 p.).).(.K.0.g.M.M.g . ",
". X.W.W.P.w.^.).).F.t . , o.D w K K ) XX1X3X<X{.^ ^ {.<X3X1XXX) K K w D o., . t F.).~.s.5.g.M.M.g . ",
". X.T.N.0.K.(.p.F.S   . & n C.C.S 6 0 U _ XX$X[.Q Q [.$XXX_ P 0 : V v.@.x % .   S s.8.G.9.3.j.v.g . ",
". X.m.g.S.^.p.4 p c   . . & V.Q.R.a %.r + ] ` R d d R '.` o 0 %.a v.M.x O . .   y t 4 9.G.0.g.X.g . ",
"; X.O.0.^.s.3 . .   . . . @ k W.T.v  .:.e | r U ,.,.U -.-.- &. .v I.c.5 X . . .   . . 3 p.G.0.o.x ; ",
"l o.5.G.a.2 . . . . . . . & j.T.b.y >.;.' =.*.$.H.H.$.*.=.' ;.>.y I.N.F & . . . . . . . 2 a.G.5.o.l ",
"l o.7.H.2 . . . . . . . . . & A.Q.< M C 8.f./._.5X5X_.(.G.8.C M & N.F O . . . . . . . . . 2 H.7.o.l ",
"l >.H.f.< . . . . . . . . . . O E.I.< X X v 9.^._._.^.9.v X X & #...X . . . . . . . . . . < f.H.>.l ",
"l 4.H.> . . . . . . . . . . . . X +.W.B >.< o u q.q.u o < >.z #.N.X . . . . . . . . . . . . > H.4.l ",
"l H.!.> . . . . . . . . . . . @ +.Q.Q.B s.k.Z.9     9 Z.k.8.& +.+.+.@ . . . . . . . . . . . > !.H.l ",
"l H.> . . . . . . . . . . . .   X O O _ s a.4XY.T.T.Y.4Xa.s ^ X X X   . . . . . . . . . . . . > H.l ",
"l H.& . . . . . . . . . . . . . . .   @X{.d M p.L.L.p.M s T (   . . . . . . . . . . . . . . . & H.l ",
"l > . . . . . . . . . . . . . . . . . :  X%X{.W M M W r.r.~ * . . . . . . . . . . . . . . . . . > l ",
"l X . . . . . . . . . . . . . . . . . . 6 7 6 T i i T 6 6 * . . . . . . . . . . . . . . . . . . X l ",
"l X . . . . . . . . . . . . . . . . . . . .   * * * *   . . . . . . . . . . . . . . . . . . . . X l ",
"; . . . . . . . . . . . . . . . . . . . . . . . . . . . . . . . . . . . . . . . . . . . . . . . . ; ",
"  . . . . . . . . . . . . . . . . . . . . . . . . . . . . . . . . . . . . . . . . . . . . . . . .   ",
"  . . . . . . . . . . . . . . . . . . . . . . . . . . . . . . . . . . . . . . . . . . . . . . . .   ",
"  . . . . . . . . . . . . . . . . . . . . . . . . . . . . . . . . . . . . . . . . . . . . . . . .   ",
". . . . . . . . . . . . . . . . . . . . . . . . . . . . . . . . . . . . . . . . . . . . . . . . . . ",
". . . . . . . . . . . . . . . . . . . . . . . . . . . . . . . . . . . . . . . . . . . . . . . . . . ",
". . . . . . . . . . . . . . . . . . . . . . . . . . . . . . . . . . . . . . . . . . . . . . . . . . ",
". . . . . . . . . . . . . . . . . . . . . . . . . . . . . . . . . . . . . . . . . . . . . . . . . . ",
". . . . . . . . . . . . . . . . . . . . = = = = = = = = : = . . . . . . . . . . . . . . . . . . . . ",
". . . . . . . . . . . . . . . . . . # # [ } } } } } } } } [ # # . . . . . . . . . . . . . . . . . . ",
". . . . . . . . . . . . . . . . . . { } } } } } } } $.$.} } } { . . . . . . . . . . . . . . . . . . "
};
