/* XPM */
static const char *ZW5lbXkz[] = {
/* columns rows colors chars-per-pixel */
"50 50 211 2 ",
"   c #000004",
".  c #01000E",
"X  c #0B040E",
"o  c #030A0D",
"O  c #181301",
"+  c #0B0413",
"@  c #0B041A",
"#  c #090A18",
"$  c #150718",
"%  c #05121B",
"&  c #14131F",
"*  c #232015",
"=  c #190C24",
"-  c #1A0A28",
";  c #0B1B27",
":  c #191A2C",
">  c #290925",
",  c #2E082C",
"<  c #201026",
"1  c #20102E",
"2  c #3A0C37",
"3  c #291436",
"4  c #251239",
"5  c #3A153D",
"6  c #0B242A",
"7  c #0A262A",
"8  c #10232B",
"9  c #092331",
"0  c #152B3A",
"q  c #17373C",
"w  c #272D2B",
"e  c #433610",
"r  c #420C3C",
"t  c #480C3E",
"y  c #44123A",
"u  c #7B5E09",
"i  c #4C4020",
"p  c #636730",
"a  c #2D1544",
"s  c #2C1842",
"d  c #3E1746",
"f  c #351C4C",
"g  c #3A1D52",
"h  c #3D1F59",
"j  c #0F3D4A",
"k  c #123E49",
"l  c #3E2357",
"z  c #392A52",
"x  c #3B285B",
"c  c #3A3A6D",
"v  c #4B1742",
"b  c #55174A",
"n  c #481A54",
"m  c #411F5D",
"M  c #5A1850",
"N  c #621C55",
"B  c #671A5A",
"V  c #6D1B5D",
"C  c #721E5F",
"Z  c #592B4B",
"A  c #452358",
"S  c #6B395B",
"D  c #7C1D67",
"F  c #452364",
"G  c #492966",
"H  c #4C266D",
"J  c #57276A",
"K  c #552974",
"L  c #552B7A",
"P  c #4C3B72",
"I  c #65256D",
"U  c #78256A",
"Y  c #69326D",
"T  c #682A7C",
"R  c #752A75",
"E  c #703271",
"W  c #174148",
"Q  c #144752",
"!  c #194656",
"~  c #124953",
"^  c #1D485D",
"/  c #16525D",
"(  c #22435A",
")  c #175964",
"_  c #1D5E6A",
"`  c #274C66",
"'  c #354672",
"]  c #1A626E",
"[  c #1A6976",
"{  c #1D6E7B",
"}  c #1D717F",
"|  c #246773",
" . c #306F7B",
".. c #3F717D",
"X. c #564D54",
"o. c #41725F",
"O. c #5E5E62",
"+. c #514172",
"@. c #6D4864",
"#. c #42717F",
"$. c #69696B",
"%. c gray50",
"&. c #80236D",
"*. c #8B2677",
"=. c #94297C",
"-. c #8E5A50",
";. c #A77859",
":. c #8D4A77",
">. c #A87968",
",. c #4A837E",
"<. c #75896E",
"1. c #AD8610",
"2. c #A4912E",
"3. c #C28C12",
"4. c #CEA31A",
"5. c #A18B4E",
"6. c #BCA141",
"7. c #C68F6A",
"8. c #EDC654",
"9. c #5B2E82",
"0. c #5D3688",
"q. c #6F2E86",
"w. c #712E87",
"e. c #7B2C84",
"r. c #61328C",
"t. c #67358C",
"y. c #7A328D",
"u. c #693A95",
"i. c #6F3C9C",
"p. c #743C9C",
"a. c #733FA1",
"s. c #1F7B8A",
"d. c #237987",
"f. c #287E94",
"g. c #307C95",
"h. c #4C518E",
"j. c #684485",
"k. c #71508A",
"l. c #67479C",
"z. c #7B4A93",
"x. c #7640A6",
"c. c #7B44AD",
"v. c #794BA9",
"b. c #7E50A4",
"n. c #7E4BB3",
"m. c #8B2D85",
"M. c #9D2D84",
"N. c #82338E",
"B. c #90338F",
"V. c #873896",
"C. c #933898",
"Z. c #A02F87",
"A. c #A3338A",
"S. c #AD3592",
"D. c #AB3795",
"F. c #B33C98",
"G. c #853EA3",
"H. c #903EA2",
"J. c #BF3FA4",
"K. c #8E4495",
"L. c #A9598F",
"P. c #B7479A",
"I. c #9E7998",
"U. c #A86A9A",
"Y. c #8445A9",
"T. c #9B48A7",
"R. c #8659AB",
"E. c #8349B6",
"W. c #884CB9",
"Q. c #8E59BA",
"!. c #985DB9",
"~. c #9663BE",
"^. c #C657AA",
"/. c #D05FB1",
"(. c #D76FB6",
"). c #D872BB",
"_. c #8B4FC1",
"`. c #945EC1",
"'. c #975DC9",
"]. c #9B66C6",
"[. c #A169CF",
"{. c #AA74D5",
"}. c #AD78D7",
"|. c #20808F",
" X c #218393",
".X c #2D8798",
"XX c #258B9B",
"oX c #2D95A5",
"OX c #3997A7",
"+X c #349DAD",
"@X c #3BA6B7",
"#X c #449AA9",
"$X c #48A9B9",
"%X c #43AFC1",
"&X c #4CB6C8",
"*X c #52BCCD",
"=X c #4FBDD0",
"-X c #59B1D0",
";X c #52BED1",
":X c #55C3D6",
">X c #5DC4D5",
",X c #67C8D9",
"<X c #B381AC",
"1X c #B08DC0",
"2X c #B480DB",
"3X c #8BCCD8",
"4X c #8ACDD9",
"5X c #89D5E2",
"6X c #94DAE7",
"7X c #9CDCE7",
"8X c #A2DFEA",
/* pixels */
". . . . . . . . . . . . . . . . . . . . . . . . . . . . . . . . . . . . . . . . . . . . . . . . . . ",
". . . . . . . . . . . . . . . . . . . . . . . . . . . . . . . . . . . . . . . . . . . . . . . . . . ",
". . . . . . . . . . . . . . . . . . . . . . . . , , . . . . . . . . . . . . . . . . . . . . . . . . ",
". . . . . . . . . . . . . . . . . . . . . . . , V V , . . . . . . . . . . . . . . . . . . . . . . . ",
". . . . . . . . . . . . . . . . . . . . . . v D M.M.V , . . . . . . . . . . . . . . . . . . . . . . ",
". . . . . . . . . . . . . . . . . . . . . . N =.S.S.D r . . . . . . . . . . . . . . . . . . . . . . ",
". . . . . . . . . . . . . . . . . . . . . y =.M.S.S.*.B , . . . . . . . . . . . . . . . . . . . . . ",
". . . . . . . . . . . . . . . . . . . . - *.C.N.N.N.e.R B - . . . . . . . . . . . . . . . . . . . . ",
". . . . . . . . . . . . . # ; . . . . - F N.G.x.x.x.x.p.T F - . . . . ; # . . . . . . . . . . . . . ",
". . . . . . . . . . . . % j k . . . 2 n 9.i.E._._._._.E.i.9.g > . . . k 9 # . . . . . . . . . . . . ",
". . . . . . . . . . . . 9 .X..; 2 2 *.+.0.n._._._._._._.E.9.x V > > ; | / % . . . . . . . . . . . . ",
". . . . . . . . . . . . 9 OX3X#.Y =.j.g.h.l.l.n._._.n.l.l.L ( Y V A ..*X_ % . . . . . . . . . . . . ",
". . . . . . . @ @ . + $ 0 OX6X6X| E f.oXh.` / h.v.v.h./ ( P ) ! E  .5X*X_ : $ + . @ @ . . . . . . . ",
". . . . . . . 4 4 + = v P +X>X3X,X|  X&XoX) d.{ ' ' { d.Q ) s.~ ) 3X$XXX/ A v = + 4 4 . . . . . . . ",
". . . . . . . 4 m a + ; _ ;X&X` 3X*XoX;X+X] OX@X{ { @XOX~ ) d.) d.|.^ f.) W ; + a m 4 . . . . . . . ",
". . . . . . . 4 K L H F 8 XX-XW.!  X=X6X,X+X%X:X@X@X:XOX) XXXX XQ ! 0.f. X8 F H L K 4 . . . . . . . ",
". . . . . . . b e.L H w.E / .XW.r. X=X6X8X$X%X:X:X:X$X} ) oX&X XQ r.r.f./ E w.H L I 2 . . . . . . . ",
". . . . . . . b e.r.r.F 7  X X! Q  X=X6X8X,X+X$X@X@XOX_ oX:X&X XQ Q Q d. X7 F r.r.I 2 . . . . . . . ",
". . . . . . b A.C.a.c.0.F 7 |.~  X&XoX;X6X7X$XXXXXXX}  .,X5X%X) &X X~ |.7 F 0.r.r.e.D 2 . . . . . . ",
". . . . . . M S.C.a.c.H +   7 d./ ;X3X6X7X8X$X[ { { ] #X7X7X5X%X;X/ s.7   + H r.r.e.D 2 . . . . . . ",
". . . . . . M S.C.Y.Q.9.J B s 7 ~ oX,X,X6X8X,Xd.[ [ d.,X8X6X,X;XoX~ 7 s B J 9.r.r.e.D 2 . . . . . . ",
". . . 4 a 5 *.^.T.R.~.H 5 *.U N Q 7 q .X>X,X>XOX] [ OX>X,X>X.Xq 7 Q N U *.5 H a.i.e.M.&.5 a 4 . . . ",
". . . f K L m.P.T.R.b.= + v ^.P.K.0 u w W .X+Xd.' ' d.+X.XW w u 0 Y S.=.y + = t.a.e.M.m.L K f . . . ",
". . . = m b.!.!.W.`.k.  . $ S )./.x 3.5.* p o./ c c / ,.<.O u 3.x S.A.y + .   j.Q.Y.H.Y.u.m = . . . ",
". . . . n z.].[.[.{.k.  . $ U ^.P.A -.8.i 1.2.X.0.0.X.2.6.e 4.-.A P.S.M + .   k.{.[.'.E.t.d . . . . ",
". . . . V B.G.].2X2Xk.  . $ U ^.P.3 9.;.@.>.7.U.`.`.U.7.>.@.;.9.3 J.S.M +     k.}.{.Q.p.R t . . . . ",
". . . . V F.V.Q.}.{.R.3 . . $ :.).b g g H i.`.}.2X2X}.`.i.H g g y S.M X .   3 R.{.Q.i.y.=.t . . . . ",
". . . . V P.V.Q.R.j.j.l   . . X :.D.Z < 1 f K b.].].b.K g 1 = y Z.N X . .   l j.j.0.u.H.A.t . . . . ",
". . . . V ^.K.Q.+.        . . . > A.(.J r.d w z L L z w d 0.d =.S.> . . .         g x.T.A.t . . . . ",
". . . . V F.V.Q.P   . . . . . + C L.L.A u.m.I.X.> > X.I.V.0.: C C C + . . . . .   G c.N.M.t . . . . ",
". . . . V D.V.c.G   . . . . .         % f R <XU.F.F.U.1Xx.c }         . . . . .   G c.y.U t . . . . ",
". . . . B q.c.E.l   . . . . . . . .   d.' l.T.^.).).^.T.i.c }   . . . . . . . .   l E.c.T t . . . . ",
". . . . a L c.l   . . . . . . . . .   #XoX' x u.W.W.u.x x ) [   . . . . . . . . .   l c.L a . . . . ",
". . . . a L c.l . . . . . . . . . . .   #X:X+X' m m '  X X[   . . . . . . . . . .   l c.L a . . . . ",
". . . . a p._.l   . . . . . . . . . . . o o o / k k / o o o . . . . . . . . . . .   l _.p.a . . . . ",
". . . . a p.A + . . . . . . . . . . . . . .   o o o o   . . . . . . . . . . . . . . + A a.a . . . . ",
". . . . a a.f . . . . . . . . . . . . . . . . . . . . . . . . . . . . . . . . . . . . f a.a . . . . ",
". . . . @ h 1 . . . . . . . . . . . . . . . . . . . . . . . . . . . . . . . . . . . . 1 h @ . . . . ",
". . . . . a = . . . . . . . . . . . . . . . . . . . . . . . . . . . . . . . . . . . . = a . . . . . ",
". . . . . a = . . . . . . . . . . . . . . . . . . . . . . . . . . . . . . . . . . . . = a . . . . . ",
". . . . . a = . . . . . . . . . . . . . . . . . . . . . . . . . . . . . . . . . . . . = a . . . . . ",
". . . . . = + . . . . . . . . . . . . . . . . . . . . . . . . . . . . . . . . . . . . + = . . . . . ",
". . . . . .   . . . . . . . . . . . . . . . . . . . . . . . . . . . . . . . . . . . .   . . . . . . ",
". . . . . . . . . . . . . . . . . . . . . . . . . . . . . . . . . . . . . . . . . . . . . . . . . . ",
". . . . . . . . . . . . . . . . . . . . . . . . . . . . . . . . . . . . . . . . . . . . . . . . . . ",
". . . . . . . . . . . . . . . . . . . . . . . . . . . . . . . . . . . . . . . . . . . . . . . . . . ",
". . . . . . . . . . . . . . . . . . . . . . . . . . . . . . . . . . . . . . . . . . . . . . . . . . ",
". . . . . . . . . . . . . . . . . . . . . # & & & & & & # . . . . . . . . . . . . . . . . . . . . . ",
". . . . . . . . . . . . . . . . . . . # # O.%.%.%.%.%.%.O.# # . . . . . . . . . . . . . . . . . . . ",
". . . . . . . . . . . . . . . . . . . $.%.%.%.%.%.%.%.%.%.%.$.. . . . . . . . . . . . . . . . . . . "
};
