/* XPM */
static char *ce89ee499b614e55aa58496f46b8c4fd4bqjzUREs9WIoOPr[] = {
/* columns rows colors chars-per-pixel */
"50 50 219 2 ",
"   c #000000",
".  c #090303",
"X  c #04040B",
"o  c #09080C",
"O  c #19110D",
"+  c #0C0D13",
"@  c #090A16",
"#  c #0E1217",
"$  c #0F101B",
"%  c #161618",
"&  c #12121D",
"*  c #19161E",
"=  c #21180F",
"-  c #281D17",
";  c #2C1C14",
":  c #251E1A",
">  c #311F1A",
",  c #2F2116",
"<  c #2C241C",
"1  c #33231A",
"2  c #39291E",
"3  c #190B24",
"4  c #0F1626",
"5  c #07142B",
"6  c #0E192B",
"7  c #141524",
"8  c #1A1625",
"9  c #151925",
"0  c #1A1924",
"q  c #161729",
"w  c #1A152B",
"e  c #15192A",
"r  c #1A1A2A",
"t  c #051C35",
"y  c #0B1833",
"u  c #031D3C",
"i  c #141632",
"p  c #131B32",
"a  c #191835",
"s  c #220B2A",
"d  c #210E30",
"f  c #211C32",
"g  c #271F3D",
"h  c #18232C",
"j  c #142038",
"k  c #282325",
"l  c #3B2B22",
"z  c #332B28",
"x  c #3B332A",
"c  c #242832",
"v  c #33223B",
"b  c #34283D",
"n  c #423127",
"m  c #45352B",
"M  c #48372F",
"N  c #4D3A2D",
"B  c #533C2C",
"V  c #463934",
"C  c #4D3C33",
"Z  c #4C3D39",
"A  c #513D34",
"S  c #593C32",
"D  c #51402C",
"F  c #4D4036",
"G  c #444039",
"H  c #49413A",
"J  c #52423A",
"K  c #56453B",
"L  c #002446",
"P  c #0A2945",
"I  c #062849",
"U  c #1D3048",
"Y  c #072E50",
"T  c #222B41",
"R  c #302340",
"E  c #333847",
"W  c #303652",
"Q  c #453946",
"!  c #502F51",
"~  c #423251",
"^  c #3C4247",
"/  c #2F4F5F",
"(  c #384B5A",
")  c #3B515F",
"_  c #1C4A74",
"`  c #1C5479",
"'  c #264563",
"]  c #2B5A75",
"[  c #325679",
"{  c #39607D",
"}  c #494341",
"|  c #5D4B42",
" . c #504D4C",
".. c #4D565A",
"X. c #64544B",
"o. c #695A4C",
"O. c #645C55",
"+. c #6D5D52",
"@. c #6B5E5B",
"#. c #715F56",
"$. c #68615A",
"%. c #756559",
"&. c #74645A",
"*. c #79665C",
"=. c #504966",
"-. c #4B5761",
";. c #535E63",
":. c #64456B",
">. c #6B506F",
",. c #5B6A74",
"<. c #6C6460",
"1. c #746C63",
"2. c #7B6C62",
"3. c #7F7165",
"4. c #7C746C",
"5. c #75657C",
"6. c #867567",
"7. c #85766C",
"8. c #88766D",
"9. c #86786D",
"0. c #89796F",
"q. c #847672",
"w. c #857971",
"e. c #8B7A72",
"r. c #8E8176",
"t. c #958175",
"y. c #95857B",
"u. c #9A867C",
"i. c #97897E",
"p. c #9A8A7D",
"a. c #1B5885",
"s. c #2D5281",
"d. c #345F84",
"f. c #1A6F9E",
"g. c #356285",
"h. c #1C6DA0",
"j. c #1C73A6",
"k. c #1D71A9",
"l. c #1A75B1",
"z. c #2171A7",
"x. c #2274AC",
"c. c #775C84",
"v. c #7E5D83",
"b. c #7B5892",
"n. c #536F84",
"m. c #5C758A",
"M. c #796188",
"N. c #7C6688",
"B. c #696590",
"V. c #7D6499",
"C. c #6D63A2",
"Z. c #8B5786",
"A. c #825B85",
"S. c #8B5887",
"D. c #8B568B",
"F. c #8F538C",
"G. c #835C89",
"H. c #8A5A8B",
"J. c #895990",
"K. c #82618B",
"L. c #8962A0",
"P. c #3D89B8",
"I. c #588BAC",
"U. c #4B85B1",
"Y. c #528CB0",
"T. c #5F94B7",
"R. c #6E8EB9",
"E. c #2F8AC2",
"W. c #338DC6",
"Q. c #3591CA",
"!. c #4B8FC0",
"~. c #5D95C1",
"^. c #5498C1",
"/. c #589FD8",
"(. c #6B84C5",
"). c #6497C2",
"_. c #59A7DA",
"`. c #7EA4CB",
"'. c #64ADDF",
"]. c #70A1D6",
"[. c #6ABBE8",
"{. c #7FBAE6",
"}. c #7CBDEB",
"|. c #6FBFFE",
" X c #72BFF5",
".X c #7ABDF6",
"XX c #6DC6EF",
"oX c #7AC3E7",
"OX c #73C3ED",
"+X c #6CC4F5",
"@X c #69C8F2",
"#X c #65C5FE",
"$X c #6BC5FD",
"%X c #66C9FF",
"&X c #6BC9FC",
"*X c #73C3F4",
"=X c #7AC2F5",
"-X c #72C3FC",
";X c #7BC4FB",
":X c #72C9FD",
">X c #79C9F8",
",X c #958A83",
"<X c #9A8C82",
"1X c #9C9185",
"2X c #B3A399",
"3X c #8783B4",
"4X c #929BCA",
"5X c #8DADD0",
"6X c #8BB8D6",
"7X c #85BBE7",
"8X c #94B6E8",
"9X c #8ABDF6",
"0X c #88C1EC",
"qX c #8CCAF6",
"wX c #98D9FE",
"eX c #9DE8FF",
"rX c #ABE7FF",
"tX c #ACE8FF",
"yX c #B2E4FE",
/* pixels */
"                                                                                                    ",
"                                                                                                    ",
"                                                                                                    ",
"                                            e e e e e                                               ",
"                                        0 i.p.p.i.y.p.p.p..                                         ",
"                                          , 1 1 1 1 1 1 1 w.r                                       ",
"                                  0   <Xp.8.C A *XrX;.C X.C i.k X                                   ",
"                      r . #   $ . i.3.+.+.8.C ) +X$XE.C 8.e.8.e.<X- * & 7     $                     ",
"                    7 9.x $.<.<Xi.9.3.+.2.C 0.Z j.j.` C &.+.8.&.e.7.u.1.@.C 8.+                     ",
"                  8 7.C C +.p.7.9.2X9.8.8.+.7.Z > k N 8.X.8.8.e.8.+.#.8.7.Z C 8.X                   ",
"                & w.O.C C 2 8.7.7.J M +.*.C *.y.y.t.t.7.C *.*.6.8.+.&.p.n Z B A w.*                 ",
"              8 4.C N +XrX,.0.i.7.6.C Z . 9 * .     .   0   . M 9.9.8.7.M @XeX^ C 8.  7             ",
"            @ 4.| C / +X$XQ.1 9.0.Z   7 q q q q q q q q q q q o } Z <X0.] #X$Xh.A A 7.X             ",
"              7.e.2.Q k.z.g.C C - r 7 q q q q q H.H.H.H.:.3 q q q % 7.n ^ x.z.` A 7.3.X             ",
"              r = 8.e.- k C Z e.0 q q w q q 9 q q q q v.3X;X*XH.r 9 w.C A - : ,X8.| q               ",
"              $ p.C C 0.y.J 0.X e q q e Y 5 q q q q q q q 7 6 -X&XI q 4.A y.7.7.1 &..               ",
"              . r.7.&.C 1 w.q q r M.e &Xq q q i p {.{.}.q 9 9 8 :X$X}.q X.1 C 4.+.2.i.7             ",
"            7 p.8.8.8.8.F 7 q q N.p =Xr 9 8 t XXOXOX}.>X$X-X7 q e ;X-X}.9 . K 8.8.8.,Xo             ",
"            X C 6.8.8.F o e q f ! *XT i q I.[ g ~ ~ ~ i b { *Xq q 8 .X$XU r C F &.C w.Z             ",
"            < > 7.7.8.Z q q q H.6X*Xw q v.q i q e =X*X;Xw G.C.' q q t +X*Xq X e.8.9.<Xp.&           ",
"        8 . y.2X7.7.&.. q e H.c.-X5 w q q e e (.9X0X9X0X+XL w 4Xy q q 0X$Xi 9 C 8.8.8.e.:           ",
"      e 8.; 0.8.i.7.C 9 q :.H.w #Xp 8 q q r @Xs 7X9 6 d $X-Xr e 7X8 q e $XF.w H 8.<X7.7.l 7.X       ",
"      e 8.C M ; 8.9.0.* q S.v.P $Xp r q e M.a Z.a e S.[.] XX=Xq V.w q q &X&Xw i.8.8.2 1 C 8.X       ",
"        8.C S n. .z C . w D.q P $XW q e w %XH.* ~ 7 ^.7 /.4 9Xj q A.q q ).@X7 9.l S n.,.C 8.X       ",
"        w.C *XyX$XZ |   w H.8 P -XH.Y.q e $XT [ 7X>XF.$X$Xq *XG.i 8Xf q ~.*X9 8.A =XtX&X-.w.X       ",
"        9.C f.:XP.Q |   w H.9 q -XH.Y.e e #Xv &XB.v V.D.%Xq 4 :.p 7Xs q ~.*X9 8.A x.:X+X( 9.X       ",
"      e 8.C E Q.a.D | . w H.q q {.`.i ~.>.;XT.L.*X%X' M.$Xw q R T.F.H.q [.*X9 8.Z ^ Q.P.N 6.X       ",
"      e 7.C C C y.7.6.  i S.q q e %Xe 0X0Xw =Xe e q a =Xt r q w oXH.H.i #X}.q 6.8.<XC C A 8.X       ",
"      e 8.X.y.8.X.2 n 7 U.D.q q q U.s.7 ].R.e T q w c [ '.9 q 9 q H.:.t #Xp 8 H l X.e.7.+.7.X       ",
"          w.; C 8.8.e.  e R.H.r q e #Xy 3 }.-X}.=X=X>X=Xq q q q q S.3 -X_ q 7 <X6.8.M C *.w.0       ",
"        & 9 Z 8.0.8.0.. q :.H.3 q q =..Xu 5.b.}. XOX' 9 q y a q r Z.y =Xe q 0 y.8.8.8.C & &         ",
"            % K 6.7.&.<XX 9 S.D.7 q q G.>.@Xe 0 9 9 q 9 _._ q r G.b  Xr q q 1.e.n 8.9.V +           ",
"            X C 8.8.9.8.,Xe G.J.K.q q q J.H.G.d.*X*X] A.q q q w A.L i q q   y.+.0.2Xy.:             ",
"              Z 6.8.8.9.<X. 7 B.+XG.i q 9 5.H.S.H.H.R e q q r v.L 5Xq q + 1X7.+.8.8.Z o             ",
"              0 N 7.2.9.8.+.w.9 B.$X}.e e e q 9 q q q q q 3 v.q q q 9   e.8.7.i.0.+.. 0             ",
"              X x <X7., C C q.1.q 5 +X$X+Xu t q q q q q E w q q q q X 6.C A ; 9.8.&.0               ",
"              O.9.m N OXwX;.A y.. r q ' ' &X|.%X$X).9 q q q q q q 9 9.C Z =XwX} m X.O.@             ",
"              9.Z C ) #X-XW.C 7.F . 7 q q 9 p q 9 q 6 q q q q q X 1Xe.<Xg.$X*Xl.C C 8.X             ",
"              X 7.C ..l.k.P.y.2.6.i.p.o 7 9 w 9 9 9 7 7 q 7 0 1.i.9.1 8.m.x.z.!.C #.4.&             ",
"                + e.N h h 6.8.J 8.8.8.9.y.,XZ e.8.8.8.e.,X<Xu.3.8.8.6.1 t.h h N 7.G $               ",
"                  X 9.C C e.> 8.+.8.8.8.8.+.8.C C C Z 8.| 8.8.7.+.+.8.J 8.J C 8.e.7                 ",
"                    * 8.Z r.C +.w.o.*.8.8.C 8.N *XqX..C &.8.8.9.+.+.+.C @.i.+.H 9                   ",
"                        q.z 7   V m +.8.8.e.C / $X*XW.C e.8.8.7.8.C . 9 X 7.4.r                     ",
"                        &       7 X m C 8.8.C -.k.j.P.C 6.6.A C m X 9                               ",
"                                      & O K C C E U N C J 2.& @                                     ",
"                                          8.8.e.8.8.6.e.0.q.+                                       ",
"                                          X X X X X X X X 0                                         ",
"                                                                                                    ",
"                                                                                                    ",
"                                                                                                    "
};
