/* XPM */
static char *f15aaff1a09d4e5bda76751934a4c64e6z9udHP5ePddAl7i[] = {
/* columns rows colors chars-per-pixel */
"50 50 51 1 ",
"  c #01000E",
". c #04001F",
"X c #080032",
"o c #0B0040",
"O c #0E004F",
"+ c #0E0053",
"@ c #100060",
"# c #110066",
"$ c #180087",
"% c #1B009B",
"& c #313098",
"* c #2000B2",
"= c #2C15BA",
"- c #413698",
"; c #2B1CC3",
": c #2E23C3",
"> c #392EC3",
", c #3C53F1",
"< c #5D72DC",
"1 c #4161FB",
"2 c #4A70F4",
"3 c #4A73FD",
"4 c #4C77FE",
"5 c #4D79FE",
"6 c #5182FF",
"7 c #5489FF",
"8 c #5D88FC",
"9 c #5A93FF",
"0 c #5B96FF",
"q c #5F94FF",
"w c #5D9BFF",
"e c #749BEA",
"r c #749CEB",
"t c #678CFC",
"y c #7391FC",
"u c #61A2FF",
"i c #72B3FF",
"p c #8280DC",
"a c #81A0EA",
"s c #A0BCFE",
"d c #84C1FF",
"f c #83C4FF",
"g c #8AC7FF",
"h c #87C8FF",
"j c #92D3FF",
"k c #99D6FF",
"l c #B1DFFF",
"z c #BCDDFF",
"x c #B6E2FF",
"c c #D0E5FF",
"v c #D5EEFF",
/* pixels */
"                                                  ",
"                                                  ",
"                                                  ",
"                                                  ",
"                                                  ",
"                                                  ",
"                                                  ",
"                                                  ",
"                                                  ",
"                                                  ",
"                                                  ",
"                                                  ",
"                        X*                        ",
"                        >q*                       ",
"                        :7*                       ",
"                       *h7u*                      ",
"                      $rh7urO                     ",
"                      *jh7uj#                     ",
"                     #jjz7uj<                     ",
"                     &jjz7uje+                    ",
"                     <jvz7uvj*                    ",
"                    *jjvc7uvxj*                   ",
"                   .=jkvz7uvxj=.                  ",
"                   *ifvvz7uvxii%                  ",
"                  %669uuz7uuu662o                 ",
"                  %11366wwu6611,o                 ",
"                   *jsy85548tvj%                  ",
"                   .=vvj00gjlv=.                  ",
"                    *vvjwwjjlv*                   ",
"                     pvjwwjjl*                    ",
"                     -vjwwjja+                    ",
"                     #vjwwjj<                     ",
"                      *jwwjj#                     ",
"                      $rwwjrO                     ",
"                       *wwj*                      ",
"                        ;w*                       ",
"                        ;d*                       ",
"                        .@                        ",
"                                                  ",
"                                                  ",
"                                                  ",
"                                                  ",
"                                                  ",
"                                                  ",
"                                                  ",
"                                                  ",
"                                                  ",
"                                                  ",
"                                                  ",
"                                                  "
};
