/* XPM */
static const char *bGVmdDI_[] = {
/* columns rows colors chars-per-pixel */
"50 50 217 2 ",
"   c #020103",
".  c #0C0606",
"X  c #0E0805",
"o  c #01000E",
"O  c #0B050C",
"+  c #0D0B0A",
"@  c #110903",
"#  c #12060B",
"$  c #1B070D",
"%  c #140B0B",
"&  c #1B0B0E",
"*  c #19110A",
"=  c #1B120D",
"-  c #0D0610",
";  c #110710",
":  c #140912",
">  c #1C0C12",
",  c #181618",
"<  c #22070F",
"1  c #240F0C",
"2  c #271508",
"3  c #311202",
"4  c #230D14",
"5  c #2B0D16",
"6  c #2F0E18",
"7  c #300B16",
"8  c #330E19",
"9  c #3B0E1B",
"0  c #241113",
"q  c #2A1413",
"w  c #211B1B",
"e  c #2A1818",
"r  c #351718",
"t  c #34131C",
"y  c #392804",
"u  c #25231F",
"i  c #2E221E",
"p  c #392417",
"a  c #3A3218",
"s  c #191C22",
"d  c #371922",
"f  c #3E1C26",
"g  c #1D2229",
"h  c #252626",
"j  c #292728",
"k  c #2C2B2B",
"l  c #352A25",
"z  c #3B2B23",
"x  c #3F3127",
"c  c #373639",
"v  c #57190B",
"b  c #410F1D",
"n  c #44101E",
"m  c #421A1E",
"M  c #47240F",
"N  c #462716",
"B  c #5A3518",
"V  c #79360C",
"C  c #69391C",
"Z  c #763A1B",
"A  c #431622",
"S  c #4A1121",
"D  c #421C27",
"F  c #4C1927",
"G  c #431E29",
"H  c #541C2B",
"J  c #6C0524",
"K  c #47202B",
"L  c #4B212D",
"P  c #53212F",
"I  c #48362A",
"U  c #573629",
"Y  c #542632",
"T  c #5C2534",
"R  c #5D2837",
"E  c #5E2B39",
"W  c #483C34",
"Q  c #573530",
"!  c #533C33",
"~  c #5C3C32",
"^  c #623A2A",
"/  c #632331",
"(  c #612B3A",
")  c #632C3B",
"_  c #632D3C",
"`  c #652E3D",
"'  c #603C30",
"]  c #69303F",
"[  c #5F440A",
"{  c #6E4D0A",
"}  c #6F4318",
"|  c #7C5D19",
" . c #46423F",
".. c #564133",
"X. c #784622",
"o. c #684B38",
"O. c #72493A",
"+. c #79543D",
"@. c #383840",
"#. c #6C3240",
"$. c #733543",
"%. c #7A3946",
"&. c #7F3B48",
"*. c #3E4249",
"=. c #48484A",
"-. c #574F49",
";. c #5A514A",
":. c #474853",
">. c #545455",
",. c #5A5A5B",
"<. c #634D41",
"1. c #784E42",
"2. c #67574B",
"3. c #785847",
"4. c #685B57",
"5. c #7C684B",
"6. c #656464",
"7. c #6B6B6A",
"8. c #756B63",
"9. c #7F7668",
"0. c #757575",
"q. c gray47",
"w. c #931D03",
"e. c #853B0D",
"r. c #8C3D0C",
"t. c #9C480B",
"y. c #8C4414",
"u. c #924818",
"i. c #8C5C18",
"p. c #995712",
"a. c #A34C0A",
"s. c #AC5015",
"d. c #A25C1C",
"f. c #8D680D",
"g. c #B06F0C",
"h. c #834A2F",
"j. c #984D21",
"k. c #9C562C",
"l. c #894A31",
"z. c #905635",
"x. c #A95C31",
"c. c #917138",
"v. c #BF7A2E",
"b. c #A86339",
"n. c #B76839",
"m. c #C76C09",
"M. c #D4720A",
"N. c #D37A18",
"B. c #D75B3C",
"V. c #803542",
"C. c #89414D",
"Z. c #8A5743",
"A. c #984954",
"S. c #A24E58",
"D. c #AB535D",
"F. c #86654E",
"G. c #97624B",
"H. c #886958",
"J. c #95755C",
"K. c #A76749",
"L. c #BA714F",
"P. c #B55761",
"I. c #8F7C6F",
"U. c #9A7964",
"Y. c #A97A67",
"T. c #C37245",
"R. c #CC7D52",
"E. c #D67350",
"W. c #D36771",
"Q. c #B28912",
"!. c #A0853D",
"~. c #E0811B",
"^. c #F4B00D",
"/. c #948776",
"(. c #AC836C",
"). c #B68C71",
"_. c #A9937D",
"`. c #D48B56",
"'. c #CCA453",
"]. c #D38F6C",
"[. c #DA8A69",
"{. c #CE9676",
"}. c #E18F6B",
"|. c #E79876",
" X c #EBA27F",
".X c #ECB579",
"XX c #F4C042",
"oX c #7F7F80",
"OX c #858585",
"+X c #8D888E",
"@X c #979899",
"#X c #A69687",
"$X c #B0A190",
"%X c #B0B0BA",
"&X c #C29E83",
"*X c #CFA98C",
"=X c #EBA785",
"-X c #F0AC89",
";X c #ECB592",
":X c #F3B995",
">X c #F4B999",
",X c #F6BB99",
"<X c #CDB2A0",
"1X c #C6B7AB",
"2X c #DDC68C",
"3X c #ECC296",
"4X c #F7C4A5",
"5X c #FACBAD",
"6X c #EEC7B0",
"7X c #FACDB1",
"8X c #FAD4BC",
"9X c #C8C8C7",
"0X c #F8D9C4",
"qX c #FBDAC4",
"wX c #FBDCC8",
"eX c #F6E9DB",
"rX c #F0EFEF",
/* pixels */
"o o o o o o o o o o o o o o o o o o o o o o o o o o o o o o o o o o o o o o o o o o o o o o o o o o ",
"o o o o o o o o o o o o o o o o o o o o o ; > > > > ; o o o o o o o o o o o o o o o o o o o o o o o ",
"o o o o o o o o o o o o o o o o o o o o o o : D %.%.f ; o o o o o o o o o o o o o o o o o o o o o o ",
"o o o o o o o o o o o o o o o o o o o o o o o > Y #.K > ; o o o o o o o o o o o o o o o o o o o o o ",
"o o o o o o o o o o o o o o o o o o o o o - : 6 H _ P 9 8 : ; o o o o o o o o o o o o o o o o o o o ",
"o o o o o o o o o o o o o o o o o o ; ; ; f L F H _ L 5 4 e G ; ; ; o o o o o o o o o o o o o o o o ",
"o o o o o o o o o o o o o o o o ; ; G K K R _ R H F f K K L E K K 9 : ; o o o o o o o o o o o o o o ",
"o o o o o o o o o o o o o o o : G G ( _ _ _ _ _ H A Y _ _ _ _ _ ` V.K t : o o o o o o o o o o o o o ",
"o o o o o o o o o o o o o o : G _ _ _ _ _ _ _ _ R R _ _ _ _ _ _ ` C.C.T 9 : o o o o o o o o o o o o ",
"o o o o o o o o o o o o o : D _ _ _ _ _ _ _ _ _ R L L R _ _ _ _ _ _ D.C.T 9 : o o o o o o o o o o o ",
"o o o o o o o o o o o o : f _ _ _ _ _ _ _ _ _ _ T A 8 A R _ _ _ ` &.D.A.#.F 9 > o o o o o o o o o o ",
"o o o o o o o o o o o : f _ _ _ _ _ _ _ _ _ R T T H 9 8 A L Y %.` A.A.] _ H S 9 : - o o o o o o o o ",
"o o o o o o o o o o - t _ _ _ _ _ _ _ _ _ _ H S S S S 9 4 > D A._ R _ _ _ R F n 9 > O o o o o o o o ",
"o o o o o o o o o o : f _ _ _ _ _ _ $.$.( ( _ H n S b 9 5 4 _ _ ) F R R ) H S b 9 $ o o o o o o o o ",
"o o o o o o o o o - d ` ] _ _ ` #.$.D.D./ T ( H S S 5   $ F ( _ _ _ S S T ( H $   o o o o o o o o o ",
"o o o o o o o o o - d %.A._ ( ] D.W.W.P.$.H S S S S 9 > 5 S F ( _ ( S S S S S 6 ; o o o o o o o o o ",
"o o o o o o o o o - d %.A.R F _ ` D.D.D.$.H T _ H S S 9 5 S S S ( S S S S S S S 8 - o o o o o o o o ",
"o o o o o o o o o - d %.A.R S S _ ` ` S.$.F S T ) H S S 9 5 S S S S S R ) F S S 8 - o o o o o o o o ",
"o o o o o o o o o - d ` ] Y 4 S _ _ F ` ` ( H S T H 9 8 S 9 # S n S n S R ( H S n 6 O o o o o o o o ",
"o o o o o o o o o - d ` _ R 9 4 F ) S F R _ d 9 S S 9 % # 4 > 5 S R S S F F S S S 8 ; o o o o o o o ",
"o o o o o o o o o o : f _ ) Y 4 S t 5 n R _ d 9 S S n 8 & > > > 5 F T S S S S 9 9 n 5 O o o o o o o ",
"o o o o o o o o o o - 6 H ) R > 5 > h.r A R d 4 9 S S 9 > r Z Z C 5 F S S S S 5 4 & .     o o o o o ",
"o o o o o o o o o o o : t H R 0 l.C k.r 9 F t > & 7 S n 8 p n.R.b.C 8 n S S S 9 5 O o o o o o o o o ",
"o o o o o o o o o o o - 5 S F e T.j.M % 5 b 5 U l.U 7 S n m +.-X|.j.0 n S S S S 8 - o o o o o o o o ",
"o o o o o o o o o o o o : 9 n e T.T.%   . $ # p K.L.Q 4 < r G.7X:XM 4 n 9 n S S 8 - o o o o o o o o ",
"o o o o o o o o o o o o o : 8 e `.|.=   c :., p K. X).3.3.Z.`.].].  > n 4 6 9 b 8 - o o o o o o o o ",
"o o o o o o o o o o o o o : ^ 1.;X|.= 3 +X%X4.b.|.>X5X7X4X=X[.j.l.O > 9 4 > > 5 5 : O o o o o o o o ",
"o o o o o o o o o o o o ; ^ ].>XqX-Xv w.<X1X{.|.>X8XwXwX8X=XG.h.9 9 > > > > % > > > ; o o o o o o o ",
"o o o o o o o o o o o o r `.4XwXwX5XE.B.6X=X;X5X8XwXwXqX7X{.N > 5 J 9 4 > > O O % & # o o o o o o o ",
"o o o o o o o o o o o o r R.>X8XwXwXwXwXwXwXwXwXwXwXqX7X-X[.b.4 b J J 6 > > -     O O   o o o o o o ",
"o o o o o o o o o o o o e K.].>XqXqXwXwXwXwXwXwXwXqX5X=XR.n.x.q > b b b 4 & O o o o o o o o o o o o ",
"o o o o o o o o o o o o o o = ].:X>XqXqXqXqXqXqXqX4X XT.e.e.e.V 0 q > >       o o o o o o o o o o o ",
"o o o o o o o o o o o o o o o X n.[.:X>X>X>X>X:X=XL.r.Z ~ ~ ~ ~ ~ r.@ > o o o o o o o o o o o o o o ",
"o o o o o o o o o o o o o o o o     n.T.}.|.x.r.r.a.u.3.Y.G.(.Z.Z.~ e.q o o o o o o o o o o o o o o ",
"o o o o o o o o o o o o o o o O e.a.* X @ % V ).`.d.O.Z.3.-.=.c @.Z.' e.& o o o o o o o o o o o o o ",
"o o o o o o o o o o o o o o o o @ a.m.$Xv.m.M.3X.Xd.3.U.4.OXoX6.=.@.! e.& o o o o o o o o o o o o o ",
"o o o o o o o o o o o o o o o o o 2 m.wXXX^.^.2X8.N O.3.,.+XOX0.7.=.j t.V & o o o o o o o o o o o o ",
"o o o o o o o o o o o o o o o o o o 3 c a y y a h z 3.H.*.6.q.7.>.=.g g.t.1 o o o o o o o o o o o o ",
"o o o o o o o o o o o o o o o o o w , v r <.W h k k ! ! s *.>.>.>.9X@XN.t.1 o o o o o o o o o o o o ",
"o o o o o o o o o o o o o o o o w ! h Q e 1...k k j k j , s :.@X%X#XI.z.y.1 o o o o o o o o o o o o ",
"o o o o o o o o o o o o o o o w ! F.{ | [ 3.W h h h h h j k ;./.#XU.U.+.y.1 o o o o o o o o o o o o ",
"o o o o o o o o o o o o o o o , o.J.g.Q.'.!./.@XOXq.7.,.-.W 3.U._.<X2.z V 1 o o o o o o o o o o o o ",
"o o o o o o o o o o o o o o o   z F.[ f.c.Q.2X9X@XOXq.6.5.| I 2.9.9.l + V 1 o o o o o o o o o o o o ",
"o o o o o o o o o o o o o o o o   z   2 2 g.'.5.W I x I i.f.+ e * x o.w V 1 o o o o o o o o o o o o ",
"o o o o o o o o o o o o o o o o o   y i.p.p.{ } C B N B j.X.p I z H...B e.1 o o o o o o o o o o o o ",
"o o o o o o o o o o o o o o o o o o { Q.g.y s U C N M B X.} N , i ..>.N.t.1 o o o o o o o o o o o o ",
"o o o o o o o o o o o o o o o o o o     u l 7.=.+   = C } * %   h c rX`.u.0 o o o o o o o o o o o o ",
"o o o o o o o o o o o o o o o o o o O . #XJ.;.-. .w = l I o.I + 2.9X1X9X8., o o o o o o o o o o o o ",
"o o o o o o o o o o o o o o o o o o i x o.J.3._.*X<.i o...e   X u.rX~.eXb.1 o o o o o o o o o o o o ",
"o o o o o o o o o o o o o o o o o o i (.&X(.z     = l l l e   O y.9Xs.1Xk.1 o o o o o o o o o o o o "
};
