/* XPM */
static const char *bGVmdDM_[] = {
/* columns rows colors chars-per-pixel */
"50 50 225 2 ",
"   c #020103",
".  c #0B0504",
"X  c #0C0806",
"o  c #01000E",
"O  c #0B040C",
"+  c #0C0B0B",
"@  c #13060B",
"#  c #140A0D",
"$  c #180808",
"%  c #190B0D",
"&  c #1A1408",
"*  c #0D0610",
"=  c #0D0811",
"-  c #100710",
";  c #140911",
":  c #1C0D12",
">  c #1B1313",
",  c #15141A",
"<  c #220B09",
"1  c #340B01",
"2  c #28160A",
"3  c #381B0E",
"4  c #240D14",
"5  c #2B0E16",
"6  c #2F0E18",
"7  c #320B16",
"8  c #330E19",
"9  c #3B0F1B",
"0  c #241413",
"q  c #2C1412",
"w  c #241B16",
"e  c #291318",
"r  c #351617",
"t  c #34131B",
"y  c #341C1A",
"u  c #3E310A",
"i  c #2C221B",
"p  c #362417",
"a  c #3B251C",
"s  c #191D25",
"d  c #351721",
"f  c #391721",
"g  c #3D1B25",
"h  c #222222",
"j  c #292827",
"k  c #2A2A2B",
"l  c #382925",
"z  c #3D2C24",
"x  c #323332",
"c  c #3B3532",
"v  c #3B3A3C",
"b  c #4B1A0B",
"n  c #591405",
"m  c #440F1E",
"M  c #45101F",
"N  c #48230E",
"B  c #552E0C",
"V  c #442714",
"C  c #573818",
"Z  c #602A0C",
"A  c #77340D",
"S  c #68371B",
"D  c #783E18",
"F  c #510C20",
"G  c #4A1121",
"H  c #431A26",
"J  c #441F29",
"K  c #531B2B",
"L  c #571C2B",
"P  c #690524",
"I  c #700324",
"U  c #46242B",
"Y  c #49202C",
"T  c #56202F",
"R  c #463328",
"E  c #54362B",
"W  c #532532",
"Q  c #5C2534",
"!  c #5C2937",
"~  c #5E2938",
"^  c #483D36",
"/  c #563B32",
"(  c #5D3D33",
")  c #663D2B",
"_  c #733D22",
"`  c #622C3B",
"'  c #632D3C",
"]  c #662F3D",
"[  c #6B2E3C",
"{  c #69303F",
"}  c #654805",
"|  c #6B4E0A",
" . c #514237",
".. c #7A4523",
"X. c #634938",
"o. c #794C3B",
"O. c #6A503E",
"+. c #74523D",
"@. c #7B6020",
"#. c #383B42",
"$. c #6D3340",
"%. c #713442",
"&. c #763745",
"*. c #7C3945",
"=. c #3F4144",
"-. c #474545",
";. c #4F4A4D",
":. c #574C49",
">. c #585858",
",. c #6B4F44",
"<. c #7D4E41",
"1. c #69534A",
"2. c #775545",
"3. c #6A5A5A",
"4. c #7F665D",
"5. c #686768",
"6. c #7C6F64",
"7. c #767778",
"8. c #991E03",
"9. c #803709",
"0. c #863B0D",
"q. c #8D3D0B",
"w. c #94410A",
"e. c #98440A",
"r. c #93481A",
"t. c #995918",
"y. c #AC520B",
"u. c #B95A0A",
"i. c #A55214",
"p. c #B35D12",
"a. c #93680C",
"s. c #A86208",
"d. c #B6621D",
"f. c #82462A",
"g. c #99532B",
"h. c #845032",
"j. c #885138",
"k. c #A74F27",
"l. c #AA5E32",
"z. c #B06430",
"x. c #C8680B",
"c. c #DD770A",
"v. c #D07515",
"b. c #E27C0B",
"n. c #E17F12",
"m. c #D75B3C",
"M. c #833E4B",
"N. c #89414D",
"B. c #8D5B44",
"V. c #934652",
"C. c #974854",
"Z. c #AA515C",
"A. c #AD545E",
"S. c #88674F",
"D. c #9A6248",
"F. c #886854",
"G. c #9C6B56",
"H. c #937258",
"J. c #B96D40",
"K. c #A56A53",
"L. c #AC6F54",
"P. c #B25660",
"I. c #897262",
"U. c #917660",
"Y. c #9E7A60",
"T. c #A37765",
"R. c #A27D70",
"E. c #CD6B47",
"W. c #CD7C53",
"Q. c #D46871",
"!. c #AE8409",
"~. c #CA9507",
"^. c #E08017",
"/. c #EBA90D",
"(. c #E38A2A",
"). c #EBB026",
"_. c #BD8455",
"`. c #9D8773",
"'. c #BA866B",
"]. c #A68974",
"[. c #AA957F",
"{. c #D59152",
"}. c #E9A75E",
"|. c #CA8A69",
" X c #D98865",
".X c #D5966F",
"XX c #E08A6B",
"oX c #E89978",
"OX c #CDAA7D",
"+X c #D2A370",
"@X c #E4A47F",
"#X c #888685",
"$X c #948F92",
"%X c #A99A8E",
"&X c #B99C83",
"*X c #AEA295",
"=X c #B6A495",
"-X c #9C9AB2",
";X c #A6A7B1",
":X c #BEBBBA",
">X c #D5A983",
",X c #E9A784",
"<X c #F1AC8B",
"1X c #E5B08D",
"2X c #F0AF93",
"3X c #EEB997",
"4X c #F5B592",
"5X c #F4BA96",
"6X c #F5BE9D",
"7X c #C8B5AA",
"8X c #C5BCB3",
"9X c #F6BFA1",
"0X c #F9C19D",
"qX c #C6C1BB",
"wX c #D3C4B3",
"eX c #F9C8A7",
"rX c #F9CAAD",
"tX c #F0D0B9",
"yX c #FAD5BD",
"uX c #C6C5C3",
"iX c #FAD6C0",
"pX c #FBD9C3",
"aX c #FBDCC8",
"sX c #EAE7E5",
"dX c #F8F1EC",
/* pixels */
"o o o o o o o o o o o o o o o o o o o o o o o o o o o o o o o o o o o o o o o o o o o o o o o o o o ",
"o o o o o o o o o o o o o o o o o o o o ; : : * o o o o o o o o o o o o o o o o o o o o o o o o o o ",
"o o o o o o o o o o o o o o o o o o o ; : &.$.d O o o o o o o o o o o o o o o o o o o o o o o o o o ",
"o o o o o o o o o o o o o o o o o o o o : ! { ! d ; ; * o o o o o o o o o o o o o o o o o o o o o o ",
"o o o o o o o o o o o o o o o o o o o o o e W ' g 5 9 6 ; - o o o o o o o o o o o o o o o o o o o o ",
"o o o o o o o o o o o o o o o o o - - - - g K Q W g 5 4 e g - - - o o o o o o o o o o o o o o o o o ",
"o o o o o o o o o o o o o o o - - J Y Y Y ! Q L H H Y Y W ~ Y J 8 - - o o o o o o o o o o o o o o o ",
"o o o o o o o o o o o o o o ; J J ` ' ' ' ' ' K H W ' ' ' ' ' ] *.J t ; o o o o o o o o o o o o o o ",
"o o o o o o o o o o o o o : J ' ' ' ' ' ' ' ' Q Q ' ' ] ' ' ' ] N.N.Q t ; * o o o o o o o o o o o o ",
"o o o o o o o o o o o o : J ' ' ' ' ' ' ' ' ' Q Q Y J J J Y ' ' { A.M.Q H t : - - = o o o o o o o o ",
"o o o o o o o o o o o : J ' ' ' ' ' ' ' ' ' ' Q G 9 5 4 % f ' ] M.A.V.{ Q G 9 0 > = o o o o o o o o ",
"o o o o o o o o o o : J ' ' ' ' ' ' ' ' ' Q Q Q K G M 4 # Q &.{ C.C.] ' G G G % o o o o o o o o o o ",
"o o o o o o o o o * f ' ' ' ' ' ' ' ' ' ' L G G G m 5 # 5 [ V.` Q ' ' ' K G 9 @ o o o o o o o o o o ",
"o o o o o o o o o ; g ' ' ' ' ' ' %.%.` ` ' L G M 4 . 4 G G ~ ` G Q Q Q Q G % o o o o o o o o o o o ",
"o o o o o o o o * g ' ' ' ' ] $.%.P.A.L Q ` ` K 8 4 5 M M G G ` ` G G G G G 6 - o o o o o o o o o o ",
"o o o o o o o o * g ] ] ' ` $.A.Q.Q.P.%.K G G G G 8 4 4 5 m m G ` G G G G G G 5 O o o o o o o o o o ",
"o o o o o o o o * g *.C.Q G ' { A.A.A.%.' K Q L G G G G 9 # . G G G ` ' ' K G 5 * o o o o o o o o o ",
"o o o o o o o o * g *.C.Q G G ' ] G Z.%.' K Q ` L 8 8 9 # @ m G G G G ` ' ` K G 5 * o o o o o o o o ",
"o o o o o o o o * g ] { W 5 G G G G ] ] ] K G Q L 8 # . @ m G G G G G G ~ ' K G M 6 X   o o o o o o ",
"o o o o o o o o * g ' ' Q 9 5 G G G G ~ ' d 9 G G m 8 % 4 G G G G ~ G G G G G G G 4   o o o o o o o ",
"o o o o o o o o o : U ' ` W 9 4 4 4 M G ~ t 4 9 G G M 8 4 4 4 5 G G Q G G G 8 4 % O o o o o o o o o ",
"o o o o o o o o o * t L ' Q M : : j.r M K e : % 7 G G M 8 : q S 5 G K G G G m 5 O o o o o o o o o o ",
"o o o o o o o o o o ; t L ` T 9 : g.% 4 5 8 4 V 3 7 G 9 % : y l.S 5 M G G G G 5 * o o o o o o o o o ",
"o o o o o o o o o o o ; t g K M : 3 . B S q @ 2 ) E % q S h.K..Xr.: M G G G G 5 ; O o o o o o o o o ",
"o o o o o o o o o o o o e ) 8 8 :     3 N $ E o.L.T.F.B.l. XoX1XN : 8 8 8 8 M 9 8 4 O o o o o o o o ",
"o o o o o o o o o o o o y J.<.<.<.    #.;., G.<X<X4X0X@XW.XXE.|.  : 8 4 : : 5 8 8 5 @ o o o o o o o ",
"o o o o o o o o o o o o y W.oXoXoXX 1 $X;X1.'.eXrXrXrX9X,X Xk.f.X : 8 8 4 : : : # @ O o o o o o o o ",
"o o o o o o o o o o o ; )  X2X2X,Xb 8.7X7X.X3XyXaXaXaXyX,XD.f.F : : : M 4 # # # .   o o o o o o o o ",
"o o o o o o o o o o o a W.2XaXaXeXE.m.tX>X3XyXaXaXaXpXrX'.4 8 P 7 : : 9 4 X     o o o o o o o o o o ",
"o o o o o o o o o o o a {.6XyXaXaXaXaXaXaXaXaXaXpXyXrX,XK.4 m P I 7 5 : : % O o o o o o o o o o o o ",
"o o o o o o o o o o o y J.|.6XiXaXaXaXaXaXaXpXyX6X,XoXW.g.q 4 m P P m : %     o o o o o o o o o o o ",
"o o o o o o o o o o o o o w .X5XyXpXpXpXpXiX6XoXz.0.0.0.0.A q q 9 : : .   o o o o o o o o o o o o o ",
"o o o o o o o o o o o o o o % J.oX5X5X5X5XoXl.q._ ( ( ( ( ..y.A .   : o o o o o o o o o o o o o o o ",
"o o o o o o o o o o o o o o o . q.q.q.q.q.q.y...F.T.G.T.G.T.) y.9.o : o o o o o o o o o o o o o o o ",
"o o o o o o o o o o o o o o @ 0.#X:Xn.c.c.u...o.B.2.;.;.1.B.j.) 0.o o o o o o o o o o o o o o o o o ",
"o o o o o o o o o o o o o o o > :X-Xd.u.u.R.3.F.4.5.#X7.5.:.( ) y.A O o o o o o o o o o o o o o o o ",
"o o o o o o o o o o o o o o o o k sX)./.OX{.h.<.1.5.#X#X5.-.v *Xy.q.O o o o o o o o o o o o o o o o ",
"o o o o o o o o o o o o o o o o o v u u l p R o.:.;.5.7.5.=.#.8Xc.q.O o o o o o o o o o o o o o o o ",
"o o o o o o o o o o o o o o o o o , n r ,.c c l 3.7.>.5.>.x #.8Xc.q.O o o o o o o o o o o o o o o o ",
"o o o o o o o o o o o o o o o o o s ( 0 2.z R 1.I.%X$X>.=.w D _.OXx.Z O o o o o o o o o o o o o o o ",
"o o o o o o o o o o o o o o o o o | @.} V p i F.&X%X*X;X5.< w.d.qXb.w.# o o o o o o o o o o o o o o ",
"o o o o o o o o o o o o o o o o o a.~.} p X.E / `.&X].$X;.2 B i.qXb.w.# o o o o o o o o o o o o o o ",
"o o o o o o o o o o o o o o o o o B a.& z S.F./ / F.2.a p 3 0 r.+X{.p.N O o o o o o o o o o o o o o ",
"o o o o o o o o o o o o o o o o o # 2 2 p O.S.2.i > a V S V 2 w.n.uX^.e.% o o o o o o o o o o o o o ",
"o o o o o o o o o o o o o o o o o C t.t.2 w R z w X 3 f...C $ w.n.>X}.p.b O o o o o o o o o o o o o ",
"o o o o o o o o o o o o o o o o - | !.s.2 X . . h h p ..S V $ D x.b.dX(.z.l = o o o o o o o o o o o ",
"o o o o o o o o o o o o o o o - z + + + h h + , k c k + X # i a q.v.sX{.wX6., o o o o o o o o o o o ",
"o o o o o o o o o o o o o o ; R X.c -. .j X o o , -.>.;.^ :.U.i A :.uX8XsXD.2 o o o o o o o o o o o ",
"o o o o o o o o o o o o o = R H.z l ].Y.w o o o > 6.[.+.U.%X.   O q.dX(.=Xk o o o o o o o o o o o o ",
"o o o o o o o o o o o o o = z +.Y.+.z l X o o o     R Y.Y.H. .  O q.8Xd.< o o o o o o o o o o o o o "
};
