/* XPM */
static const char *bGVmdDE_[] = {
/* columns rows colors chars-per-pixel */
"50 50 214 2 ",
"   c #010103",
".  c #0A0604",
"X  c #0C0907",
"o  c #01000E",
"O  c #0D060C",
"+  c #120607",
"@  c #190C03",
"#  c #13060B",
"$  c #14090C",
"%  c #1C090E",
"&  c #1B140E",
"*  c #0E0610",
"=  c #0A0913",
"-  c #120711",
";  c #150A11",
":  c #1C0C13",
">  c #131314",
",  c #1A1718",
"<  c #230F0C",
"1  c #201803",
"2  c #28170B",
"3  c #331B0C",
"4  c #230D14",
"5  c #2C0D16",
"6  c #2F0E18",
"7  c #300B15",
"8  c #340E19",
"9  c #3C0F1C",
"0  c #231314",
"q  c #261A17",
"w  c #2C1319",
"e  c #2D1C1A",
"r  c #371914",
"t  c #3B1B14",
"y  c #32131B",
"u  c #3B121D",
"i  c #2F231B",
"p  c #392319",
"a  c #1C1E23",
"s  c #3B1822",
"d  c #3C1B25",
"f  c #242425",
"g  c #292728",
"h  c #2C2B2B",
"j  c #342824",
"k  c #2B2F35",
"l  c #2E323A",
"z  c #323232",
"x  c #3B3735",
"c  c #4B110F",
"v  c #420D1C",
"b  c #45101F",
"n  c #681907",
"m  c #4E300B",
"M  c #4B2917",
"N  c #70330D",
"B  c #683617",
"V  c #783B1C",
"C  c #4A1121",
"Z  c #451C27",
"A  c #501827",
"S  c #531B2A",
"D  c #640823",
"F  c #700324",
"G  c #46202C",
"H  c #4B222E",
"J  c #57202F",
"K  c #46342A",
"L  c #553B2C",
"P  c #5C3B2F",
"I  c #4F2430",
"U  c #522532",
"Y  c #5B2434",
"T  c #5E2837",
"R  c #5F2A38",
"E  c #4B3C33",
"W  c #553C33",
"Q  c #643825",
"!  c #723E25",
"~  c #612B3A",
"^  c #622C3B",
"/  c #632D3C",
"(  c #662F3D",
")  c #68303E",
"_  c #5F4302",
"`  c #664804",
"'  c #745409",
"]  c #6D4315",
"[  c #4A403B",
"{  c #5C4638",
"}  c #6A412F",
"|  c #7D4522",
" . c #674739",
".. c #774B37",
"X. c #764B3C",
"o. c #6E503B",
"O. c #6D6333",
"+. c #6D3241",
"@. c #783846",
"#. c #3E4249",
"$. c #444445",
"%. c #4D4743",
"&. c #4D4C4D",
"*. c #564D48",
"=. c #5A524A",
"-. c #4A4B52",
";. c #565758",
":. c #685247",
">. c #735247",
",. c #775945",
"<. c #625C55",
"1. c #766248",
"2. c #78695F",
"3. c #5B5B64",
"4. c #646566",
"5. c #696969",
"6. c #787878",
"7. c #8C3D0B",
"8. c #903E0A",
"9. c #823C13",
"0. c #A12003",
"q. c #894E08",
"w. c #94410A",
"e. c #98440A",
"r. c #81401D",
"t. c #934716",
"y. c #934A1D",
"u. c #AC530E",
"i. c #B4560B",
"p. c #A34F10",
"a. c #A75413",
"s. c #B25C16",
"d. c #976E06",
"f. c #876518",
"g. c #A66A16",
"h. c #864B26",
"j. c #984B26",
"k. c #925230",
"l. c #995A38",
"z. c #B35A33",
"x. c #B86E2F",
"c. c #A6623A",
"v. c #D27B11",
"b. c #E17B0B",
"n. c #833D4A",
"m. c #8C424E",
"M. c #885443",
"N. c #944652",
"B. c #A34E59",
"V. c #AE545E",
"C. c #98624D",
"Z. c #886754",
"A. c #906E56",
"S. c #996957",
"D. c #AF6E4A",
"F. c #B35761",
"G. c #846D63",
"H. c #8B796B",
"J. c #997964",
"K. c #A37B65",
"L. c #B87A61",
"P. c #C87751",
"I. c #DF7356",
"U. c #CF656E",
"Y. c #BC9115",
"T. c #A28536",
"R. c #D88F14",
"E. c #E38318",
"W. c #F3B60E",
"Q. c #F4BD27",
"!. c #9A836D",
"~. c #9C837B",
"^. c #B18871",
"/. c #CA8156",
"(. c #D09150",
"). c #DCBC4C",
"_. c #DA8966",
"`. c #DC916D",
"'. c #C99170",
"]. c #E89979",
"[. c #D2A87B",
"{. c #E7A771",
"}. c #868686",
"|. c #9A959B",
" X c #AD9C85",
".X c #B9A48C",
"XX c #B5A697",
"oX c #9690A7",
"OX c #B0ADB1",
"+X c #B3B3B3",
"@X c #C29E83",
"#X c #CFAE8F",
"$X c #E6AA83",
"%X c #E6AB88",
"&X c #EDAE8C",
"*X c #F3B08D",
"=X c #F2B89A",
"-X c #CEB7A7",
";X c #C3BEBB",
":X c #E9BEA5",
">X c #DBCBA0",
",X c #C6C1BB",
"<X c #F8C5A8",
"1X c #FACFB5",
"2X c #F8CEB7",
"3X c #F2D2BC",
"4X c #FBD5BD",
"5X c #D0CECB",
"6X c gray82",
"7X c #FBD8C2",
"8X c #FBDCC8",
"9X c #F3E6D8",
"0X c #EEEDED",
"qX c #FAF9F8",
/* pixels */
"o o o o o o o o o o o o o o o o o o o o ; I N.n.d * o o o o o o o o o o o o o o o o o o o o o o o o ",
"o o o o o o o o o o o o o o o o o o o o o : U ( d : : ; o o o o o o o o o o o o o o o o o o o o o o ",
"o o o o o o o o o o o o o o o o o o o o ; 8 C Y d 6 b 8 ; ; o o o o o o o o o o o o o o o o o o o o ",
"o o o o o o o o o o o o o o o o o ; ; ; G Y A Y T d 4 4 w G ; ; ; o o o o o o o o o o o o o o o o o ",
"o o o o o o o o o o o o o o o ; ; H U U R / T S s d U U U R U H 9 ; ; o o o o o o o o o o o o o o o ",
"o o o o o o o o o o o o o o : H H ^ / / / / / S A U / / / / / ) n.H u ; o o o o o o o o o o o o o o ",
"o o o o o o o o o o o o o : G / / / / / / / / Y T / / / / / / ( n.N.Y u ; o o o o o o o o o o o o o ",
"o o o o o o o o o o o o : G / / / / / / / / / Y Z d H / / / / / ( V.m.Y u ; - o o o o o o o o o o o ",
"o o o o o o o o o o o : G / / / / / / / / ( / Y Z 8 u Z Z G / ( m.V.m.) Y u 8 : * * O o o o o o o o ",
"o o o o o o o o o o : G / / / / / / / / / Y Y Y A C 9 4 : H @.) m.m.( / Y C C 9 : $ * o o o o o o o ",
"o o o o o o o o o * s / / / / / / / / / / Y C C C 9 5 4 y +.m.^ Y / / / C C 8 5 # o o o o o o o o o ",
"o o o o o o o o o : Z / / / / / / @.@.~ ~ / J C C 5 . % C Y / ~ A Y Y ^ S C %   o o o o o o o o o o ",
"o o o o o o o o * d / / / / ( @.n.F.V.~ Y Y Y A C 9 4 6 C C Y / ^ C C Y Y C 8 - o o o o o o o o o o ",
"o o o o o o o o * d ) +.^ R +.B.U.U.F.+.C C C C C C 9 6 b C C Y Y C C C C C C 6 * o o o o o o o o o ",
"o o o o o o o o * d @.N.Y C ~ ) B.B.V.+.A Y ^ S C b b u 5 v v C C C ~ / A C C 8 - o o o o o o o o o ",
"o o o o o o o o * d @.N.Y b C ~ / ~ B.+./ A Y ^ S 8 6 v 7   + C C C R / / A C C 8 * o o o o o o o o ",
"o o o o o o o o * d / / U 4 C C ^ C ~ ^ / A C Y S 8 #     + C C C C C R / / A C 8 - o o o o o o o o ",
"o o o o o o o o * d / / Y v 4 C C C C T / y 9 C C C 8 : : : 4 C ^ ^ C C C C C C C 8 * o o o o o o o ",
"o o o o o o o o o ; d / ^ U 4 b 4 4 b C Y y 9 C C C 8 : : : : 4 w / ~ C C C 6 4 +       o o o o o o ",
"o o o o o o o o o * w S / Y 9 4 : l.y b C 5 4 9 C C b 8 t r.r.V : C C C C C b 5 O o o o o o o o o o ",
"o o o o o o o o o o - y S Y b 0 V j.@ 4 v b 5 $ 5 C C C u t M z.V 5 b C C C C 6 * o o o o o o o o o ",
"o o o o o o o o o o o - y C b 0 y.3   B t v 6  .P # # # + e L.].y.: b 6 b C C 6 * o o o o o o o o o ",
"o o o o o o o o o o o o - 8 b w P..   2 + # + p X.C.C.k.! D.].%X3 : b 4 5 6 v 6 ; * o o o o o o o o ",
"o o o o o o o o o o o o 0 ! 6 w ].X   -.3., P A.'.*X*X]./._.z./.  : b 4 : : 5 8 5 * o o o o o o o o ",
"o o o o o o o o o o o o e D.M.C.].X c |.OX,.'.<X1X1X1X<X$X_.j.Q + : b 8 4 : : 5 4 ; O o o o o o o o ",
"o o o o o o o o o o o : .._.=X=X&Xn 0.-X#X`.=X4X8X8X8X4X$XM.Q 4 v : 8 8 4 # O O O O . o o o o o o o ",
"o o o o o o o o o o o p /.*X8X8X1XI.I.3X%X=X4X8X8X8X7X<X^.4 8 v F v : 6 4 o           o o o o o o o ",
"o o o o o o o o o o o p /.=X4X8X8X8X8X8X8X8X8X8X8X7X<X$XC.4 9 D D D 4 8 4 * o o o o o o o o o o o o ",
"o o o o o o o o o o o e l.L.=X4X8X8X8X8X8X8X8X7X1X&X_.P.j.r : 4 9 9 : $ $ $ o o o o o o o o o o o o ",
"o o o o o o o o o o o o o 0 L.&X2X4X4X4X4X1X:X%X`.c.9.9.9.N w t r $ :         o o o o o o o o o o o ",
"o o o o o o o o o o o o o o @ c._.$X$X$X$X`.z.w.7.!  . . . .} p.7.@ : o o o o o o o o o o o o o o o ",
"o o o o o o o o o o o o o o o @ 8.y.e.w.w.t.a.u.h.X.S.J.C.K.M.} u.7.4 o o o o o o o o o o o o o o o ",
"o o o o o o o o o o o o o o $ 7.i.;XE.b.b.#XD.| X.S.G.&.&.=.M.M.P 7.$ o o o o o o o o o o o o o o o ",
"o o o o o o o o o o o o o o o . i.oXs.i.i.~.D.| X.>.;.6.}.5.%.P P i.7.# o o o o o o o o o o o o o o ",
"o o o o o o o o o o o o o o o o X 0XQ.W.W.#X%.p Z.G.4.}.}.5.$.f P i.8.# o o o o o o o o o o o o o o ",
"o o o o o o o o o o o o o o o o o a 1 1 1 , , K X.:.#.3.6.5.$.k OXi.8.# o o o o o o o o o o o o o o ",
"o o o o o o o o o o o o o o o o o , n t ,.[ z h E j f &.;.-.l k ;Xi.8.$ o o o o o o o o o o o o o o ",
"o o o o o o o o o o o o o o o o o a W & >.E g g h , $.+X6X+X%.| ,Xv.w.# o o o o o o o o o o o o o o ",
"o o o o o o o o o o o o o o o o o ' f.' 1.x f f K L :.H.~.H.o.y.,Xb.w.# o o o o o o o o o o o o o o ",
"o o o o o o o o o o o o o o o o o d.R.).T. XOX|.2.Z.^..X XJ...y.,Xb.w.# o o o o o o o o o o o o o o ",
"o o o o o o o o o o o o o o o o o m ` O.Y.>X+X}.%.K *.<.=.E p y.,Xb.w.# o o o o o o o o o o o o o o ",
"o o o o o o o o o o o o o o o o o o 3 p v.(.1.K i q j W K q @ y.,Xb.w.# o o o o o o o o o o o o o o ",
"o o o o o o o o o o o o o o o o o m g.g.q.` ] B p q L Z.,.i < y.,Xb.w.# o o o o o o o o o o o o o o ",
"o o o o o o o o o o o o o o o o o _ d.q.2 h L M @   & K i X 0 t.[.{.s.c O o o o o o o o o o o o o o ",
"o o o o o o o o o o o o o o o o o     . f 6.$.> > > > > > > % w.E.qXE.e.% o o o o o o o o o o o o o ",
"o o o o o o o o o o o o o o o o o o o > z 5.&.x $.$.x z f > # N x.0X(.c.j = o o o o o o o o o o o o ",
"o o o o o o o o o o o o o o o o o o o > h %.x *.<.%.%.*.x > o = :.6X-X5X2., o o o o o o o o o o o o ",
"o o o o o o o o o o o o o o o o o o o = j J.{ H.!.o.J..XZ.q o # t.qXE.9Xc.< o o o o o o o o o o o o ",
"o o o o o o o o o o o o o o o o o o o e  .o.q X { K. ..     o O 9.+Xa.XXh.< o o o o o o o o o o o o ",
"o o o o o o o o o o o o o o o o o o o e Z.,.K Z.@X@XJ.{ q o o o           o o o o o o o o o o o o o "
};
