/* XPM */
static const char *cmlnaHQz[] = {
/* columns rows colors chars-per-pixel */
"50 50 220 2 ",
"   c #020103",
".  c #0B0405",
"X  c #0C0806",
"o  c #01000E",
"O  c #0B040C",
"+  c #0C0B0B",
"@  c #190907",
"#  c #13060B",
"$  c #140A0D",
"%  c #190B0D",
"&  c #1A1408",
"*  c #0D0610",
"=  c #0D0811",
"-  c #110711",
";  c #140911",
":  c #1C0D12",
">  c #1B1313",
",  c #15141A",
"<  c #24070B",
"1  c #340B01",
"2  c #28160A",
"3  c #381B0E",
"4  c #240D14",
"5  c #2B0E16",
"6  c #2F0E18",
"7  c #320A16",
"8  c #330E19",
"9  c #3B0F1B",
"0  c #241413",
"q  c #271417",
"w  c #241B16",
"e  c #2D1119",
"r  c #351716",
"t  c #35121C",
"y  c #341C1A",
"u  c #3E310A",
"i  c #2C221B",
"p  c #362417",
"a  c #3B251C",
"s  c #191D25",
"d  c #351721",
"f  c #3D1923",
"g  c #222222",
"h  c #292827",
"j  c #2A2A2B",
"k  c #382925",
"l  c #3D2C24",
"z  c #323332",
"x  c #3B3837",
"c  c #4B1A0B",
"v  c #591405",
"b  c #430F1E",
"n  c #45101F",
"m  c #48101F",
"M  c #48230E",
"N  c #552E0C",
"B  c #442714",
"V  c #573818",
"C  c #602A0C",
"Z  c #79350D",
"A  c #68371B",
"S  c #783E18",
"D  c #4A1121",
"F  c #431A26",
"G  c #451F2A",
"H  c #531B2B",
"J  c #571C2B",
"K  c #6C0524",
"L  c #492F25",
"P  c #4A212D",
"I  c #57202F",
"U  c #463328",
"Y  c #55382D",
"T  c #532532",
"R  c #5A2332",
"E  c #5D2636",
"W  c #5D2837",
"Q  c #5E2A38",
"!  c #493C34",
"~  c #563B32",
"^  c #5D3D33",
"/  c #663D29",
"(  c #723D24",
")  c #612A39",
"_  c #622C3B",
"`  c #632D3C",
"'  c #662F3D",
"]  c #6B2E3C",
"[  c #69303F",
"{  c #654805",
"}  c #6B4E0A",
"|  c #514237",
" . c #7A4523",
".. c #634938",
"X. c #794C3B",
"o. c #6A503E",
"O. c #71523D",
"+. c #7B6020",
"@. c #383B42",
"#. c #6D3340",
"$. c #713442",
"%. c #763745",
"&. c #7B3744",
"*. c #3F4144",
"=. c #474545",
"-. c #4F4A4D",
";. c #574C49",
":. c #585858",
">. c #7D4E41",
",. c #69534A",
"<. c #765646",
"1. c #7F665D",
"2. c #686768",
"3. c #7C6F64",
"4. c #767778",
"5. c #991E03",
"6. c #803709",
"7. c #863B0D",
"8. c #8D3D0B",
"9. c #94410A",
"0. c #98440A",
"q. c #93481A",
"w. c #995918",
"e. c #AC520B",
"r. c #B95A0A",
"t. c #A55214",
"y. c #B35D12",
"u. c #93680C",
"i. c #A86208",
"p. c #B6621D",
"a. c #874D25",
"s. c #91532D",
"d. c #87523A",
"f. c #AD5B2E",
"g. c #AA5E32",
"h. c #B06430",
"j. c #C8680B",
"k. c #DD770A",
"l. c #D07515",
"z. c #E27C0B",
"x. c #E17F12",
"c. c #D75B3C",
"v. c #833E4B",
"b. c #88404C",
"n. c #8D5B44",
"m. c #964853",
"M. c #AA515C",
"N. c #AD545E",
"B. c #90664A",
"V. c #876854",
"C. c #9C6955",
"Z. c #937258",
"A. c #A66846",
"S. c #B96D40",
"D. c #A9705B",
"F. c #B25660",
"G. c #897262",
"H. c #917660",
"J. c #9E7A60",
"K. c #A37765",
"L. c #A27D70",
"P. c #D26D47",
"I. c #CD7C53",
"U. c #D46871",
"Y. c #AE8409",
"T. c #CA9507",
"R. c #E08017",
"E. c #EBA90D",
"W. c #E38A2A",
"Q. c #EBB026",
"!. c #BD8455",
"~. c #9D8773",
"^. c #BD886C",
"/. c #A68974",
"(. c #AC8B74",
"). c #D59152",
"_. c #E9A75E",
"`. c #CA8A69",
"'. c #D88A66",
"]. c #D5946B",
"[. c #D09571",
"{. c #E89978",
"}. c #CDAA7D",
"|. c #D2A370",
" X c #E4A47F",
".X c #888685",
"XX c #948F92",
"oX c #A99A8E",
"OX c #B99C83",
"+X c #AEA295",
"@X c #B6A495",
"#X c #9C9AB2",
"$X c #A6A7B1",
"%X c #BEBBBA",
"&X c #CFAC86",
"*X c #DCA683",
"=X c #ECA685",
"-X c #F1AD8C",
";X c #E5B08D",
":X c #F0AF93",
">X c #EBB795",
",X c #F4BA96",
"<X c #F6BB99",
"1X c #C8B5AA",
"2X c #C5BCB3",
"3X c #F6BFA1",
"4X c #F9C19D",
"5X c #C6C1BB",
"6X c #D3C4B3",
"7X c #F9C8A7",
"8X c #F9CAAD",
"9X c #F2CBB3",
"0X c #F0D0B9",
"qX c #FAD5BD",
"wX c #C6C5C3",
"eX c #FAD6C0",
"rX c #FBD9C3",
"tX c #FBDCC8",
"yX c #EAE7E5",
"uX c #F8F1EC",
/* pixels */
"o o o o o o o o o o o o o o o o o o o o o o o o o o o o o o o o o o o o o o o o o o o o o o o o o o ",
"o o o o o o o o o o o o o o o o o o o o o o o o o o * : : ; o o o o o o o o o o o o o o o o o o o o ",
"o o o o o o o o o o o o o o o o o o o o o o o o o O d #.b.P ; o o o o o o o o o o o o o o o o o o o ",
"o o o o o o o o o o o o o o o o o o o o o o * ; ; d W [ Q q o o o o o o o o o o o o o o o o o o o o ",
"o o o o o o o o o o o o o o o o o o o o - ; 6 9 6 f ` T q o o o o o o o o o o o o o o o o o o o o o ",
"o o o o o o o o o o o o o o o o o ; ; ; f e 4 5 f T E f : ; ; ; ; o o o o o o o o o o o o o o o o o ",
"o o o o o o o o o o o o o o o ; ; 8 G P Q T P P F F D n 9 9 9 9 8 ; ; o o o o o o o o o o o o o o o ",
"o o o o o o o o o o o o o o ; t G &.' ` ` ` ` ` T F D I I I I I J 8 8 ; o o o o o o o o o o o o o o ",
"o o o o o o o o o o o o * ; t R b.b.' ` ` ` ` ` ` E R ` ` ` ` ` _ J J t ; o o o o o o o o o o o o o ",
"o o o o o o o o * ; ; : t F R v.N.' ` ` P G G G P R E ` ` ` ` ` ` ` ` J t ; o o o o o o o o o o o o ",
"o o o o o o o o = > 0 t D R [ m.N.v.' ` d % 4 6 9 D R ` ` ` ` ` ` ` ` ` J t ; o o o o o o o o o o o ",
"o o o o o o o o o   % D D D ` ' m.m.[ %.R # 4 n D H R R E ` ` ` ` ` ` ` ` J t ; o o o o o o o o o o ",
"o o o o o o o o o   # 9 D H ` ` ` E _ m.] 5 $ 4 b D D D J ` ` ` ` ` ` ` ` ` H 6 * o o o o o o o o o ",
"o o o o o o o o o o   % D E W E E D ) Q D D < . 4 n D J ` _ ) $.$.` ` ` ` ` J t - o o o o o o o o o ",
"o o o o o o o o o o - 6 D D D D D _ ) D D n n 6 4 8 H ) ) R J N.F.$.#.' ` [ ' H 8 * o o o o o o o o ",
"o o o o o o o o o * 6 m D D D D D ) D b n 5 4 4 8 D D D D H $.F.U.U.N.#.) m.&.H 8 * o o o o o o o o ",
"o o o o o o o o o * 6 D H ` ` ) D D D . $ 9 D D D D J R H ` $.N.N.N.[ ` D m.&.H 8 * o o o o o o o o ",
"o o o o o o o o * 6 D H _ ` ) D D D D b # $ 9 8 8 J _ R H ` $.M.D ' ` D D E ' H 8 * o o o o o o o o ",
"o o o o o o   X 6 n D H ` W D D D D D D b #   $ 8 J R D H ` ' ' D D D D 5 T ` H 8 * o o o o o o o o ",
"o o o o o o o   4 D D D D D D D W D D D m 4 % 8 n D D 9 d ` Q D D D D 5 9 R J D 8 * o o o o o o o o ",
"o o o o o o o o O % 4 8 D D D E D D 5 4 4 4 8 n D D 9 4 t W D n 4 4 4 9 R H D t : o o o o o o o o o ",
"o o o o o o o o   O 5 b D D D H D 5 A q : 8 n D m 7 % : e D n r s.: : n D D D 6 * o o o o o o o o o ",
"o o o o o o o o o * 6 D D D D n 6 A g.y : % 9 D 7 3 B 4 8 6 4 % s.: 9 m D D 8 ; o o o o o o o o o o ",
"o o o o o o o o O ; 6 D D D D n : q.].C.d.A r % Y / 2 # r A N   3 : n D 8 8 ; o o o o o o o o o o o ",
"o o o o o o o O 4 8 9 n 8 8 8 8 : M ;X{.'.g.n.V.^.D.L   @ M 3     : 8 8 / q o o o o o o o o o o o o ",
"o o o o o o   # 5 8 8 6 : : 4 8 :   `.=X{.I. X4X,X-X^.! , -.@.    >.>.>.S.y o o o o o o o o o o o o ",
"o o o o o o   . # $ : : : 4 8 8 : X / ].{.=X3X8X8X8X7X^.,.$XXX1 . {.{.{.I.y o o o o o o o o o o o o ",
"o o o o o o o     . $ $ $ 4 n : : : < ( n.*XqXtXtXtXqX>X[.1X1X5.c =X:X:X'./ ; o o o o o o o o o o o ",
"o o o o o o o o o       X 4 9 : : 7 K <   (.8XrXtXtXtXqX>X*X0Xc.P.7XrXtX-XI.a o o o o o o o o o o o ",
"o o o o o o o o o o o O % : : 4 5 K K b . A.=X8XrXtXtXtXtXtXtXtXtXtXtXeX<X).a o o o o o o o o o o o ",
"o o o o o o o o o o     . % : b b K m r @ a.I.{.>X9XeXtXtXtXtXtXtXtXrX<X`.A.y o o o o o o o o o o o ",
"o o o o o o o o o o o o       : : 9 y 6.8.7.7.7.7.h.=X0XeXrXrXrXrXqX,X].w   o o o o o o o o o o o o ",
"o o o o o o o o o o o o o o o :     6.e. .^ ^ ^ ^ ( 8.f.{.,X,X,X,X{.S.%   o o o o o o o o o o o o o ",
"o o o o o o o o o o o o o o o : o 7.e./ K.C.K.C.D.V. .e.8.8.8.8.8.8.. o o o o o o o o o o o o o o o ",
"o o o o o o o o o o o o o o o o o 7./ d.n.,.-.-.<.n.X. .r.k.k.x.%X.X7.# o o o o o o o o o o o o o o ",
"o o o o o o o o o o o o o o o O Z e./ ^ ;.2.4..X2.1.A.A.L.r.r.p.#X%X> o o o o o o o o o o o o o o o ",
"o o o o o o o o o o o o o o o O 8.e.+Xx =.2..X.X2.,.d.s.).}.E.Q.yXj o o o o o o o o o o o o o o o o ",
"o o o o o o o o o o o o o o o O 8.j.2X@.*.2.4.2.-.;.X.L p k u u x   o o o o o o o o o o o o o o o o ",
"o o o o o o o o o o o o o o o O 8.k.2X@.z :.2.:.4.:.k z x ,.r v , o o o o o o o o o o o o o o o o o ",
"o o o o o o o o o o o o o o O C j.}.!. .w =.:.XXoXG.,.U l <.0 ^ s o o o o o o o o o o o o o o o o o ",
"o o o o o o o o o o o o o o $ 9.z.5Xp.9.< 2.$X+XoXOXV.i p B { +.} o o o o o o o o o o o o o o o o o ",
"o o o o o o o o o o o o o o $ 9.z.5Xt.N 2 =.XX/.OX~.! Y ..p { T.u.o o o o o o o o o o o o o o o o o ",
"o o o o o o o o o o o o o O M y.].|.q.0 3 p a <.V.~ Y V.V.l & u.N o o o o o o o o o o o o o o o o o ",
"o o o o o o o o o o o o o % 0.R.wXx.9.2 B A B a > i <.V.o.p 2 2 $ o o o o o o o o o o o o o o o o o ",
"o o o o o o o o o o o o O c y._.&Xx.9.@ V  .a.3 + w l U w 2 w.w.V o o o o o o o o o o o o o o o o o ",
"o o o o o o o o o o o = k h.W.uXz.j.S @ B A  .p g g     + 2 i.Y.} ; o o o o o o o o o o o o o o o o ",
"o o o o o o o o o o o , 3.6X).yXl.9.a i $ + + j x j , + g g + + + l ; o o o o o o o o o o o o o o o ",
"o o o o o o o o o o o 2 B.yX2XwX;.Z i H.;.! =.:.=., o   + h | =.x ..U ; o o o o o o o o o o o o o o ",
"o o o o o o o o o o o   j @XW.uX8.O   . oXH.O.(.3.> o o   w J./.k l Z.U = o o o o o o o o o o o o o ",
"o o o o o o o o o o o o   2 p.2X8.O   | Z.J.J.U     o o   X k k O.J.O.k = o o o o o o o o o o o o o "
};
