/* XPM */
static const char *cmlnaHQy[] = {
/* columns rows colors chars-per-pixel */
"50 50 217 2 ",
"   c #020103",
".  c #0C0505",
"X  c #0D0805",
"o  c #01000E",
"O  c #0B050C",
"+  c #0D0B0A",
"@  c #160902",
"#  c #13060A",
"$  c #1C060D",
"%  c #150B0B",
"&  c #1B0B0E",
"*  c #16110D",
"=  c #1B120D",
"-  c #0D0610",
";  c #120711",
":  c #140911",
">  c #1C0D12",
",  c #181618",
"<  c #22070F",
"1  c #240F0C",
"2  c #271508",
"3  c #311202",
"4  c #230D14",
"5  c #2B0E16",
"6  c #2F0E18",
"7  c #320A16",
"8  c #330E19",
"9  c #3B0E1B",
"0  c #271515",
"q  c #2A1414",
"w  c #211B1B",
"e  c #281B19",
"r  c #34111B",
"t  c #37181A",
"y  c #392804",
"u  c #25231F",
"i  c #2E221E",
"p  c #3B2619",
"a  c #3A3218",
"s  c #191C22",
"d  c #3A1822",
"f  c #1D2229",
"g  c #252626",
"h  c #292728",
"j  c #2C2B2B",
"k  c #352A25",
"l  c #3B2B23",
"z  c #3F3127",
"x  c #373639",
"c  c #57190B",
"v  c #410F1D",
"b  c #5F031F",
"n  c #45101E",
"m  c #421A1E",
"M  c #47240F",
"N  c #452816",
"B  c #583816",
"V  c #5A341A",
"C  c #79360C",
"Z  c #663A1C",
"A  c #7C3B1C",
"S  c #550C21",
"D  c #431622",
"F  c #4A1121",
"G  c #421D27",
"H  c #4E1D2B",
"J  c #531B2B",
"K  c #6A0624",
"L  c #720325",
"P  c #47202B",
"I  c #4C212D",
"U  c #56202F",
"Y  c #48362A",
"T  c #573629",
"R  c #552532",
"E  c #5C2534",
"W  c #5D2837",
"Q  c #483C34",
"!  c #573530",
"~  c #533C32",
"^  c #5C3C32",
"/  c #623929",
"(  c #632331",
")  c #612B3A",
"_  c #632C3C",
"`  c #632D3C",
"'  c #652E3D",
"]  c #5F440A",
"[  c #6E4D0A",
"{  c #6F4318",
"}  c #7C5D19",
"|  c #46423F",
" . c #564133",
".. c #784524",
"X. c #684B38",
"o. c #72493A",
"O. c #79543D",
"+. c #383840",
"@. c #6C3240",
"#. c #733644",
"$. c #7B3A46",
"%. c #3E4249",
"&. c #48484A",
"*. c #574F49",
"=. c #5A514A",
"-. c #474853",
";. c #535355",
":. c #5A5A5B",
">. c #634D41",
",. c #784D41",
"<. c #67574B",
"1. c #785848",
"2. c #615D5C",
"3. c #7C684B",
"4. c #656464",
"5. c #6B6B6A",
"6. c #716862",
"7. c #7F7668",
"8. c #757575",
"9. c gray47",
"0. c #931D03",
"q. c #853B0D",
"w. c #8D3D0C",
"e. c #803A1F",
"r. c #9B460A",
"t. c #9D490B",
"y. c #8C4414",
"u. c #924818",
"i. c #8C5C18",
"p. c #995712",
"a. c #AE530A",
"s. c #B3580E",
"d. c #A25C1C",
"f. c #8D680D",
"g. c #B06F0C",
"h. c #8D502C",
"j. c #99552B",
"k. c #8A4B31",
"l. c #917138",
"z. c #B46527",
"x. c #A76036",
"c. c #B76739",
"v. c #D1700D",
"b. c #D37A18",
"n. c #D75B3C",
"m. c #C07325",
"M. c #803542",
"N. c #89414D",
"B. c #8A5743",
"V. c #935E47",
"C. c #984854",
"Z. c #A24E58",
"A. c #AB535D",
"S. c #86654E",
"D. c #93624A",
"F. c #886958",
"G. c #95755C",
"H. c #A76749",
"J. c #AF7356",
"K. c #B55761",
"L. c #8F7C6F",
"P. c #9A7964",
"I. c #A77A67",
"U. c #C57548",
"Y. c #CC7D52",
"T. c #D67350",
"R. c #D36771",
"E. c #B28912",
"W. c #A0853D",
"Q. c #C89207",
"!. c #E0811B",
"~. c #EBA90D",
"^. c #D78228",
"/. c #D1AD3A",
"(. c #EAB32E",
"). c #948776",
"_. c #AC836C",
"`. c #BC876D",
"'. c #B68D71",
"]. c #A9937D",
"[. c #D78E57",
"{. c #CCA453",
"}. c #D1906F",
"|. c #D9946C",
" X c #E3906F",
".X c #E89877",
"XX c #D0B271",
"oX c #E9A17F",
"OX c #7F7F80",
"+X c #858585",
"@X c #8D888E",
"#X c #98979A",
"$X c #A69687",
"%X c #B5B0B3",
"&X c #C29E83",
"*X c #CFA98C",
"=X c #EBA786",
"-X c #F0AC8A",
";X c #EDB28D",
":X c #F0AF93",
">X c #EDB998",
",X c #F4BA95",
"<X c #F5BA97",
"1X c #CDB2A0",
"2X c #C6B7AB",
"3X c #F5BFA3",
"4X c #DBC997",
"5X c #F7C6AA",
"6X c #FACBAE",
"7X c #EDCBB2",
"8X c #F7CDB3",
"9X c #FAD4BD",
"0X c #C8C8C7",
"qX c #FBD9C3",
"wX c #FBDCC8",
"eX c #F6E9DB",
"rX c #F0EFEF",
/* pixels */
"o o o o o o o o o o o o o o o o o o o o o o o o o o o o o o o o o o o o o o o o o o o o o o o o o o ",
"o o o o o o o o o o o o o o o o o o o o o o o ; > > > > ; o o o o o o o o o o o o o o o o o o o o o ",
"o o o o o o o o o o o o o o o o o o o o o o - d $.$.G : o o o o o o o o o o o o o o o o o o o o o o ",
"o o o o o o o o o o o o o o o o o o o o o ; > P @.R > o o o o o o o o o o o o o o o o o o o o o o o ",
"o o o o o o o o o o o o o o o o o o o ; : 8 9 U ` G > : - o o o o o o o o o o o o o o o o o o o o o ",
"o o o o o o o o o o o o o o o o ; ; ; 8 5 5 5 I ` G 5 9 6 ; ; ; o o o o o o o o o o o o o o o o o o ",
"o o o o o o o o o o o o o o ; : 9 P P R I P d t G H I E H 9 9 8 ; ; o o o o o o o o o o o o o o o o ",
"o o o o o o o o o o o o o : r P M.' ` ` ` ` E H D J ` ` ) U U J 8 8 ; o o o o o o o o o o o o o o o ",
"o o o o o o o o o o o o : 9 E N.N.' ` ` ` ` ` ` E E ` ` ` ` ` ) J J r ; o o o o o o o o o o o o o o ",
"o o o o o o o o o o o : 9 E N.A.` ` ` ` ` ` E H I E ` ' ` ` ` ` ` ` J r ; o o o o o o o o o o o o o ",
"o o o o o o o o o o : 8 H @.C.A.$.' ` ` ` E D 8 D E ` ` ` ` ` ` ` ` ` J r ; o o o o o o o o o o o o ",
"o o o o o o   o - : 8 F J ` ' C.C.' $.R I D 8 9 J E E E ` ` ` ` ` ` ` ` J r : o o o o o o o o o o o ",
"o o o o o o   O > 8 F H W ` ` ` E ` C.G > 4 9 F F F F J ` ` ` ` ` ` ` ` ` H 5 - o o o o o o o o o o ",
"o o o o o o o   $ 9 v F J ` E E H ` ` ` 4 5 9 v F F J ` ) ) #.#.` ` ` ` ` J r ; o o o o o o o o o o ",
"o o o o o o o o     $ J ) E F F ` ` ` ) H $   5 F F J ) E ( A.A.#.@.' ` @.' J 6 - o o o o o o o o o ",
"o o o o o o o o o ; 8 F F F F F ) ` ) H F 5 > 9 F F F F J #.K.R.R.A.' ) C.#.J 6 - o o o o o o o o o ",
"o o o o o o o o O 6 n n F F F F F ) F F F 5 9 F F J ` E J #.A.A.A.' ` H C.#.J 6 - o o o o o o o o o ",
"o o o o o o o o O 6 n n H ` W F F F F F 5 9 F F J ) E F J #.Z.' ' ` F F ) ' J 6 - o o o o o o o o o ",
"o o o o o o o - 6 v F J ) W F F F F F # 8 F 8 9 J E F J ) ' ' H ` ` F 5 R ` J 6 - o o o o o o o o o ",
"o o o o o o o ; 8 n F F H H F F W F #   . . % 8 F F 9 d ` E H F ` H 5 9 E ` J 6 - o o o o o o o o o ",
"o o o o o o O 6 n 9 8 F F F F E H F 9 9 9 4 8 v F n 8 d ` E n 5 r F 4 R ` J r ; o o o o o o o o o o ",
"o o o o o     O $ 5 6 F F F F J F A e.e.t 4 9 F n 9 4 d E D t k.> 5 > W ` H 5 - o o o o o o o o o o ",
"o o o o o       O 5 v F F F F n 6 x.Y.c.N 8 n F 7 & > r H 9 t j.Z k.0 W J r : o o o o o o o o o o o ",
"o o o o o o o o - 8 F F F F F n > |.-XO.m n F 7 T k.T 6 v 5 % M u.U.q H F 5 - o o o o o o o o o o o ",
"o o o o o o o o - 8 F F n 8 8 n 4 >X8XD.t < < T J.H.p # $ .   % U.U.q v 8 : o o o o o o o o o o o o ",
"o o o o o o o o - 8 F n 6 4 8 n > |.6X|.B.1.1.`.oXH.V ~ -.x   = .X[.q 8 : o o o o o o o o o o o o o ",
"o o o o o o o O > 8 8 6 > 4 8 8 > k.|..X=X5X6X6X3X.XY.`.%X@X3 = .X.X,./ : o o o o o o o o o o o o o ",
"o o o o o o o ; 5 6 > > 4 5 > > > S ..V.=X9XwXwXwX5XoX}.2X1X0.c =X:X:X[./ ; o o o o o o o o o o o o ",
"o o o o o o o O & : % : 5 v > 4 8 L $   `.6XqXwXwXwX9X;X*X7Xn.T.6XwXqX-XY.t o o o o o o o o o o o o ",
"o o o o o o     O O   - 5 9 4 7 L K 9 . J.-X6XqXwXwXwXwXwXwXwXwXwXwX9X,XY.t o o o o o o o o o o o o ",
"o o o o o o o o o o o O & & 4 b b 9 @ @ j.Y.=X6XqXqXwXwXwXwXwXwXwXqX,X}.H.e o o o o o o o o o o o o ",
"o o o o o o o o o o             X . C q.q.q.U.oX;X>X8XqXqXqXqXqX9X,X}.= o o o o o o o o o o o o o o ",
"o o o o o o o o o o o o o o > X w.^ ^ ^ ^ ^ A w.w.w.c.oX,X,X,X,X Xc.X   o o o o o o o o o o o o o o ",
"o o o o o o o o o o o o o o q q.^ B.B._.D.I.1.u.t.t.t.w.w.w.w.w.q.  o o o o o o o o o o o o o o o o ",
"o o o o o o o o o o o o o & q./ B.+.+.&.&.1.B.o.d.[.'.s.v.v.^.2Xa.q.O o o o o o o o o o o o o o o o ",
"o o o o o o o o o o o o o $ q.~ +.&.4.OX+X2.P.1.d.v.J.I.s.s.z.#Xa.@ o o o o o o o o o o o o o o o o ",
"o o o o o o o o o o o o & C t.h &.5.8.+X@X:.1.o.N 1.XX(.~.(.7Xm.2   o o o o o o o o o o o o o o o o ",
"o o o o o o o o o o o o 1 r.g.f &.;.5.9.4.%.F.1.k g a y y a x 3   o o o o o o o o o o o o o o o o o ",
"o o o o o o o o o o o o 1 t.b.#X0X;.;.;.%.s ~ ~ k j g Q >.t c , w o o o o o o o o o o o o o o o o o ",
"o o o o o o o o o o o o 1 y.l.L.$X%X#X-.s , h j j j j  .,.0 ! g ~ w o o o o o o o o o o o o o o o o ",
"o o o o o o o o o o o o 1 y.O.P.P.$X).=.j h g g g g g Q 1.] } { S.~ w o o o o o o o o o o o o o o o ",
"o o o o o o o o o o o o 1 C l <.1X].P.1.~ =.:.5.9.+X#X).W./.Q.g.G.o., o o o o o o o o o o o o o o o ",
"o o o o o o o o o o o o 1 C + k 7.7.<.Y } 3.6.9.+X#X0X4XE.l.f.] S.l   o o o o o o o o o o o o o o o ",
"o o o o o o o o o o o o 1 C w X.z * e + f.i.T Y Y Q 3.{.g.2 2 . l   o o o o o o o o o o o o o o o o ",
"o o o o o o o o o o o o 1 q.B  .F.k ~ p ..h.V N V Z { [ p.p.i.y   o o o o o o o o o o o o o o o o o ",
"o o o o o o o o o o o o 1 t.b.;. .i , N { ..V M N Z T , y g.E.[ o o o o o o o o o o o o o o o o o o ",
"o o o o o o o o o o o o 1 u.[.rXx g o % * { Z =   + &.5.k u     o o o o o o o o o o o o o o o o o o ",
"o o o o o o o o o o o o , 6.0X2X0X<.+ Y X.Y k * w | *.=.G.$X. O o o o o o o o o o o o o o o o o o o ",
"o o o o o o o o o o o o 1 x.eX!.rXu.X   e  .X.i >.*X].1.G.X.l i o o o o o o o o o o o o o o o o o o ",
"o o o o o o o o o o o o 1 j.2Xs.0Xy.#   e k k k =     l _.&X_.i o o o o o o o o o o o o o o o o o o "
};
