/* XPM */
static const char *cmlnaHQx[] = {
/* columns rows colors chars-per-pixel */
"50 50 221 2 ",
"   c #020103",
".  c #0C0405",
"X  c #0C0806",
"o  c #01000E",
"O  c #0B040E",
"+  c #0E0D0D",
"@  c #110603",
"#  c #180C04",
"$  c #13060C",
"%  c #1A060B",
"&  c #13090C",
"*  c #1A0A0D",
"=  c #080712",
"-  c #0E0610",
";  c #120711",
":  c #150911",
">  c #1C0D12",
",  c #121214",
"<  c #1E1412",
"1  c #16151C",
"2  c #230C0B",
"3  c #3B0C02",
"4  c #29190B",
"5  c #391C0C",
"6  c #240D14",
"7  c #2B0E16",
"8  c #2F0E18",
"9  c #320B16",
"0  c #320E19",
"q  c #3B0E1B",
"w  c #241213",
"e  c #281A17",
"r  c #2C1319",
"t  c #371A16",
"y  c #35131C",
"u  c #3A121D",
"i  c #2F2403",
"p  c #372909",
"a  c #2B231D",
"s  c #39251C",
"d  c #191D25",
"f  c #2C1F21",
"g  c #3D1B25",
"h  c #232323",
"j  c #272629",
"k  c #2C2B2B",
"l  c #372B27",
"z  c #2E333B",
"x  c #303032",
"c  c #333333",
"v  c #3C3938",
"b  c #5A1708",
"n  c #420F1E",
"m  c #401F16",
"M  c #45101F",
"N  c #611606",
"B  c #4C3502",
"V  c #492C17",
"C  c #572C18",
"Z  c #5F381F",
"A  c #79370D",
"S  c #6A3618",
"D  c #763B1C",
"F  c #4A1121",
"G  c #451C27",
"H  c #501827",
"J  c #531B2B",
"K  c #670724",
"L  c #700324",
"P  c #4A212D",
"I  c #412F2A",
"U  c #57202F",
"Y  c #5E202F",
"T  c #473629",
"R  c #59382B",
"E  c #4F2430",
"W  c #552431",
"Q  c #5B2434",
"!  c #5C2837",
"~  c #5F2938",
"^  c #4A3A35",
"/  c #5A3B34",
"(  c #673B27",
")  c #743C20",
"_  c #612A39",
"`  c #622C3B",
"'  c #642C3B",
"]  c #632D3C",
"[  c #662F3D",
"{  c #682F3E",
"}  c #623F35",
"|  c #68303E",
" . c #6C4A04",
".. c #6F4F0E",
"X. c #46423F",
"o. c #584335",
"O. c #794426",
"+. c #614336",
"@. c #6F4A35",
"#. c #684D3B",
"$. c #764A33",
"%. c #754B3C",
"&. c #7C713A",
"*. c #6D3241",
"=. c #723543",
"-. c #7A3946",
";. c #434344",
":. c #494748",
">. c #554C48",
",. c #4D4E55",
"<. c #575656",
"1. c #674E48",
"2. c #7B4F41",
"3. c #63554A",
"4. c #755548",
"5. c #76624A",
"6. c #6B6154",
"7. c #73675C",
"8. c #646465",
"9. c #6A6A6B",
"0. c #716862",
"q. c #777777",
"w. c #9D1F03",
"e. c #863A0A",
"r. c #8C3C0A",
"t. c #903F0A",
"y. c #843C11",
"u. c #93400A",
"i. c #98440A",
"p. c #945409",
"a. c #914413",
"s. c #934A1D",
"d. c #A74F0D",
"f. c #AB520D",
"g. c #B3560B",
"h. c #B7590A",
"j. c #A75A14",
"k. c #B55F1A",
"l. c #936912",
"z. c #A07A09",
"x. c #874A23",
"c. c #8F5537",
"v. c #9A5B39",
"b. c #A7582A",
"n. c #A15F31",
"m. c #A96136",
"M. c #B2663D",
"N. c #D4710C",
"B. c #E27B0B",
"V. c #C67924",
"C. c #843D49",
"Z. c #8B424E",
"A. c #91414D",
"S. c #885745",
"D. c #914551",
"F. c #9A4955",
"G. c #A54F5A",
"H. c #AB535D",
"J. c #876756",
"K. c #906B54",
"L. c #9A6956",
"P. c #B2714B",
"I. c #A06B56",
"U. c #B35660",
"Y. c #8A7065",
"T. c #9A7962",
"R. c #A87A66",
"E. c #DC694A",
"W. c #CA784F",
"Q. c #CB7C54",
"!. c #D2666F",
"~. c #BC9116",
"^. c #9F8339",
"/. c #D08A11",
"(. c #E28219",
"). c #EFB00D",
"_. c #DD923F",
"`. c #EFB727",
"'. c #94816F",
"]. c #988473",
"[. c #B38A70",
"{. c #CF8355",
"}. c #CFAB4B",
"|. c #EBA65B",
" X c #C68665",
".X c #DA9069",
"XX c #D89972",
"oX c #E08D6B",
"OX c #E79977",
"+X c #888888",
"@X c #99918E",
"#X c #A79083",
"$X c #9992A8",
"%X c #A8A8A9",
"&X c #B1AEB2",
"*X c #D8A885",
"=X c #C9B295",
"-X c #EEA684",
";X c #E9AC8A",
":X c #F2AD8B",
">X c #EDB28D",
",X c #EBB796",
"<X c #F1B393",
"1X c #F3B99A",
"2X c #C8B8AC",
"3X c #C3BFBA",
"4X c #F6BFA1",
"5X c #DCCCA3",
"6X c #C6C1BB",
"7X c #EEC6AE",
"8X c #F8C6A9",
"9X c #FACEB1",
"0X c #F1D1BB",
"qX c #FAD3BC",
"wX c #C9C8C8",
"eX c #FBD7C1",
"rX c #FBD9C3",
"tX c #FBDCC8",
"yX c #F6E9DB",
"uX c #E6E5E8",
"iX c #F9F7F6",
/* pixels */
"o o o o o o o o o o o o o o o o o o o o o o o o o O > > > > > o o o o o o o o o o o o o o o o o o o ",
"o o o o o o o o o o o o o o o o o o o o o o o o - g -.Z.P : o o o o o o o o o o o o o o o o o o o o ",
"o o o o o o o o o o o o o o o o o o o o o o ; > > g { W > o o o o o o o o o o o o o o o o o o o o o ",
"o o o o o o o o o o o o o o o o o o o o : : 0 n 7 g Q u > : o o o o o o o o o o o o o o o o o o o o ",
"o o o o o o o o o o o o o o o o o : : : G r 6 7 g ! Q M q 0 : : : o o o o o o o o o o o o o o o o o ",
"o o o o o o o o o o o o o o o : : q P P ~ W P P g G J Q Q J q q q : : o o o o o o o o o o o o o o o ",
"o o o o o o o o o o o o o o : u P C.[ ] ] ] ] ] W G J ] ] _ Q Q W q q : o o o o o o o o o o o o o o ",
"o o o o o o o o o o o o o : u Q Z.C.[ ] ] ] ] ] ] ~ ~ ] ] ] ] ] ` W U u : o o o o o o o o o o o o o ",
"o o o o o o o o o o o - : u Q Z.H.[ ] ] ] ] ] E G G ~ ] ] ] ` ] ] ] ] W u : o o o o o o o o o o o o ",
"o o o o o o o O - - > 0 u U | D.H.C.[ ] P G G u 0 G Q ] ] ` ` ` ] ] ] ] U u : o o o o o o o o o o o ",
"o o o o o o o O & > q F F Q ] [ D.D.| -.P > 6 q F J Q Q ~ ] ] ] ] ] ] ] ] J u > o o o o o o o o o o ",
"o o o o o o o o o $ 9 q F F ] ] ] Q ` Z.*.r 7 9 q F F F J ] ] ] ] ] ] ] ] ] J 7 - o o o o o o o o o ",
"o o o o o o o o o o   % F J ` ~ ~ J _ ] ~ F * . 7 F F J ] _ _ =.=.] ] ] ] ] J y : o o o o o o o o o ",
"o o o o o o o o o o ; 0 F ~ Q F F ` ] ~ F F 7 6 q F J ~ ~ Q Y H.U.-.=.[ ] *.[ J 0 - o o o o o o o o ",
"o o o o o o o o o - 7 F F F F F F ~ _ F F M 7 q F F F F F F =.U.!.!.H.*._ F.-.J 0 - o o o o o o o o ",
"o o o o o o o o o ; 8 F F F ] _ F F F n n 7 q M F F J ` Q J =.H.H.H.| _ F A.-.J 0 - o o o o o o o o ",
"o o o o o o o o - 0 F F H ] ] _ F F F .   9 F 8 0 J ] Q J ] =.G.[ ] ] F F ~ ] J 0 - o o o o o o o o ",
"o o o o o o o o - 0 F J ` ] _ F F F F n @     & 0 J Q F J ] [ ' F ] F F 6 W ] J 0 - o o o o o o o o ",
"o o o o o o o - 8 M F F F F F F _ _ F 7 > > * 0 M F F q y ] ~ F F F F 6 q Q ] J 0 - o o o o o o o o ",
"o o o o o o     . $ 6 0 F F F ~ ] r 6 > > > > q F F F q y ~ F M 6 6 M 6 W ` J y ; o o o o o o o o o ",
"o o o o o o o o o O 7 M F F F F F 6 D D D t 0 M M M q 6 r F M y c.> 6 q ~ ] J 7 - o o o o o o o o o ",
"o o o o o o o o o - 7 F F F F M 7 S m.C m u M F F 9 % 7 n M 6 * b.D w M ~ J y : o o o o o o o o o o ",
"o o o o o o o o o - 7 F F M 8 M > s.XXR.e $ % % % R } 7 n t C   5 s.w M J y : o o o o o o o o o o o ",
"o o o o o o o o O : 7 n 8 7 6 M > 5 ;XOXI.( $.S.S.%.l $ % & 5   . W.r M 0 : o o o o o o o o o o o o ",
"o o o o o o o o - 6 0 7 > > 6 M >    X-XOXQ.OX:X:X[.S.R 1 ,.;.  X OXr 8 ( < o o o o o o o o o o o o ",
"o o o o o o o O : 6 7 > > 6 0 M > X Z  XOX-X8X9X9X9X4X[.4.&X@X3 X OXS.2.P.t o o o o o o o o o o o o ",
"o o o o o o o O & & & & * 6 0 0 > q   Z c.*XqXtXtXtXqX,XXX=X2Xw.b -X<X<X.X@.> o o o o o o o o o o o ",
"o o o o o o o           . 6 7 > q L 2 %   R.8XrXtXtXtXqX1X*X0XE.E.8XtXtX<XQ.s o o o o o o o o o o o ",
"o o o o o o o o o o o o O 6 q 6 K K n q . L.-X8XrXtXtXtXtXtXtXtXtXtXtXqX1X{.s o o o o o o o o o o o ",
"o o o o o o o o o o o O * * * > n n t 6 2 x.W.XX,XqXrXtXtXtXtXtXtXtXqX1X Xv.e o o o o o o o o o o o ",
"o o o o o o o o o o o       . > % 4 r.t S y.y.y.M.OX,X7XqXeXeXeXeXqX<X Xe o o o o o o o o o o o o o ",
"o o o o o o o o o o o o o o o > @ r.d.@.+.} +.} ) r.t.b.OX>X>X>X>XoXM.# o o o o o o o o o o o o o o ",
"o o o o o o o o o o o o o o o w r.f.} S.R.L.R.L.%.x.g.d.a.t.t.u.a.r.@ o o o o o o o o o o o o o o o ",
"o o o o o o o o o o o o o o o O r./ S.S.>.:.:.Y.I.%.O.P.=XB.B.(.3Xg.r.$ o o o o o o o o o o o o o o ",
"o o o o o o o o o o o o o o $ e.g./ / >.8.'.q.<.4.%.O.P.#Xh.h.k.$Xg.# o o o o o o o o o o o o o o o ",
"o o o o o o o o o o o o o o & t.g./ j ;.9.+X+X8.J.J.s >.=X).).`.uX# o o o o o o o o o o o o o o o o ",
"o o o o o o o o o o o o o o & t.g.%Xx ;.9.q.8.;.1.2.I h a i i i k o o o o o o o o o o o o o o o o o ",
"o o o o o o o o o o o o o o & t.g.3Xz z ,.<.,.j l ^ x k ^ 4.t N 1 o o o o o o o o o o o o o o o o o ",
"o o o o o o o o o o o o o o & u.N.6XO.:.%XwX&X;.X e j j ^ 2.w / d o o o o o o o o o o o o o o o o o ",
"o o o o o o o o o o o o o o & u.B.6Xs.#.'.#X].3.T l j j v 5. .l...o o o o o o o o o o o o o o o o o ",
"o o o o o o o o o o o o o o & u.B.6Xs.$.K.[.#X[.J.7.+X%X#X^.}./.z.o o o o o o o o o o o o o o o o o ",
"o o o o o o o o o o o o o o & u.B.6Xs.V o.6.7.3.T >.+X&X5X~.&...B o o o o o o o o o o o o o o o o o ",
"o o o o o o o o o o o o o o & u.B.6Xs.# e I T s < a ^ 5.}./.5 4   o o o o o o o o o o o o o o o o o ",
"o o o o o o o o o o o o o o & u.B.6Xs.2 s 4.K.o.e s S .. .p.j.l.p o o o o o o o o o o o o o o o o o ",
"o o o o o o o o o o o o o O 5 f.|.*Xs.w X s T <   # V R j 4 p.z. .o o o o o o o o o o o o o o o o o ",
"o o o o o o o o o o o o o * i.(.iX(.i.% , + + + , , + ;.q.h .     o o o o o o o o o o o o o o o o o ",
"o o o o o o o o o o o o = f n._.iXV.A * , h x v ;.:.v ,.9.x , o o o o o o o o o o o o o o o o o o o ",
"o o o o o o o o o o o o 1 0.wX2XwX3.= o , l :.X.:.<.:.x X.k , o o o o o o o o o o o o o o o o o o o ",
"o o o o o o o o o o o o 2 m.yX(.iXa.$ o e Y.=X'.%.].'.#.T.a o o o o o o o o o o o o o o o o o o o o ",
"o o o o o o o o o o o o 2 v.2Xk.wXa.$ o       o.T.o.  e #.+.e o o o o o o o o o o o o o o o o o o o "
};
