/* XPM */
static const char *dXAx[] = {
/* columns rows colors chars-per-pixel */
"50 50 202 2 ",
"   c #020102",
".  c #0B0504",
"X  c #0D0902",
"o  c #01000E",
"O  c #0A040D",
"+  c #0D0C0D",
"@  c #120906",
"#  c #1E0D03",
"$  c #160109",
"%  c #13050B",
"&  c #14090C",
"*  c #1D090F",
"=  c #1C1205",
"-  c #0C0510",
";  c #0B0A15",
":  c #110710",
">  c #150A11",
",  c #1C0C12",
"<  c #161415",
"1  c #191314",
"2  c #1C1B1B",
"3  c #2D1A0C",
"4  c #351908",
"5  c #230D14",
"6  c #2B0D16",
"7  c #200F19",
"8  c #2C0C19",
"9  c #340A16",
"0  c #350F19",
"q  c #3C0D1B",
"w  c #211514",
"e  c #241A15",
"r  c #23151A",
"t  c #2B131B",
"y  c #291F1C",
"u  c #34121C",
"i  c #3D111D",
"p  c #27221F",
"a  c #2D211E",
"s  c #32241B",
"d  c #392719",
"f  c #181A21",
"g  c #391721",
"h  c #381922",
"j  c #252525",
"k  c #24292F",
"l  c #2C2C2C",
"z  c #342622",
"x  c #3F3126",
"c  c #262A30",
"v  c #2E3238",
"b  c #343434",
"n  c #3B3B3B",
"m  c #4C0419",
"M  c #430F1E",
"N  c #51051C",
"B  c #5B031E",
"V  c #45101F",
"C  c #4F2B04",
"Z  c #572F05",
"A  c #472B18",
"S  c #5A3114",
"D  c #5C351A",
"F  c #76390E",
"G  c #633A1B",
"H  c #520C21",
"J  c #5E0A23",
"K  c #4A1221",
"L  c #481523",
"P  c #431E29",
"I  c #501827",
"U  c #531B2B",
"Y  c #650321",
"T  c #412D23",
"R  c #46202C",
"E  c #4B222D",
"W  c #443124",
"Q  c #48362A",
"!  c #4A362B",
"~  c #533A29",
"^  c #512531",
"/  c #5A2333",
"(  c #5E2837",
")  c #5E2A38",
"_  c #5A3B32",
"`  c #632D3C",
"'  c #623F34",
"]  c #69303F",
"[  c #74431F",
"{  c #534034",
"}  c #574435",
"|  c #7A4721",
" . c #624936",
".. c #6E4B32",
"X. c #6B3140",
"o. c #6D3241",
"O. c #733543",
"+. c #7B3A46",
"@. c #7D3B48",
"#. c #3F444C",
"$. c #474849",
"%. c #514944",
"&. c #524C4B",
"*. c #5C544F",
"=. c #4E4F50",
"-. c gray32",
";. c #5C5A57",
":. c #665247",
">. c #6E5442",
",. c #725947",
"<. c #795A44",
"1. c #7E624E",
"2. c #7F6A5D",
"3. c #686868",
"4. c #766B65",
"5. c #79716B",
"6. c #737474",
"7. c #7C7C7C",
"8. c #893E10",
"9. c #94420A",
"0. c #9F5607",
"q. c #94491B",
"w. c #A44D0A",
"e. c #A65109",
"r. c #AB540E",
"t. c #B47E17",
"y. c #844B22",
"u. c #884F25",
"i. c #8A5125",
"p. c #9C5A26",
"a. c #8F5B3A",
"s. c #A66026",
"d. c #D9750A",
"f. c #DE780A",
"g. c #DD7C16",
"h. c #E27C0A",
"j. c #843E4B",
"k. c #8A414E",
"l. c #8C5743",
"z. c #925D49",
"x. c #8F4450",
"c. c #944752",
"v. c #974854",
"b. c #9A4A55",
"n. c #A34F5A",
"m. c #A6505B",
"M. c #AB535D",
"N. c #B1555F",
"B. c #8D6549",
"V. c #876956",
"C. c #937159",
"Z. c #AB724E",
"A. c #B35660",
"S. c #BB5B65",
"D. c #887365",
"F. c #80746D",
"G. c #9C7C65",
"H. c #897F78",
"J. c #A27E63",
"K. c #C35F68",
"L. c #C7616A",
"P. c #D1666F",
"I. c #D66972",
"U. c #B18012",
"Y. c #E5830B",
"T. c #E78A0B",
"R. c #EC980C",
"E. c #F0A60D",
"W. c #F4B00D",
"Q. c #F8BD0E",
"!. c #DD882A",
"~. c #D98B39",
"^. c #DA8F3C",
"/. c #E28D32",
"(. c #E79234",
"). c #EAA430",
"_. c #F3B536",
"`. c #F9C837",
"'. c #A28168",
"]. c #B08970",
"[. c #D79854",
"{. c #848484",
"}. c #8B8B8B",
"|. c #929292",
" X c #9B9C9D",
".X c #B19B87",
"XX c #A39993",
"oX c #B8AA99",
"OX c #A1A1A2",
"+X c #B3ADA9",
"@X c #C29E83",
"#X c #CCBAA4",
"$X c #C7BFB6",
"%X c #D9C6AE",
"&X c #C9C0B1",
"*X c #D1CDC9",
"=X c #D8D3CD",
"-X c #E9DAC3",
";X c #ECE4D4",
":X c #F3E8DC",
">X c #FDF3E4",
",X c #F6F5F4",
/* pixels */
"o o o o o o o o o o o o o o o o o o o o o o o > P j.x.E > o o o o o o o o o o o o o o o o o o o o o ",
"o o o o o o o o o o o o o o o o o o o o o > , , P ` E > o o o o o o o o o o o o o o o o o o o o o o ",
"o o o o o o o o o o o o o o o o o o o o > R ( h P R w , , > o o o o o o o o o o o o o o o o o o o o ",
"o o o o o o o o o o o o o o o o o > > > , t t P ) P h ^ ^ R > > > o o o o o o o o o o o o o o o o o ",
"o o o o o o o o o o o o o o o > > E ^ ^ ^ ^ ^ U I U ( ` ` ) E q q > > o o o o o o o o o o o o o o o ",
"o o o o o o o o o o o o o o , ^ @.c.] ` ` ` / K K U ` ` ` ` ` / / E i , o o o o o o o o o o o o o o ",
"o o o o o o o o o o o o o , ^ c.M.j.` ` ` ` ( / / ( ` ` ` ` ` ` ` ` / i , o o o o o o o o o o o o o ",
"o o o o o o o o o o o : , E o.M.j.` ` ` ` ` ` ` ` ` ` ` ` ` ` ` ` ` ` / P , : o o o o o o o o o o o ",
"o o o o o o o O - - 7 h E ] x.S.` ` ` ` ` ` ` ` ` ` ` ` ` ` ` ` ` ` ` / ` E u , - - O o o o o o o o ",
"o o o o o o o - > t E ` X.x.K.P.j.` ` ` ` ` ` ` ` ` ` ` ` ` ` ` j.j.` U / / K q 5 > - o o o o o o o ",
"o o o o o o o o - t E ( O.A.L.K.c.` ` ` ` ` ` ` ` ` ` ` ` ` ` ] c.M.j.` U K q q 5 - o o o o o o o o ",
"o o o o o o o o o O 6 I O.M.b.M.+.+.` ` ` ` ` ` ` ` ` ` ` ` ` ` ` v.v.] ` U t > O o o o o o o o o o ",
"o o o o o o o o o - 8 U O.x.o.M.S.S.@.` ` O.@.+.o.o.O.o.` ` O.O.` ` ` ` ` ` g : o o o o o o o o o o ",
"o o o o o o o o - 8 U ` ` ` o.N.I.P.A.O.o.n.L.S.j.k.A.c.` O.n.m.O.` ` ` ) ` U u : o o o o o o o o o ",
"o o o o o o o O 8 I ` ` ` ` X.m.P.m.n.o.c.L.I.S.j.v.K.c.` ` o.m.M.` ` ` I / ` I 0 : o o o o o o o o ",
"o o o o o o : 0 V V I / I ` ` ] m.` ` ` ` c.L.S.j.j.M.c.` ` ` ] n.` ` ` ` K K V V 0 , : o o o o o o ",
"o o o o o o o : , , 6 I ` ` ` ` ` ` ` ` ` ` c.j.` j.x.` ` ` ` ` ` ` ` ` ` I K 6 , , : o o o o o o o ",
"o o o o o o o o o - 6 I ` ` ` ` ` ` ` ` ` ` ` ` ` ` ` ` ` ` ` ` ` ` ` ` ` ` I 6 - o o o o o o o o o ",
"o o o o o o o o o - h ` ( I ` ` ` ` ` ` ` ` ` ` ` ` ` ` ` ` ` ` ` ` ` ` I ( I 6 - o o o o o o o o o ",
"o o o o o o o o O 6 L K K K ` ` ` ` ` ` ` ` ` ` ` ` ` ` ` ` ` ` ` ` ` ` K u i V 6 O o o o o o o o o ",
"o o o o o o O > 6 V K K K K ` ` ` ` ` ` ` ` ` ` ` ` ` ` ` ` ` ` ` ` ` ` K 6 q K V 6 > O o o o o o o ",
"o o o o o o o O . % * 0 K ( ` I ` ` ` ` ` ` ` ` ` ` ` ` ` ` ` ` ` ` I ` K q 8 * % . O o o o o o o o ",
"o o o o o o o o o   . 6 K I g K ` ` U ` ` ` ` ` ` ` ` ` ` ` ` U ` ` K g L K 6 .   o o o o o o o o o ",
"o o o o o o o o o o   * K M 5 K ` U K ( ` ` ` ` ` ` ` ` ` ` ( K U ` K 5 M K 6 O o o o o o o o o o o ",
"o o o o o o o o o o o % V 0 0 K U K K ( ` / ( ` ` ` ` ( / ` ( K K U K 0 0 V 6 - o o o o o o o o o o ",
"o o o o o o o o o o o % 8 5 K K K 0 V ( / K / ` ` ` ` / K / ( V 0 K K K 5 8 , o o o o o o o o o o o ",
"o o o o o o o o o o o - 5 0 V 0 0 , V U K K I ( ` ` ( I K K U V , 0 0 M 0 5 - o o o o o o o o o o o ",
"o o o o o o o o o o o : 5 q 0 , & 6 V K q V K I ( ( I K V q K V 6 & q H q 5 : o o o o o o o o o o o ",
"o o o o o o o o o o O , 9 9 9 &   M K q 5 q K K I I K K q 5 q K M   m N q * & O o o o o o o o o o o ",
"o o o o o o o o o o   $ B J J   . q H 5 6 q V K K K K V q 9 9 H q .   & m $     o o o o o o o o o o ",
"o o o o o o o o o o o o o ; T . 6 6 B $ m q q V K K V q q Y B B 6 6 . T ; o o o o o o o o o o o o o ",
"o o o o o o o o o o o o o o   , Y Y #   & N q q V V q q N &   # Y Y ,   o o o o o o o o o o o o o o ",
"o o o o o o o o o o o o ; f   . .   w.# & @ m q 0 0 q m @ & # w.      . f ; o o o o o o o o o o o o ",
"o o o o o o o o o o o ; c $.%.8.r.. w.#   0.C & , , & C 0.  # w.  l.l.&.$.c ; o o o o o o o o o o o ",
"o o o o o o o o o o o ; c -.4.9.f.e.#   }.~.d.Z % % Z d.~.}.  @ _ ].z.4.-.c ; o o o o o o o o o o o ",
"o o o o o o o o o o o ; v 6.H.9.h.f.oXp.d = # X     X # = 2 j j _ z.4.{.6.v ; o o o o o o o o o o o ",
"o o o o o o o o o o o ; k #.*.9.W.h.:X!.w.F T l l l l l l l j j y ' 2 =.#.k ; o o o o o o o o o o o ",
"o o o o o o o o o o f ;. XOXXX9.Q.h.>X(.d.w.4 + + + + + + + + + . & }.OXOX X;.f o o o o o o o o o o ",
"o o o o o o o o o r { ,.D.D.V.9.Q.h.>X_.Y.w.4           j }.{.3.3.n n 4.D.D.,.{ r o o o o o o o o o ",
"o o o o o o o o o z <.C.'.G.B.9.Q.E.>X`.T.w.V.|.OXOXOX|.7.6.3.-.>.~ . <.G.'.C.<.z o o o o o o o o o ",
"o o o o o o o o o > d ! } { ! 9.Q.Q.-X).Y.w.1.}. X X X|.5.} W d y.U.X x { } ! d > o o o o o o o o o ",
"o o o o o o o o o ; e T ! w A 9.R.R.&X!.h.w.D {  . . . ...y.D A i.t.X s w ! T e + o o o o o o o o o ",
"o o o o o o o o o 1 ! ,.>.e A 9.h.h.=X).Y.w.F | i.i.i.i.| S d 3 u.[ . s e >.,.! 1 o o o o o o o o o ",
"o o o o o o o o o ; a W s   @ 9.h.R.>X_.Y.w.S D G G G G A < < 1 G A .     s W a ; o o o o o o o o o ",
"o o o o o o o o o o o       & 9.h.E.;X/.h.w.~ <     < j 2 n b j .   o o       o o o o o o o o o o o ",
"o o o o o o o o o o o o o o > y.^.^.$X[.^.p.2.n . . n 3.n $.b j < o o o o o o o o o o o o o o o o o ",
"o o o o o o o o o o o o o o ; :.=X#X*X#X*XF.*.%.p p %.;.;.;.*.! 2 o o o o o o o o o o o o o o o o o ",
"o o o o o o o o o o o o o o & q.,Xg.:X/.-XZ.]..X:.:..X#X%X%XoXG.y o o o o o o o o o o o o o o o o o ",
"o o o o o o o o o o o o o o % 8.+Xr.+Xs..Xa.4 .     . x J.1.. .   o o o o o o o o o o o o o o o o o ",
"o o o o o o o o o o o o o o o               W ! 1 1 ! V.@X]. .a o o o o o o o o o o o o o o o o o o "
};
