/* XPM */
static const char *dXAy[] = {
/* columns rows colors chars-per-pixel */
"50 50 204 2 ",
"   c #020102",
".  c #0A0404",
"X  c #0D0903",
"o  c #01000E",
"O  c #09040D",
"+  c #070808",
"@  c #0C0C0C",
"#  c #140206",
"$  c #190903",
"%  c #11050A",
"&  c #15090D",
"*  c #1B090E",
"=  c #16110F",
"-  c #060411",
";  c #0D0610",
":  c #070814",
">  c #0D0A13",
",  c #100710",
"<  c #140911",
"1  c #1C0C12",
"2  c #0E1013",
"3  c #131110",
"4  c #1C1719",
"5  c #25010C",
"6  c #2B1603",
"7  c #291A08",
"8  c #361A09",
"9  c #220C13",
"0  c #2B0D16",
"q  c #270918",
"w  c #2D0C18",
"e  c #340B17",
"r  c #340F19",
"t  c #3C0E1B",
"y  c #281718",
"u  c #251B1C",
"i  c #291E1C",
"p  c #33141D",
"a  c #39131D",
"s  c #35271E",
"d  c #392518",
"f  c #191822",
"g  c #261F20",
"h  c #381821",
"j  c #1E232B",
"k  c #252424",
"l  c #242528",
"z  c #2A2A2A",
"x  c #342622",
"c  c #332820",
"v  c #3B2C22",
"b  c #3A3129",
"n  c #3A3834",
"m  c #4A0218",
"M  c #420E1D",
"N  c #53051D",
"B  c #5B021D",
"V  c #46101F",
"C  c #4D2A04",
"Z  c #542906",
"A  c #472B17",
"S  c #593519",
"D  c #6F3912",
"F  c #4B0F20",
"G  c #560B21",
"H  c #5C0821",
"J  c #461523",
"K  c #4A1221",
"L  c #441E29",
"P  c #4D1C2A",
"I  c #501827",
"U  c #541C2B",
"Y  c #650321",
"T  c #6D0323",
"R  c #720325",
"E  c #452E24",
"W  c #46202B",
"Q  c #4B222D",
"!  c #57202F",
"~  c #463328",
"^  c #453429",
"/  c #4C392D",
"(  c #523E2E",
")  c #522532",
"_  c #5A2332",
"`  c #5E2837",
"'  c #5F2A38",
"]  c #622F37",
"[  c #632D3C",
"{  c #69303F",
"}  c #6E401E",
"|  c #77421F",
" . c #4A433F",
".. c #524032",
"X. c #5C4434",
"o. c #7A4822",
"O. c #664934",
"+. c #624B3A",
"@. c #6D4F3A",
"#. c #343A44",
"$. c #6D3240",
"%. c #713443",
"&. c #763744",
"*. c #783844",
"=. c #7F3B49",
"-. c #3D424B",
";. c #4A4746",
":. c #574D48",
">. c #4E4F51",
",. c #595858",
"<. c #675446",
"1. c #745641",
"2. c #765E4C",
"3. c #6C635D",
"4. c #5F5F60",
"5. c gray38",
"6. c #6C6C6C",
"7. c #767676",
"8. c #7D7671",
"9. c #7C7C7C",
"0. c #81380B",
"q. c #8D3D0B",
"w. c #94440A",
"e. c #9D4A09",
"r. c #975207",
"t. c #894719",
"y. c #A34C0A",
"u. c #B85C0A",
"i. c #A85512",
"p. c #A77812",
"a. c #854D24",
"s. c #905525",
"d. c #9B602F",
"f. c #AD6A29",
"g. c #C56A0A",
"h. c #D4750A",
"j. c #DD7A0A",
"k. c #E37D0A",
"l. c #833E4A",
"z. c #863F4C",
"x. c #87404C",
"c. c #8A424E",
"v. c #8F4450",
"b. c #934652",
"n. c #964853",
"m. c #994955",
"M. c #9F4C57",
"N. c #A7505B",
"B. c #AA525C",
"V. c #AE545E",
"C. c #B1555F",
"Z. c #846652",
"A. c #8C6C54",
"S. c #906B52",
"D. c #B47D5A",
"F. c #B25660",
"G. c #B65862",
"H. c #BD5C66",
"J. c #88756A",
"K. c #907462",
"L. c #8B7D74",
"P. c #C15D67",
"I. c #C6616A",
"U. c #C9626C",
"Y. c #D1666F",
"T. c #D56871",
"R. c #BC8616",
"E. c #E78A0B",
"W. c #ED9C0C",
"Q. c #F0A60D",
"!. c #F6B50E",
"~. c #F8BD0E",
"^. c #DE8424",
"/. c #D98D3A",
"(. c #E39030",
"). c #EFB039",
"_. c #F9C837",
"`. c #BC8242",
"'. c #A58268",
"]. c #AD8A71",
"[. c #B9987B",
"{. c #D59B5C",
"}. c #E19340",
"|. c #F3B844",
" X c #F1BC75",
".X c #E1C06F",
"XX c #868788",
"oX c #97938C",
"OX c #919292",
"+X c #9B9B9B",
"@X c #AB9C8E",
"#X c #B2A296",
"$X c #9E9FA1",
"%X c #A5A5A5",
"&X c #B1ADAB",
"*X c #CCBBA8",
"=X c #D7C2A9",
"-X c #E1D3BB",
";X c #CECCC9",
":X c #EAD9C5",
">X c #EBE3D9",
",X c #F7E8D2",
"<X c #F1EDEA",
"1X c #FDF5E4",
/* pixels */
"o o o o o o o o o o o o o o o o o o o o o o o o ; 1 1 1 < o o o o o o o o o o o o o o o o o o o o o ",
"o o o o o o o o o o o o o o o o o o o o o o o , ] l.L < o o o o o o o o o o o o o o o o o o o o o o ",
"o o o o o o o o o o o o o o o o o o o o o , 1 1 W { W , o o o o o o o o o o o o o o o o o o o o o o ",
"o o o o o o o o o o o o o o o o o o o o , L ) h L _ a 1 < , o o o o o o o o o o o o o o o o o o o o ",
"o o o o o o o o o o o o o o o o o < < < 1 y p L ` P h ) ) L < < < o o o o o o o o o o o o o o o o o ",
"o o o o o o o o o o o o o o o , < Q Q Q Q Q Q P U P ) [ [ ' P t t < , o o o o o o o o o o o o o o o ",
"o o o o o o o o o o o o o o 1 Q *.v.{ [ [ _ U K K U [ [ [ [ [ _ _ Q a < , o o o o o o o o o o o o o ",
"o o o o o o o o o o o o o 1 Q v.V.x.[ [ [ _ ! ! ! ` [ [ [ [ [ [ [ [ _ L a 1 , , , O o o o o o o o o ",
"o o o o o o o o o o o o 1 W $.B.c.[ [ [ [ [ [ [ [ [ [ [ [ [ [ [ [ [ ! [ _ L p 9 < O o o o o o o o o ",
"o o o o o o o o o o ; 1 L { c.G.[ [ [ [ [ [ [ [ [ [ [ [ [ [ [ [ [ [ U ! _ _ J 1 O o o o o o o o o o ",
"o o o o o o o - ; 1 h L { c.P.Y.=.[ [ [ [ [ [ [ [ [ [ [ [ [ [ [ =.=.[ U K K 0 ; o o o o o o o o o o ",
"o o o o o o o , 1 p ) ` &.F.U.I.n.[ [ [ [ [ [ [ [ [ [ [ [ [ [ { m.V.=.[ U K 0 ; o o o o o o o o o o ",
"o o o o o o o o ; < 0 U &.B.M.B.&.&.[ [ [ [ [ [ [ [ [ [ [ [ [ [ [ m.m.{ [ U p < - o o o o o o o o o ",
"o o o o o o o o o - q U %.b.$.V.G.G.*.[ [ $.&.&.{ { %.$.[ [ %.%.[ [ [ [ [ [ U a < o o o o o o o o o ",
"o o o o o o o o o q U [ [ [ $.C.T.Y.F.%.{ M.U.H.z.c.F.b.[ &.V.N.$.[ [ [ [ [ [ U r 9 1 ; o o o o o o ",
"o o o o o o o o q K U [ [ [ $.V.T.B.B.$.m.U.T.H.z.m.I.b.[ %.B.B.B.[ [ [ K K K K V r ; o o o o o o o ",
"o o o o o o o q K U [ _ I [ [ { V.[ [ [ [ m.U.H.z.z.V.b.[ [ [ $.B.[ [ [ [ I K K w ; o o o o o o o o ",
"o o o o o o , 1 1 r K U [ [ [ [ [ [ [ [ [ [ n.z.[ z.b.[ [ [ [ [ [ [ [ [ [ [ U w ; o o o o o o o o o ",
"o o o o o o o o , 1 r U [ [ [ [ [ [ [ [ [ [ { [ [ [ { [ [ [ [ [ [ [ [ [ U ` [ P w ; o o o o o o o o ",
"o o o o o o o o o O w U ` U [ [ [ [ [ [ [ [ [ [ [ [ [ [ [ [ [ [ [ [ [ [ K K K K V w 1 ; o o o o o o ",
"o o o o o o o o ; 0 J _ K K [ [ [ [ [ [ [ [ [ [ [ [ [ [ [ [ [ [ [ [ [ [ K K K K K 9 + o o o o o o o ",
"o o o o o o o O 0 V K K K K [ U [ [ [ [ [ [ [ [ [ [ [ [ [ [ [ [ [ [ [ [ K r t r * O o o o o o o o o ",
"o o o o o o o . % 9 r K K _ U K [ [ [ [ [ [ [ [ [ [ [ [ [ [ [ [ [ [ U [ K t r & + o o o o o o o o o ",
"o o o o o o o o o + * r K P r K [ [ U [ [ [ [ [ [ [ [ [ [ [ [ U [ [ K h J K 0 . o o o o o o o o o o ",
"o o o o o o o o o o + 9 K M 9 K [ U K ` [ [ [ [ [ [ [ [ [ [ ` K U [ K 9 M K 9 + o o o o o o o o o o ",
"o o o o o o o o o o o % r r 9 K U r V ` [ _ ` [ [ [ [ ` _ [ ` K K U K r r r % o o o o o o o o o o o ",
"o o o o o o o o o o o O 1 9 r V K 1 V U _ K _ [ [ [ [ _ K _ ` V r r G F r 9 , o o o o o o o o o o o ",
"o o o o o o o o o o o - 1 9 V G t w V K K K U ' [ [ ' U K K ! V 0 & N G F r 9 O o o o o o o o o o o ",
"o o o o o o o o o o o - 9 r G N & V K t t V K U ' [ _ K V t K K M   1 N M r 1 O o o o o o o o o o o ",
"o o o o o o o o o o o O 1 t N & # t t e 1 t K K U ` U K t 9 M K M   0 * & .   o o o o o o o o o o o ",
"o o o o o o o o o o o       X . R 9 0 N 5 e V K K K K V t q 1 M t # B *   o o o o o o o o o o o o o ",
"o o o o o o o o o o o o o , E . R 0 H # N e t V K K V r e B . 1 9 R . E , o o o o o o o o o o o o o ",
"o o o o o o o o o o o o o o   9 T T #   & N t r K K r 1 e T B . 9 T 9   o o o o o o o o o o o o o o ",
"o o o o o o o o o o o o : 4         y.$ & . m M r K r & . & # Y         o o o o o o o o o o o o o o ",
"o o o o o o o o o o o : j #.3.q.h.. y.y.6     & 1 9 & C r.      + 6.;.;.l : o o o o o o o o o o o o ",
"o o o o o o o o o o f ,.OX$X:.w.k.g.6 $   9.`.Z & 1 & C j.r.    + XX6.>.l : o o o o o o o o o o o o ",
"o o o o o o o o o u X.<.2.J.#Xw.!.k.@Xf.6 4 7 X       X 6 7 4 k ~ 7.,.#.j g > o o o o o o o o o o o ",
"o o o o o o o o i v ..].'.A.Z.w.~.k.>X(.e.D d k z z z z z z k k k -.;.#.XX;.< o o o o o o o o o o o ",
"o o o o o o o o x v = b v ^ S.w.~.k.1X).j.y.A z z z z z k 3 @ + + 2 4.OXL.+.4 o o o o o o o o o o o ",
"o o o o o o o o < y v +.X.E E w.~.Q.1X_.E.y.8 @ @ @ @ @ z 9.7.5.,.n  .J.A.1.u o o o o o o o o o o o ",
"o o o o o o o o > s +.A.A./ A w.~.~.1X_.E.y.K.OXOXOXOXXX7.9.6.,.2...= ~ ^ x > o o o o o o o o o o o ",
"o o o o o o o o > x X.1.1.x A w.W.~. X.X^.u.D.#X%X%X%X+X8.X.E d o.p.X = + o o o o o o o o o o o o o ",
"o o o o o o o o o > i v s 3 . Z u.W.W.-X).g.e.o.+.+.+.+.O.a.S A s.R.X   o o o o o o o o o o o o o o ",
"o o o o o o o o o o o       o . q.j.W.,X|.h.y.t.a.a.a.a.o.S A 8 a.| . o o o o o o o o o o o o o o o ",
"o o o o o o o o o o o o o o o . q.j.k.:X/./.d.| } } } } S 3 + X D A . o o o o o o o o o o o o o o o ",
"o o o o o o o o o o o o o o o O | /./.*X{.=XL.i + 4 b n  .,.k +     o o o o o o o o o o o o o o o o ",
"o o o o o o o o o o o o o o o - <.;X*X;X*X>XD.8 u <.@X=X*XoX;.k o o o o o o o o o o o o o o o o o o ",
"o o o o o o o o o o o o o o o O q.<X^.,X}.[.d.6 / ( / '.2.c K.i o o o o o o o o o o o o o o o o o o ",
"o o o o o o o o o o o o o o o O 0.&Xi.#Xf.6   o o s A.[.'.(     o o o o o o o o o o o o o o o o o o ",
"o o o o o o o o o o o o o o o o           o o o 4 / @.@.@.O.i o o o o o o o o o o o o o o o o o o o "
};
