/* XPM */
static const char *dXAz[] = {
/* columns rows colors chars-per-pixel */
"50 50 204 2 ",
"   c #020102",
".  c #0B0304",
"X  c #0C0903",
"o  c #01000E",
"O  c #0A040C",
"+  c #0A0A0A",
"@  c #170606",
"#  c #12040A",
"$  c #140A0C",
"%  c #1B0B0D",
"&  c #18120F",
"*  c #0D0510",
"=  c #070814",
"-  c #0D0A13",
";  c #110711",
":  c #140911",
">  c #1C0C12",
",  c #121111",
"<  c #1C181A",
"1  c #271705",
"2  c #311809",
"3  c #220C13",
"4  c #2B0C16",
"5  c #2D0D19",
"6  c #340B17",
"7  c #340E19",
"8  c #3B0E1B",
"9  c #231A14",
"0  c #27111A",
"q  c #2A1219",
"w  c #241B1C",
"e  c #291D1C",
"r  c #31131C",
"t  c #3A111D",
"y  c #3D200F",
"u  c #2D221C",
"i  c #35271D",
"p  c #38271A",
"a  c #191822",
"s  c #261F20",
"d  c #351720",
"f  c #3C1B24",
"g  c #1E232B",
"h  c #252423",
"j  c #22262C",
"k  c #292929",
"l  c #342622",
"z  c #352D26",
"x  c #3B2C23",
"c  c #3A3129",
"v  c #393638",
"b  c #4B061A",
"n  c #410D1C",
"m  c #54031C",
"M  c #5C031E",
"N  c #45101F",
"B  c #4E2805",
"V  c #452915",
"C  c #57341A",
"Z  c #783608",
"A  c #6B3A18",
"S  c #713810",
"D  c #520D21",
"F  c #441523",
"G  c #4A1221",
"H  c #431E29",
"J  c #4D1E2B",
"K  c #501827",
"L  c #541C2C",
"P  c #670321",
"I  c #6B0423",
"U  c #600B22",
"Y  c #47242A",
"T  c #4B222E",
"R  c #57202F",
"E  c #532E2B",
"W  c #463428",
"Q  c #4D392C",
"!  c #52382B",
"~  c #532532",
"^  c #5A2333",
"/  c #5E2837",
"(  c #5E2A38",
")  c #593A31",
"_  c #632D3C",
"`  c #682F3E",
"'  c #69303F",
"]  c #6E401E",
"[  c #79431E",
"{  c #4F453E",
"}  c #524032",
"|  c #5C4434",
" . c #794823",
".. c #664635",
"X. c #624B3A",
"o. c #6B4E3A",
"O. c #3A3E47",
"+. c #6B3140",
"@. c #6D3240",
"#. c #713443",
"$. c #763744",
"%. c #783844",
"&. c #7F3B49",
"*. c #4E4440",
"=. c #534B44",
"-. c #59595A",
";. c #6B5647",
":. c #745641",
">. c #775D4C",
",. c #715E53",
"<. c #7C685A",
"1. c #5F5F61",
"2. c #696969",
"3. c #7A6C64",
"4. c #767574",
"5. c #7D7671",
"6. c #7C7C7C",
"7. c #841F1B",
"8. c #8F3312",
"9. c #94420A",
"0. c #98440A",
"q. c #9B4B0A",
"w. c #975207",
"e. c #A44D0A",
"r. c #B65A0A",
"t. c #A6591C",
"y. c #B06F0D",
"u. c #854D24",
"i. c #925524",
"p. c #9A5428",
"a. c #875237",
"s. c #C96C09",
"d. c #D5730A",
"f. c #D9750B",
"g. c #E27D0A",
"h. c #853F4B",
"j. c #863F4C",
"k. c #87404C",
"l. c #8A414D",
"z. c #8D5844",
"x. c #8F4450",
"c. c #934652",
"v. c #964853",
"b. c #994955",
"n. c #9F4C57",
"m. c #A7505B",
"M. c #AA525C",
"N. c #AE545E",
"B. c #B1555F",
"V. c #8B6B54",
"C. c #886B57",
"Z. c #906F58",
"A. c #A8714E",
"S. c #B25660",
"D. c #B65862",
"F. c #BD5C66",
"G. c #8B7567",
"H. c #827F7D",
"J. c #C15D67",
"K. c #C6616A",
"L. c #C9626C",
"P. c #D1666F",
"I. c #D56871",
"U. c #BC8616",
"Y. c #DF831E",
"T. c #E6860B",
"R. c #EC990D",
"E. c #EFA40F",
"W. c #F2AB0D",
"Q. c #F7BB0E",
"!. c #F8BD0E",
"~. c #DE8424",
"^. c #DB8C37",
"/. c #E8982B",
"(. c #EDA120",
"). c #F0AF25",
"_. c #F2B436",
"`. c #F9C837",
"'. c #A58268",
"]. c #B39177",
"[. c #C68245",
"{. c #D89449",
"}. c #DEBE67",
"|. c #EEBC7F",
" X c #858687",
".X c #958C89",
"XX c #929292",
"oX c #9A9A9A",
"OX c #AA9989",
"+X c #AFA195",
"@X c #9E9FA1",
"#X c #A5A5A5",
"$X c #AAAAAA",
"%X c #CDB193",
"&X c #CCB8A3",
"*X c #CFC3B3",
"=X c #C5C4C2",
"-X c #D1CCC8",
";X c #D9D5D1",
":X c #F2E0CE",
">X c #EFE4D7",
",X c #EBE7E4",
"<X c #F2ECE6",
"1X c #FEF7E5",
/* pixels */
"o o o o o o o o o o o o o o o o o o o o o o o o o O > > > > > o o o o o o o o o o o o o o o o o o o ",
"o o o o o o o o o o o o o o o o o o o o o o o o * f %.l.T < o o o o o o o o o o o o o o o o o o o o ",
"o o o o o o o o o o o o o o o o o o o o o : > > f ( ` ~ > O o o o o o o o o o o o o o o o o o o o o ",
"o o o o o o o o o o o o o o o o o o o o : H ~ d H _ T 0 > : o o o o o o o o o o o o o o o o o o o o ",
"o o o o o o o o o o o o o o o o o : : : > 0 r H / T f ~ ~ H : : : o o o o o o o o o o o o o o o o o ",
"o o o o o o o o o o o o o o O : : T T T T T T J L J ~ _ _ ( J 8 8 : : O o o o o o o o o o o o o o o ",
"o o o o o o o o o o o o o O > T $.x.' _ _ ^ L G G L _ _ _ _ _ ^ ^ T t : O o o o o o o o o o o o o o ",
"o o o o o o o o o o o O ; > T x.N.k.` _ _ ^ R R R / _ _ _ _ _ _ _ _ ^ t : O o o o o o o o o o o o o ",
"o o o o o o o o O * * > f Y @.M.l.` _ _ _ _ _ _ _ _ _ _ _ _ _ _ _ _ _ ^ t : O o o o o o o o o o o o ",
"o o o o o o o o O : 0 Y _ ' l.D._ _ _ _ _ _ _ _ _ _ _ _ _ _ _ _ _ _ _ ^ L H > * O o o o o o o o o o ",
"o o o o o o o o o O 0 ~ ' l.J.P.&.` _ _ _ _ _ _ _ _ _ _ _ _ _ ` &.&.` L ^ ^ t 5 > * O o o o o o o o ",
"o o o o o o o o o o ; f $.S.L.K.v.` _ _ _ _ _ _ _ _ _ _ _ _ _ ' b.N.&.` L G n 8 4 > * o o o o o o o ",
"o o o o o o o o o * 5 L $.M.n.M.$.$.` _ _ _ _ _ _ _ _ _ _ _ _ _ ` b.b.' _ L q > : * o o o o o o o o ",
"o o o o o o O O * 5 L _ #.c.@.N.D.D.%.` _ @.$.$.' ' #.@._ ` #.#._ _ _ _ _ _ d ; o o o o o o o o o o ",
"o o o o o o * > 7 L _ _ _ _ @.B.I.P.S.#.' n.L.F.j.l.S.c._ #.m.m.@._ _ _ _ _ L 7 ; o o o o o o o o o ",
"o o o o o o o * 7 N L _ _ _ @.N.I.M.M.@.b.L.I.F.j.b.K.c._ _ @.M.M.` _ _ G / _ L 7 ; o o o o o o o o ",
"o o o o o o o o * 5 G G K _ _ ' N.` _ _ _ b.L.F.j.j.N.c._ _ _ +.M.` _ _ _ G G G G 7 # o o o o o o o ",
"o o o o o o o o o * 5 L _ _ _ _ ` _ _ _ _ ` v.h.` j.c.` _ _ _ _ ` _ _ _ _ G G 5 > > > $ o o o o o o ",
"o o o o o o o o o * d _ _ _ _ _ _ _ _ _ _ _ ' ` _ ` ' _ _ _ _ _ _ _ _ _ _ _ L 5 * O O o o o o o o o ",
"o o o o o o * > > d / / G L _ _ _ _ _ _ _ _ _ _ _ _ _ _ _ _ _ _ _ _ _ _ L / L 5 * o o o o o o o o o ",
"o o o o o o O   3 F G G G G _ _ _ _ _ _ _ _ _ _ _ _ _ _ _ _ _ _ ` _ _ _ G G G N 4 * o o o o o o o o ",
"o o o o o o o o O 4 G G G / _ _ _ _ _ _ _ _ _ _ _ _ _ _ _ _ _ _ ` _ _ _ G 7 8 G N 4 * o o o o o o o ",
"o o o o o o o o o O 4 G G L L L _ _ _ _ _ _ _ _ _ _ _ _ _ _ _ _ _ ` L _ G 8 5 3 % # O O o o o o o o ",
"o o o o o o o o o o # 7 G N 7 G _ _ L _ _ _ _ _ _ _ _ _ _ _ _ L _ _ G f F G 4 .   o   O o o o o o o ",
"o o o o o o o o o o   3 G n 3 G _ L G / _ _ _ _ _ _ _ _ _ _ / G L _ G 3 n G 3   o o o o o o o o o o ",
"o o o o o o o o o o o # 7 7 7 G L 7 N / _ ^ / _ _ _ _ / ^ _ / G G L G 3 7 7 # o o o o o o o o o o o ",
"o o o o o o o o o o O : 3 7 G G 7 > N / ^ G ^ _ _ _ _ ^ G ^ L N 8 G G 7 3 > O o o o o o o o o o o o ",
"o o o o o o o o o o O 3 7 G N 8 > > N R G G L ( _ _ ( L G G G N 5 8 G G 7 3 * o o o o o o o o o o o ",
"o o o o o o o o o o O > 7 8 8 6 $ 4 N G 8 n G ^ _ ( L G N 8 8 G N $ D D n 3 * o o o o o o o o o o o ",
"o o o o o o o o o o o   . % 6 m   n G n 3 8 G L / L G G 8 > 3 8 8 . m m 3 $ O o o o o o o o o o o o ",
"o o o o o o o o o o o o o # U     N D 6 3 7 N G G G G N 8 4 > 4 4 4 @ $       o o o o o o o o o o o ",
"o o o o o o o o o o o o o : W . 3 P P P 6 3 7 N G G N 8 8 m # P I I I E : o o o o o o o o o o o o o ",
"o o o o o o o o o o o o o o . I I 3     m 8 > 7 G G 8 8 m $   X > > >   o o o o o o o o o o o o o o ",
"o o o o o o o o o o o o o o           M 6 M 8 7 G 7 n b . $ 1 s.        < = o o o o o o o o o o o o ",
"o o o o o o o o o o o o = j *.8.e.X M @   Z 7.n 3 > n b   1 r.s.. a.H.2.O.g = o o o o o o o o o o o ",
"o o o o o o o o o o o o = j =.9.f.X .   w.d.8.n > $ B [.6.  @ 1 ! z.4.-.@XXX-.a o o o o o o o o o o ",
"o o o o o o o o o o o - s g v 9.g.r.OXi.B 1 @ .     X 9 <   u h ) ..O.@XG.>.;.| e o o o o o o o o o ",
"o o o o o o o o o o o : *. Xv 9.W.g.>X^.q.Z V k k k k k k k h h u ) 1.<.Z.'.].} x e o o o o o o o o ",
"o o o o o o o o o o o < o.G..X9.!.W.1X/.d.e.y , , , , , , , + + + & h V.W z c & x l o o o o o o o o ",
"o o o o o o o o o o o w :.V.G.9.!.!.1X_.T.e.2           h 6.4.2.-.v   i W | o.x 9 : o o o o o o o o ",
"o o o o o o o o o o o - l W ! 9.R.Q.1X`.T.e.>. XXXXXXX X4.6.2.-.>.} . i Q V.V.X.i - o o o o o o o o ",
"o o o o o o o o o o o o o $ A e.g.}.|.(.d.q.V.oX#X#X#XoX5.| W p  .y.X u l :.:.| l - o o o o o o o o ",
"o o o o o o o o o o o o o % 9.s.R.*XY.g.r.0. .X.X.X.X.X...u.C V i.U.X   , i x e - o o o o o o o o o ",
"o o o o o o o o o o o o o % 0.g.E.;X(.g.r.S A u.u.u.u.u. .C V 2 u.[ X o       o o o o o o o o o o o ",
"o o o o o o o o o o o o o > u.{.{.,X).T.e.p C ] ] ] ] ] C , , & A V . o o o o o o o o o o o o o o o ",
"o o o o o o o o o o o o o : ,.;X%X=X{.^.i.<.=.c <   X 9 z =.{ z     o o o o o o o o o o o o o o o o ",
"o o o o o o o o o o o o o % p.<Xf.-X&X-X3.+X*XOX;.w 9 o.V.V.>.Q , o o o o o o o o o o o o o o o o o ",
"o o o o o o o o o o o o o % [ #Xq.<X~.:XA.A.'.Q Q Q   $ x u     o o o o o o o o o o o o o o o o o o ",
"o o o o o o o o o o o o o o       $Xt.+Xa.A.].V.i o o 9 ..Q   o o o o o o o o o o o o o o o o o o o ",
"o o o o o o o o o o o o o o o o o         Q o.o.Q < o o o o o o o o o o o o o o o o o o o o o o o o "
};
