/* XPM */
static char *f16a45262c29458af098ddcb8b49a47dwn7zjWBZocsZsHvG[] = {
/* columns rows colors chars-per-pixel */
"50 50 26 1 ",
"  c gray7",
". c #131313",
"X c gray8",
"o c #151515",
"O c #161616",
"+ c gray9",
"@ c #181818",
"# c #191919",
"$ c gray10",
"% c #1B1B1B",
"& c gray11",
"* c #1D1D1D",
"= c #1E1E1E",
"- c gray12",
"; c #202020",
": c gray13",
"> c #222222",
", c #232323",
"< c gray14",
"1 c #252525",
"2 c gray15",
"3 c #272727",
"4 c #282828",
"5 c gray16",
"6 c #2A2A2A",
"7 c gray17",
/* pixels */
"oooooooooooooooooooooooooooooooo%%oooooooooooooooo",
"oooooooo%%oooooooooooooo%%%%oooo  oooooooooooooooo",
">>>>>>>>->>>>-%o>>>>>>>>->>>>>>>o%>>>>>>>--->>>>>>",
">>>>>>>->>>2>>%o>>>>>-->>>>>>>>> o->>>>>>>>>>>>>>>",
"6666666662>-->-->22666666622>>>->>>26666222222>>>>",
"62222222622>>>>>->26222266622>>>>>>>26626666622>>>",
"62>>>>>>->>>>>-->2222>>>>>>>>>>>>>>>262>>>>>>>>->>",
"62>>>>>>>>>>>>>>>>22>>>>>>>>>>>>>>>222>->>>>>>>>>>",
">>>>>>>>>>>>>>>>>>>>>>>>>>>>>>>>>>>--->>>>>->>->>>",
">>>>>>>>->>>>>>->>>>>>>>>>>>>>>>->>>>>>>>>>->>->>>",
">>>>>>>>>>>>>-%o>>>>>>>>>>>>>>>>o%->>>>>>>>->>->>>",
">-->>>>>>>>>>-%o>>-->>>>>--->-->o%->>>>>>>>>>>->>>",
"ooooooooooo%%%oo%oooooooooooooooooo%%oooo%oo%ooooo",
"ooooooo ooooooooooooooo oooooooooooooooooo  oooooo",
">>>>>-%%>>>>>>>->>>>>-%%>>>>>>>>->>>>>>>>>%%>>>>>>",
">>>>>-o >>>>>>>>>>>>>-o >>>>>>>>>>>>>>>>>-oo->>>>>",
"62>->>>>>>26662662>>>>>>>>266666666662>>>->>->6622",
"62>>>>>>>266222262>>>>>>->662222222222>>>->>->6666",
">>>>>>>>-2662>>>>>>>>>>>-2662>>>>>>>>>>>>>>>->66>>",
">->>>>>>>>22>>->>>>>>>>>>>22>>->>>->>>>->>>>>>22>>",
">>>>>>>>>>>>>>>>>>>>>>>>>>>>>>>>>>>>>>>>>>>>>>>>>>",
">>>>>>-->>-->>>>>>>>>>-->>-->>>>>>>>>>>>>>-->>>>>>",
">>>>>-%o>>>>>>>>>>->>-%o>>-->>>>->>>>>>>>>%%>>->>>",
">>>>>-% ->>>>>>>>>>>>-% ->>>>>>>->>>>>>>>-oo->->>>",
"oooooooooooooooooooooooooooooooo%%oooooooooooooooo",
"oooooooo%%oooooooooooooo%%%%oooo  oooooooooooooooo",
">>>>>>>>->>>>-%o>>>>>>>>->>>>>>>o%>>>>>>>--->>>>>>",
">>>>>>>->>>2>>%o>>>>>-->>>>>>>>> o->>>>>>>>>>>>>>>",
"6666666662>-->-->22666666622>>>->>>26666222222>>>>",
"62222222622>>>>>->26222266622>>>>>>>26626666622>>>",
"62>>>>>>->>>>>-->222>>>>>>>>>>>>>>>>262>>>>>>>>->>",
"62>>>>>>>>>>>>>2>>22>>>>>>>>>>>>>>>222>->>>>>>>>>>",
">>>>>>>>>>--->>>>>>>>->>>>>>>>>>->>>>>>>>>>->>->>>",
">>>>>>>>>>>>>>>->>>>>>>>>>>>>>>>-->>>>>>>>>->>->>>",
">>>>>>>>>>>>>-%o>>>>>>->>>>>>>>>o%->>>>>>>>->>->>>",
">-->>>>>>>>>>-%o>>>>>>>->--->>>>o%->>>>>>>>->>->>>",
"ooooooooooo%%ooo%ooooooooooooooooo%%%oooo%oo%ooooo",
"ooooooo ooooooooooooooo oooooooooooooooooo  oooooo",
">>>>>-%%>>>>>>>->>>>>-%%>>>>>>>>--->>>>>>>%%>>>>>>",
">>>>>-o >>>>>>>>>>>>>-o >>>>>>>>>>>>>>>>>-oo->>>>>",
"62>->>>>>>26666662>>>>-->>226666666662>->->>->6622",
"62>>>>>>>266222262>>>>>>>2662222222222>>>->>->6666",
">>>>>>>>-2662>>>>>>>>>>>-2662>>>>>>>>>>->>>>->66>>",
">->>>>>>>>22>-->-->>>>>>>>22>>>>>>->>>>->>>>>>22>>",
">>>>>>>>>>>>>>>>>>>>>>>>>>>>>>>>>>>>>>>>>>>>>>>>>>",
">>>>>>-->>-->>>>>>>>>>-->>-->>>>>>>>>>>>>>-->>>>>>",
">>>>>-%o>>-->>>>>>>>>-%o>>>>>>>>->>>>>->>>%%>>->>>",
">>>>>-% ->>>>>>>>>>>>-% ->>>>>>>->>>>>>>>-oo->->>>",
"oooooooooooooooooooooooooooooooooooooooooooooooooo",
"oooooooooooooooooooooooooooooooooooooooooooooooooo"
};
